<svg xmlns="http://www.w3.org/2000/svg" height="1200" width="1600" version="1.1"
  xmlns:xlink="http://www.w3.org/1999/xlink" xmlns:svgjs="http://svgjs.com/svgjs">
  <g>
    <path
      d="M1100.5 268.25H506.53C466.31 268.25 433.79 300.77 433.79 340.99V899.04C433.79 939.27 466.31 971.79 506.53 971.79H1100.5C1140.72 971.79 1173.24 939.27 1173.24 899.04V340.99C1173.24 300.77 1140.59 268.25 1100.5 268.25Z"
      fill="#cfcfcf" opacity="1" stroke-width="4" stroke="#000000"></path>
    <path
      d="M513.33 397.41C529.85 397.41 543.23 384.03 543.23 367.5 543.23 350.98 529.85 337.6 513.33 337.6 496.8 337.6 483.42 350.98 483.42 367.5 483.42 384.03 496.8 397.41 513.33 397.41Z"
      fill="#9297cb" opacity="1" stroke-width="4" stroke="#000000"></path>
    <path
      d="M600.17 397.41C616.69 397.41 630.08 384.03 630.08 367.5 630.08 350.98 616.69 337.6 600.17 337.6 583.65 337.6 570.27 350.98 570.27 367.5 570.27 384.03 583.65 397.41 600.17 397.41Z"
      fill="#9297cb" opacity="1" stroke-width="4" stroke="#000000"></path>
    <path
      d="M687.15 397.41C703.67 397.41 717.06 384.03 717.06 367.5 717.06 350.98 703.67 337.6 687.15 337.6 670.63 337.6 657.25 350.98 657.25 367.5 657.25 384.03 670.63 397.41 687.15 397.41Z"
      fill="#9297cb" opacity="1" stroke-width="4" stroke="#000000"></path>
  </g>
  <g>
    <path
      d="M800 663.83V848.05C800 848.24 800 848.24 799.81 848.24 697.94 848.05 615.59 765.7 615.59 663.83 615.59 561.97 698.14 479.43 800 479.43V663.83Z"
      fill="#373a50" opacity="1" stroke-width="4" stroke="#000000"></path>
    <path
      d="M800.2 663.83L975.24 607.05C975.44 607.05 975.44 607.05 975.44 607.24 1006.66 704.03 953.77 807.85 857.18 839.46 838.84 845.51 819.71 848.63 800.39 848.44 800.2 848.44 800.2 848.44 800.2 848.24V663.83C800 663.83 800 663.83 800.2 663.83Z"
      fill="#ee7036" opacity="1" stroke-width="4" stroke="#000000"></path>
    <path
      d="M800.98 663.05L949.09 555.53H949.29C960.8 571.14 969.39 588.31 975.24 606.46 975.24 606.66 975.24 606.66 975.05 606.66L800.98 663.05C800.78 663.25 800.98 663.44 800.98 663.05Z"
      fill="#cfcfcf" opacity="1" stroke-width="4" stroke="#000000"></path>
    <path
      d="M800 663.44V479.62C800 479.43 800 479.43 800.2 479.43 861.08 479.43 913.19 505.96 949.09 555.34V555.53L800 663.44C800 663.64 800.2 663.64 800 663.44Z"
      fill="#9297cb" opacity="1" stroke-width="4" stroke="#000000"></path>
    <path
      d="M800.2 767.26C857.32 767.26 903.62 720.95 903.62 663.83 903.62 606.72 857.32 560.41 800.2 560.41 743.08 560.41 696.77 606.72 696.77 663.83 696.77 720.95 743.08 767.26 800.2 767.26Z"
      fill="#cfcfcf" opacity="1" stroke-width="4" stroke="#000000"></path>
    <path
      d="M800 663.83C788.29 663.83 778.93 654.27 778.93 642.56 778.93 630.86 788.49 621.49 800.2 621.49 811.91 621.49 821.27 631.05 821.27 642.56"
      stroke="#000000" stroke-width="4" stroke-linecap="round" stroke-linejoin="round" opacity="1" fill="none"></path>
    <path
      d="M800 663.83C811.71 663.83 821.27 673.2 821.27 684.91 821.27 696.62 811.91 706.18 800.2 706.18 788.49 706.18 778.93 696.81 778.93 685.1"
      stroke="#000000" stroke-width="4" stroke-linecap="round" stroke-linejoin="round" opacity="1" fill="none"></path>
    <path d="M800 621.49V610.56" stroke="#000000" stroke-width="4" stroke-linecap="round" stroke-linejoin="round"
      opacity="1" fill="none"></path>
    <path d="M799.81 717.11V706.18" stroke="#000000" stroke-width="4" stroke-linecap="round" stroke-linejoin="round"
      opacity="1" fill="none"></path>
  </g>
  <g>
    <path
      d="M1237.67 972.23L1123.08 972.39C1106.07 972.36 1092.42 958.72 1092.57 941.95L1092.63 713.47C1092.66 696.46 1106.31 682.81 1123.08 682.96L1237.67 682.8C1254.68 682.83 1268.33 696.48 1268.17 713.25L1268.12 941.73C1268.2 958.37 1254.55 972.03 1237.67 972.23Z"
      fill="#9297cb" opacity="1" stroke-width="4" stroke="#000000"></path>
    <path
      d="M1226.2 819.38L1134.59 819.41C1124.89 819.43 1117.02 811.49 1117 801.79L1116.96 727.79C1116.94 718.09 1124.88 710.22 1134.58 710.2L1226.18 710.17C1235.88 710.15 1243.75 718.09 1243.77 727.79L1243.82 801.79C1243.83 811.49 1235.9 819.36 1226.2 819.38Z"
      fill="#ee7036" opacity="1" stroke-width="4" stroke="#000000"></path>
    <path
      d="M1226.1 901.65L1134.5 901.68C1124.8 901.7 1116.92 893.76 1116.91 884.06L1116.82 862.87C1116.81 853.17 1124.74 845.3 1134.44 845.28L1226.05 845.25C1235.75 845.23 1243.62 853.17 1243.64 862.87L1243.72 884.06C1243.74 893.76 1236.04 901.51 1226.1 901.65Z"
      fill="#373a50" opacity="1" stroke-width="4" stroke="#000000"></path>
  </g>
  <g>
    <path
      d="M405.1 377.59C360.31 388.88 333.2 434.22 344.35 478.93 350.45 503.31 367.33 523.71 390.11 534.32 404.88 541.12 415.61 554.33 419.27 570.08L425.63 578.18 473.75 567.34 478.85 556.65C475.32 540.99 479.23 524.48 489.57 512.14 519.15 476.73 514.56 424.11 479.13 394.41 458.59 377.34 431.05 371.03 405.1 377.59Z"
      fill="#ee7036" opacity="1" stroke-width="4" stroke="#000000"></path>
    <path
      d="M419.3 570.19L423.98 590.96C427.69 607.41 443.96 617.69 460.41 613.99 476.87 610.28 487.15 594.01 483.44 577.55L478.76 556.79 419.3 570.19Z"
      fill="#373a50" opacity="1" stroke-width="4" stroke="#000000"></path>
    <path d="M419.27 570.08L478.85 556.65" stroke="#000000" stroke-width="4" stroke-linecap="round"
      stroke-linejoin="round" opacity="1" fill="none"></path>
    <path d="M422.98 586.53L482.45 573.13" stroke="#000000" stroke-width="4" stroke-linecap="round"
      stroke-linejoin="round" opacity="1" fill="none"></path>
    <path
      d="M439.02 565.63L433.67 541.91C430.09 526.02 420.4 512.11 406.63 503.41 396.2 496.81 388.97 486.4 386.25 474.37 384.34 465.86 389.72 457.49 398.12 455.6 406.63 453.68 415 459.07 416.89 467.47L418.89 476.32C420.12 481.76 425.54 485.19 430.99 483.96 436.43 482.74 439.86 477.31 438.63 471.87L436.64 463.01C434.72 454.5 440.11 446.13 448.51 444.24L448.73 444.19C457.24 442.27 465.61 447.66 467.51 456.06 470.22 468.09 468.06 480.74 461.47 491.16 452.79 505.04 449.86 521.68 453.47 537.68L458.9 561.26"
      stroke="#000000" stroke-width="4" stroke-linecap="round" stroke-linejoin="round" opacity="1" fill="none"></path>
  </g>
  <g>
    <path d="M367.42 829.13L271.79 861.18 371.55 881.96 267.21 990.53 395.16 964.54 401.32 1063.03 454.13 1000.69"
      stroke="#000000" stroke-width="4" stroke-linecap="round" stroke-linejoin="round" opacity="1" fill="none"></path>
  </g>
  <g>
    <path
      d="M1144 229.58L1146.34 124.44 1213.92 218.34 1332.12 155.13 1266.68 266.24 1372.55 305.97 1256.51 342.45 1317.97 397.14"
      stroke="#000000" stroke-width="4" stroke-linecap="round" stroke-linejoin="round" opacity="1" fill="none"></path>
  </g>
  <g>
    <path
      d="M278.33 748.5C296.94 748.5 312.03 763.59 312.03 782.2 312.03 800.82 296.94 815.91 278.33 815.91 259.71 815.91 244.62 800.82 244.62 782.2 244.62 763.59 259.71 748.5 278.33 748.5Z"
      fill="#9297cb" opacity="1" stroke-width="4" stroke="#000000"></path>
  </g>
  <g>
    <path
      d="M1323.39 442.12C1346.43 442.12 1365.11 460.8 1365.11 483.83 1365.11 506.87 1346.43 525.54 1323.39 525.54 1300.36 525.54 1281.68 506.87 1281.68 483.83 1281.68 460.8 1300.36 442.12 1323.39 442.12Z"
      fill="#373a50" opacity="1" stroke-width="4" stroke="#000000"></path>
  </g>
  <g>
    <path
      d="M585.16 223.43C599.35 223.43 610.86 211.92 610.86 197.73 610.86 183.53 599.35 172.02 585.16 172.02 570.96 172.02 559.45 183.53 559.45 197.73 559.45 211.92 570.96 223.43 585.16 223.43Z"
      fill="#cfcfcf" opacity="1" stroke-width="4" stroke="#000000"></path>
  </g>
</svg>