<svg xmlns="http://www.w3.org/2000/svg" height="1200" width="1600" version="1.1"
  xmlns:xlink="http://www.w3.org/1999/xlink" xmlns:svgjs="http://svgjs.com/svgjs">
  <g>
    <path
      d="M1141.91 271.38H603.39C566.92 271.38 537.43 300.87 537.43 337.34V843.29C537.43 879.76 566.92 909.24 603.39 909.24H1141.91C1178.37 909.24 1207.86 879.76 1207.86 843.29V337.34C1207.86 300.98 1178.26 271.38 1141.91 271.38Z"
      fill="#cfcfcf" opacity="1" stroke-width="4" stroke="#000000"></path>
    <path
      d="M609.07 386.83C624.05 386.83 636.19 374.69 636.19 359.71 636.19 344.74 624.05 332.6 609.07 332.6 594.1 332.6 581.96 344.74 581.96 359.71 581.96 374.69 594.1 386.83 609.07 386.83Z"
      fill="#ee7036" opacity="1" stroke-width="4" stroke="#000000"></path>
    <path
      d="M687.81 386.83C702.79 386.83 714.93 374.69 714.93 359.71 714.93 344.74 702.79 332.6 687.81 332.6 672.84 332.6 660.7 344.74 660.7 359.71 660.7 374.69 672.84 386.83 687.81 386.83Z"
      fill="#ee7036" opacity="1" stroke-width="4" stroke="#000000"></path>
    <path
      d="M766.67 386.83C781.65 386.83 793.79 374.69 793.79 359.71 793.79 344.74 781.65 332.6 766.67 332.6 751.7 332.6 739.56 344.74 739.56 359.71 739.56 374.69 751.7 386.83 766.67 386.83Z"
      fill="#ee7036" opacity="1" stroke-width="4" stroke="#000000"></path>
  </g>
  <g>
    <path
      d="M896.01 692.97H756.09C748.38 692.97 742.1 686.69 742.1 678.98V580.53C742.1 572.83 748.38 566.54 756.09 566.54H793.91C798.88 566.54 803.44 569.18 805.97 573.43L810.33 580.84C812.87 585.09 817.43 587.73 822.4 587.73H896.11C903.82 587.73 910.1 594.02 910.1 601.72V678.98C910.1 686.69 903.82 692.97 896.01 692.97 896.11 692.97 896.11 692.97 896.01 692.97Z"
      fill="#373a50" opacity="1" stroke-width="4" stroke="#000000"></path>
    <path
      d="M1016.87 485.53H931.8C931.8 485.53 921.96 535.82 951.57 562.48H1036.64C1007.03 535.82 1016.87 485.53 1016.87 485.53Z"
      fill="#9297cb" opacity="1" stroke-width="4" stroke="#000000"></path>
    <path
      d="M897.63 442.03H812.56C812.56 442.03 802.73 492.32 832.33 518.99H917.4C887.69 492.32 897.63 442.03 897.63 442.03Z"
      fill="#ee7036" opacity="1" stroke-width="4" stroke="#000000"></path>
  </g>
  <g>
    <path d="M1123.96 789.76V837.63" stroke="#000000" stroke-width="4" stroke-linecap="round" stroke-linejoin="round"
      opacity="1" fill="none"></path>
    <path d="M1147.89 813.7H1100.03" stroke="#000000" stroke-width="4" stroke-linecap="round" stroke-linejoin="round"
      opacity="1" fill="none"></path>
    <path
      d="M947.15 841.54C962.53 841.54 974.99 829.07 974.99 813.7 974.99 798.32 962.53 785.86 947.15 785.86 931.77 785.86 919.31 798.32 919.31 813.7 919.31 829.07 931.77 841.54 947.15 841.54Z"
      fill="#ffffff" opacity="1" stroke-width="4" stroke="#000000"></path>
    <path
      d="M837.64 786.83H869.1C875.25 786.83 880.24 791.82 880.24 797.97V829.43C880.24 835.58 875.25 840.56 869.1 840.56H837.64C831.49 840.56 826.51 835.58 826.51 829.43V797.97C826.51 791.82 831.49 786.83 837.64 786.83Z"
      fill="#373a50" opacity="1" stroke-width="4" stroke="#000000"></path>
    <path
      d="M780.69 810.77L745.82 787.52C744.26 786.44 742.11 786.93 741.03 788.49 740.64 789.08 740.45 789.67 740.45 790.35V836.85C740.45 838.71 742.01 840.27 743.87 840.27 744.55 840.27 745.23 840.07 745.72 839.68L780.6 816.43C782.16 815.36 782.55 813.31 781.57 811.74 781.38 811.35 781.08 811.06 780.69 810.77Z"
      fill="#ffffff" opacity="1" stroke-width="4" stroke="#000000"></path>
  </g>
  <g>
    <path
      d="M1301.9 654.32L1179.04 608.83 1221.13 732.93 1237.07 696.57 1265.7 725.81 1293.86 698.42 1265.39 669.18 1301.9 654.32Z"
      fill="#373a50" opacity="1" stroke-width="4" stroke="#000000"></path>
  </g>
  <g>
    <path d="M419.84 294.16L465.22 326.11 419.84 358.07" stroke="#000000" stroke-width="4" stroke-linecap="round"
      stroke-linejoin="round" opacity="1" fill="none"></path>
    <path d="M338.8 358.07L293.29 326.11 338.8 294.16" stroke="#000000" stroke-width="4" stroke-linecap="round"
      stroke-linejoin="round" opacity="1" fill="none"></path>
    <path d="M389.68 292.62L368.84 359.61" stroke="#000000" stroke-width="4" stroke-linecap="round"
      stroke-linejoin="round" opacity="1" fill="none"></path>
  </g>
  <g>
    <path
      d="M953.73 216.69C966.65 216.69 977.13 206.22 977.13 193.29 977.13 180.37 966.65 169.89 953.73 169.89 940.81 169.89 930.33 180.37 930.33 193.29 930.33 206.22 940.81 216.69 953.73 216.69Z"
      stroke="#000000" stroke-width="4" stroke-linecap="round" stroke-linejoin="round" opacity="1" fill="none"></path>
  </g>
  <g>
    <path d="M335.75 636.34L190.17 636.97" stroke="#000000" stroke-width="4" stroke-linecap="round"
      stroke-linejoin="round" opacity="1" fill="none"></path>
    <path d="M384.77 586.14L318.82 511.85" stroke="#000000" stroke-width="4" stroke-linecap="round"
      stroke-linejoin="round" opacity="1" fill="none"></path>
  </g>
  <g>
    <path d="M1296.38 854.87L1364.6 855.67" stroke="#000000" stroke-width="4" stroke-linecap="round"
      stroke-linejoin="round" opacity="1" fill="none"></path>
    <path d="M1218.96 903.81L1307.38 957.72" stroke="#000000" stroke-width="4" stroke-linecap="round"
      stroke-linejoin="round" opacity="1" fill="none"></path>
    <path d="M1187.08 961.99L1211.32 1010.31" stroke="#000000" stroke-width="4" stroke-linecap="round"
      stroke-linejoin="round" opacity="1" fill="none"></path>
  </g>
  <g>
    <path
      d="M586.63 232.24C597.21 232.24 605.79 223.66 605.79 213.08 605.79 202.5 597.21 193.92 586.63 193.92 576.05 193.92 567.47 202.5 567.47 213.08 567.47 223.66 576.05 232.24 586.63 232.24Z"
      fill="#373a50" opacity="1" stroke-width="4" stroke="#000000"></path>
  </g>
  <g>
    <path
      d="M946.88 998.79C957.65 998.79 966.39 990.05 966.39 979.27 966.39 968.5 957.65 959.76 946.88 959.76 936.1 959.76 927.36 968.5 927.36 979.27 927.36 990.05 936.1 998.79 946.88 998.79Z"
      fill="#ffffff" opacity="1" stroke-width="4" stroke="#000000"></path>
  </g>
  <g>
    <path
      d="M285.07 822.79C297.22 822.79 307.08 812.93 307.08 800.78 307.08 788.63 297.22 778.77 285.07 778.77 272.92 778.77 263.06 788.63 263.06 800.78 263.06 812.93 272.92 822.79 285.07 822.79Z"
      fill="#ffffff" opacity="1" stroke-width="4" stroke="#000000"></path>
  </g>
  <g>
    <path
      d="M1319.6 526.19C1333.3 526.19 1344.41 515.08 1344.41 501.38 1344.41 487.67 1333.3 476.56 1319.6 476.56 1305.89 476.56 1294.78 487.67 1294.78 501.38 1294.78 515.08 1305.89 526.19 1319.6 526.19Z"
      fill="#ffffff" opacity="1" stroke-width="4" stroke="#000000"></path>
  </g>
  <g>
    <path
      d="M688.83 1005.83L714.57 955.53C715.27 949.56 717.06 941.71 719.45 933.36L721.73 920.04 624.31 918.75 619.74 932.56C617.75 943.2 615.86 956.92 614.57 968.25L617.25 972.33 688.83 1005.83Z"
      fill="#ffffff" opacity="1" stroke-width="4" stroke="#000000"></path>
    <path
      d="M783.17 654.41C783.17 654.41 791.52 647.95 784.06 639.8 780.38 636.82 777.6 635.62 772.53 634.73V634.83C762.89 632.94 750.66 632.54 743.11 633.04 743.11 633.04 752.95 619.12 749.37 613.36 745.39 607.09 722.13 622 693 654.51 674.31 675.39 658.41 699.05 642.8 718.73 642.8 718.73 633.55 709.59 622.52 698.75L543.79 760.09C543.79 760.09 588.22 794.78 626.99 802.93 689.62 816.15 741.02 698.05 741.02 698.05 741.02 698.05 747.98 697.76 755.63 696.46 755.63 698.05 756.23 699.55 757.62 700.74 761.6 703.42 773.62 702.83 781.68 696.26 789.73 689.7 782.67 684.43 782.67 684.43 792.71 679.07 785.06 669.52 785.06 669.52 794 658.69 783.17 654.41 783.17 654.41Z"
      fill="#ffffff" opacity="1" stroke-width="4" stroke="#000000"></path>
    <path d="M642.8 718.83L643.3 742.49" stroke="#000000" stroke-width="4" stroke-linecap="round" opacity="1"
      fill="none"></path>
    <path
      d="M643.2 859.4C630.87 887.23 624.11 910.3 619.34 933.46L719.45 933.36C736.25 872.52 777.5 781.46 732.87 743.29 676.3 700.14 520.42 798.16 520.42 798.16 520.42 798.16 437.72 967.76 496.37 969.84 569.34 969.64 643.2 859.4 643.2 859.4Z"
      fill="#9297cb" opacity="1" stroke-width="4" stroke="#000000"></path>
    <path
      d="M573.41 884.65L597.87 911.69C598.46 912.28 599.46 912.38 600.05 911.69 625.3 885.84 642.3 860.89 643.2 859.6 643.2 859.6 643.2 859.5 643.3 859.5L662.38 825C663.18 823.61 661.49 822.22 660.2 823.01L573.71 882.46C573.01 882.86 572.81 883.95 573.41 884.65Z"
      fill="#9297cb00" opacity="0" stroke-width="4" stroke="#ffffff00"></path>
    <path
      d="M747.98 1021.14L610.99 1022.03 611.09 1020.64C611.29 1012.89 611.39 1005.33 611.68 997.98 611.88 994.99 611.98 992.01 612.18 989.13 612.68 981.28 613.47 973.52 614.27 966.17 656.32 967.95 681.87 993.01 681.87 993.01L678.19 970.34C676.9 962.29 683.06 954.93 691.31 954.83H714.77C714.57 955.93 714.47 956.52 714.38 957.62 714.18 959.7 714.08 961.89 714.08 963.88 714.28 999.07 737.54 1003.25 748.08 1020.64L747.98 1021.14Z"
      fill="#373a50" opacity="1" stroke-width="4" stroke="#000000"></path>
    <path
      d="M750.86 1026.81C752.15 1030.58 753.05 1035.06 753.05 1040.33L611.19 1040.43C610.99 1033.86 610.79 1027.3 610.99 1020.84L748.08 1020.64C749.17 1022.63 750.16 1024.42 750.86 1026.81Z"
      fill="#cfcfcf" opacity="1" stroke-width="4" stroke="#000000"></path>
    <path d="M701.85 989.03L717.36 982.47" stroke="#000000" stroke-width="4" stroke-linecap="round"
      stroke-linejoin="round" opacity="1" fill="none"></path>
    <path d="M711.49 1004.44L724.61 994.4" stroke="#000000" stroke-width="4" stroke-linecap="round"
      stroke-linejoin="round" opacity="1" fill="none"></path>
    <path d="M687.73 1020.74L681.97 993.2" stroke="#000000" stroke-width="4" stroke-linecap="round"
      stroke-linejoin="round" opacity="1" fill="none"></path>
    <path
      d="M536.63 814.96L405.7 826.59C405.7 826.59 383.93 861.09 389.9 896.08 437.52 898.17 459.68 902.24 459.68 902.24L461.18 1002.85C484.24 1009.41 515.16 1021.34 545.77 1030.19 585.04 1041.32 623.71 1046.99 644.89 1028.5 721.73 954.83 536.63 814.96 536.63 814.96Z"
      fill="#9297cb" opacity="1" stroke-width="4" stroke="#000000"></path>
    <path
      d="M405.7 826.59C405.7 826.59 383.93 861.09 389.9 896.08 437.52 898.17 459.68 902.24 459.68 902.24 459.68 902.24 520.52 914.07 564.27 933.66 564.27 933.66 565.46 926.7 539.51 909.9 507.5 889.12 444.67 871.92 415.45 826.49L405.7 826.59Z"
      fill="#9297cb00" opacity="0" stroke-width="4" stroke="#ffffff00"></path>
    <path d="M647.27 933.46C633.26 908.61 612.18 884.25 592.2 864.17" stroke="#000000" stroke-width="4"
      stroke-linecap="round" stroke-linejoin="round" opacity="1" fill="none"></path>
    <path
      d="M388.11 973.32L438.81 998.08C444.67 998.67 452.73 1000.36 461.28 1002.85L463.96 1003.64 463.86 903.04 459.68 902.14C449.05 900.36 436.22 899.16 424.69 897.97L420.72 901.05 388.11 973.32Z"
      fill="#ffffff" opacity="1" stroke-width="4" stroke="#000000"></path>
    <path
      d="M374.19 1032.87L371.81 895.98C371.81 895.98 399.04 895.48 426.68 898.27 426.68 898.37 426.68 898.47 426.68 898.47 425.49 940.42 401.03 966.26 401.03 966.26L423.6 962.19C431.65 960.7 439.11 966.86 439.31 975.11L439.8 998.27C438.71 998.18 438.21 998.18 437.02 998.08 434.93 997.88 432.74 997.98 430.76 997.98 395.76 998.77 391.59 1021.93 374.49 1032.67 374.19 1032.77 374.19 1032.77 374.19 1032.87Z"
      fill="#373a50" opacity="1" stroke-width="4" stroke="#000000"></path>
    <path
      d="M368.23 1035.65C364.45 1037.05 359.98 1038.04 354.71 1038.04L352.22 896.38C358.78 896.18 365.54 896.08 372 895.98L374.49 1032.67C372.7 1033.76 370.41 1034.86 368.23 1035.65Z"
      fill="#cfcfcf" opacity="1" stroke-width="4" stroke="#000000"></path>
    <path d="M405.01 986.05L411.77 1001.46" stroke="#000000" stroke-width="4" stroke-linecap="round"
      stroke-linejoin="round" opacity="1" fill="none"></path>
    <path d="M389.7 995.79L400.04 1008.91" stroke="#000000" stroke-width="4" stroke-linecap="round"
      stroke-linejoin="round" opacity="1" fill="none"></path>
    <path d="M373.1 972.43L400.63 966.26" stroke="#000000" stroke-width="4" stroke-linecap="round"
      stroke-linejoin="round" opacity="1" fill="none"></path>
    <path d="M459.68 902.24C531.96 916.56 581.46 941.11 581.46 941.11" stroke="#000000" stroke-width="4"
      stroke-linecap="round" stroke-linejoin="round" opacity="1" fill="none"></path>
    <path d="M643.2 859.4C643.2 859.4 655.52 835.64 665.37 819.34" stroke="#000000" stroke-width="4"
      stroke-linecap="round" stroke-linejoin="round" opacity="1" fill="none"></path>
    <path d="M556.11 805.12H402.92V831.17H556.11V805.12Z" fill="#9297cb" opacity="1" stroke-width="4" stroke="#000000">
    </path>
    <path
      d="M573.81 567.03C572.72 553.21 574.9 530.15 564.56 516.53 551.44 510.17 519.83 504.1 493.29 515.64 469.53 525.87 467.84 545.26 467.84 567.23V636.42L470.12 668.63 536.93 679.07V620.22C536.93 620.22 557.21 625.78 567.94 615.64 581.86 602.82 575.1 580.85 573.81 567.03Z"
      fill="#ffffff" opacity="1" stroke-width="4" stroke="#000000"></path>
    <path
      d="M518.04 612.56L536.93 629.66V620.22C536.93 620.22 528.08 617.83 518.24 612.36 518.14 612.26 517.94 612.46 518.04 612.56Z"
      fill="#ffffff00" opacity="0" stroke-width="4" stroke="#ffffff00"></path>
    <path
      d="M564.56 516.33C554.13 502.51 518.64 493.27 492.09 504.8 468.33 515.04 467.34 544.46 467.34 566.33L467.64 610.08C473.3 612.16 490.2 608.09 494.28 599.74 494.28 599.74 471.71 575.08 487.42 562.06 501.24 550.53 518.83 573.69 518.83 573.69 518.83 573.69 529.87 571.21 527.28 553.91 535.34 555.2 547.07 553.51 550.55 539.2 559.59 547.65 573.01 545.06 573.01 545.06 572.72 534.42 570.33 523.89 564.56 516.33Z"
      fill="#ca6958" opacity="1" stroke-width="4" stroke="#000000"></path>
    <path d="M497.96 577.17L506.11 585.12" stroke="#000000" stroke-width="4" stroke-linecap="round" opacity="1"
      fill="none"></path>
    <path d="M536.93 620.22C527.18 617.73 522.11 615.34 522.11 615.34" stroke="#000000" stroke-width="4"
      stroke-linecap="round" opacity="1" fill="none"></path>
    <path d="M547.66 591.78C549.45 594.37 552.24 595.86 555.32 596.16" stroke="#000000" stroke-width="4"
      stroke-linecap="round" opacity="1" fill="none"></path>
    <path
      d="M625.5 701.33C614.17 690.1 591.9 664.55 561.08 643.78 548.46 635.92 539.41 633.64 536.93 633.04 536.93 633.04 534.24 660.08 507 657.89 480.96 655.8 467.94 627.47 467.94 627.47 452.23 630.26 437.42 636.22 423.8 644.57V644.67C409.88 653.22 382.94 677.87 360.27 711.18L431.35 753.43 412.27 776.19 403.02 837.43H564.27V837.33L563.67 776.29 581.96 764.96 625.5 701.33Z"
      fill="#373a50" opacity="1" stroke-width="4" stroke="#000000"></path>
    <path
      d="M564.07 738.71L582.16 764.96C582.16 764.96 575.5 768.83 564.07 776.29L563.07 776.69 562.87 777.68 564.07 738.71Z"
      fill="#373a5000" opacity="0" stroke-width="4" stroke="#ffffff00"></path>
    <path d="M441.69 740.6L399.44 805.12 438.71 826.99 444.38 763.96C445.17 756.11 444.18 748.16 441.69 740.6Z"
      fill="#373a5000" opacity="0" stroke-width="4" stroke="#ffffff00"></path>
    <path
      d="M554.13 824.5C553.33 817.25 531.06 806.71 503.43 797.86 474.4 788.72 417.34 779.97 417.34 779.97 417.34 779.97 426.08 766.45 433.04 753.92L360.47 710.88C349.34 727.08 335.62 748.46 328.56 767.94 307.29 827.39 335.92 838.82 363.16 842.4 390.3 845.98 448.75 840.71 448.75 840.71 448.75 840.71 499.85 860.89 513.86 862.08 527.98 863.18 527.78 855.82 527.78 855.82 527.78 855.82 543.39 859.9 543.69 846.67 543.69 846.67 550.05 845.98 551.74 841.31 553.33 836.73 550.55 833.35 548.96 832.26 548.96 832.26 554.72 830.77 554.13 824.5Z"
      fill="#ffffff" opacity="1" stroke-width="4" stroke="#000000"></path>
    <path d="M417.34 779.97L394.27 784.44" stroke="#000000" stroke-width="4" stroke-linecap="round" opacity="1"
      fill="none"></path>
    <path d="M433.04 753.92L445.57 735.04" stroke="#000000" stroke-width="4" stroke-linecap="round" opacity="1"
      fill="none"></path>
    <path d="M527.88 855.92L492.49 839.22" stroke="#000000" stroke-width="4" stroke-linecap="round" opacity="1"
      fill="none"></path>
    <path d="M543.79 846.77C543.79 846.77 517.84 833.15 499.45 826" stroke="#000000" stroke-width="4"
      stroke-linecap="round" opacity="1" fill="none"></path>
    <path d="M548.96 832.26C548.96 832.26 525.69 819.34 506.41 813.07" stroke="#000000" stroke-width="4"
      stroke-linecap="round" opacity="1" fill="none"></path>
    <path d="M557.9 576.77C558.6 578.36 559.49 580.95 559 582.44 558.5 583.43 557.9 584.03 556.91 584.43"
      stroke="#000000" stroke-width="4" stroke-linecap="round" opacity="1" fill="none"></path>
    <path
      d="M542.3 572.9C544 572.9 545.38 571.51 545.38 569.81 545.38 568.11 544 566.73 542.3 566.73 540.6 566.73 539.21 568.11 539.21 569.81 539.21 571.51 540.6 572.9 542.3 572.9Z"
      fill="#30242a" opacity="1" stroke-width="4" stroke="#000000"></path>
    <path
      d="M566.15 570.11C567.85 570.11 569.24 568.73 569.24 567.03 569.24 565.33 567.85 563.95 566.15 563.95 564.45 563.95 563.07 565.33 563.07 567.03 563.07 568.73 564.45 570.11 566.15 570.11Z"
      fill="#30242a" opacity="1" stroke-width="4" stroke="#000000"></path>
    <path d="M563.57 735.23L563.97 777.68" stroke="#000000" stroke-width="4" stroke-linecap="round" opacity="1"
      fill="none"></path>
    <path
      d="M772.33 642.28C772.33 642.28 759.61 643.18 755.03 648.95 749.47 656.2 754.04 660.18 754.04 660.18 754.04 660.18 748.27 663.76 748.67 669.72 749.57 675.39 756.13 675.49 756.13 675.49 756.13 675.49 750.36 679.56 751.85 685.53 753.05 690.4 758.32 690.6 758.32 690.6 756.72 692.29 755.73 694.28 755.63 696.26"
      stroke="#000000" stroke-width="4" stroke-linecap="round" opacity="1" fill="none"></path>
    <path d="M754.04 660.08C769.35 659.98 783.17 654.51 783.17 654.51" stroke="#000000" stroke-width="4"
      stroke-linecap="round" opacity="1" fill="none"></path>
    <path d="M756.13 675.39C771.54 674.69 785.06 669.62 785.06 669.62" stroke="#000000" stroke-width="4"
      stroke-linecap="round" opacity="1" fill="none"></path>
    <path d="M758.22 690.6C773.52 688.81 782.67 684.53 782.67 684.53" stroke="#000000" stroke-width="4"
      stroke-linecap="round" opacity="1" fill="none"></path>
    <path
      d="M743.11 633.04L739.03 638.41C738.53 639.1 738.33 639.9 738.33 640.69 738.83 645.57 740.12 663.46 732.97 673.6"
      stroke="#000000" stroke-width="4" stroke-linecap="round" opacity="1" fill="none"></path>
  </g>
  <g>
    <path
      d="M1147.07 477.55C1233.5 477.55 1303.55 407.51 1303.55 321.08 1303.55 234.64 1233.5 164.6 1147.07 164.6 1060.64 164.6 990.59 234.64 990.59 321.08 990.59 407.51 1060.64 477.55 1147.07 477.55Z"
      fill="#9297cb" opacity="1" stroke-width="4" stroke="#000000"></path>
  </g>
  <g>
    <path
      d="M1136.45 270.65C1114.18 334.84 1073.51 334.84 1089.53 394.14H1152.47C1169.85 366.87 1151.56 227.02 1136.45 270.65Z"
      fill="#17151c" opacity="1" stroke-width="4" stroke="#000000"></path>
    <path
      d="M1130.31 383.46C1130.43 383.46 1130.43 383.58 1130.43 383.58 1129.52 385.73 1120.77 408.68 1146.22 411.41 1176.55 414.59 1197.34 379.03 1198.25 377.44 1198.25 377.44 1198.25 377.44 1198.36 377.44 1200.41 377.44 1258.12 376.3 1279.48 406.3V406.41C1232.45 479.12 1135.31 499.68 1062.72 452.65 1050.33 444.7 1039.09 435.04 1029.54 424.02V423.91C1065.1 385.39 1126.56 383.58 1130.31 383.46Z"
      fill="#373a50" opacity="1" stroke-width="4" stroke="#000000"></path>
    <path
      d="M1078.51 290.3C1079.19 284.28 1079.87 275.42 1080.89 266.56 1081.35 263.15 1085.32 259.97 1085.89 256.56 1087.82 245.09 1088.73 238.84 1093.73 233.39 1103.96 221.91 1126.79 211.23 1153.38 214.07 1179.16 216.8 1199.96 233.95 1200.86 270.08 1201.32 288.26 1201.2 316.89 1200.98 339.61 1200.75 359.6 1200.52 375.05 1200.52 375.05 1200.52 375.05 1198.48 430.04 1159.96 436.06 1120.43 442.2 1125.43 381.08 1125.43 381.08V355.06C1125.43 355.06 1103.16 364.38 1085.44 352.11 1067.03 339.38 1076.8 306.32 1078.51 290.3Z"
      fill="#ffffff" opacity="1" stroke-width="4" stroke="#000000"></path>
    <path
      d="M1125.43 373.8V355.17C1125.43 355.17 1125.43 355.06 1125.54 355.06 1126.34 354.83 1134.06 352.11 1141.9 347.9 1142.01 347.9 1142.13 348.02 1142.01 348.02L1125.66 373.8C1125.54 373.92 1125.43 373.92 1125.43 373.8Z"
      fill="#ffffff00" opacity="0" stroke-width="4" stroke="#ffffff00"></path>
    <path
      d="M1082.37 256.67C1084.3 245.2 1087.03 236.23 1092.03 230.77 1102.25 219.3 1126.79 207.48 1153.38 210.32 1179.16 213.05 1198.14 223.39 1213.13 266.9 1235.4 331.09 1276.41 331.09 1260.39 390.28L1260.28 390.39H1168.71 1168.6C1151.79 363.81 1162.01 333.81 1162.46 332.45 1162.46 332.45 1162.46 332.45 1162.58 332.34 1163.94 331.77 1197.57 316.89 1189.73 295.3 1181.32 272.58 1148.6 291.55 1146.67 292.8H1146.56C1138.72 280.19 1146.56 260.31 1147.7 257.47 1147.7 257.36 1147.58 257.24 1147.47 257.36 1145.2 258.95 1130.77 268.49 1119.41 270.76 1092.82 276.1 1081.69 267.35 1080.89 266.67V266.56C1081.35 262.7 1081.8 259.86 1082.37 256.67Z"
      fill="#17151c" opacity="1" stroke-width="4" stroke="#000000"></path>
    <path d="M1167.69 303.82L1158.03 309.96" stroke="#000000" stroke-width="4" stroke-linecap="round"
      stroke-linejoin="round" opacity="1" fill="none"></path>
    <path d="M1098.62 305.07C1097.59 306.89 1096.12 309.73 1096.46 311.55 1096.8 312.68 1097.71 313.59 1098.73 314.16"
      stroke="#000000" stroke-width="4" stroke-linecap="round" stroke-linejoin="round" opacity="1" fill="none"></path>
    <path d="M1108.61 319.5C1108.39 322.91 1105.43 325.41 1102.02 325.07 1101.91 325.07 1101.91 325.07 1101.8 325.07"
      stroke="#000000" stroke-width="4" stroke-linecap="round" stroke-linejoin="round" opacity="1" fill="none"></path>
    <path d="M1123.72 355.73C1130.65 353.57 1142.24 346.07 1142.24 346.07" stroke="#000000" stroke-width="4"
      stroke-linecap="round" stroke-linejoin="round" opacity="1" fill="none"></path>
    <path
      d="M1116.23 297.12C1114.46 297.12 1113.04 295.69 1113.04 293.94 1113.04 292.18 1114.46 290.76 1116.23 290.76 1117.99 290.76 1119.41 292.18 1119.41 293.94 1119.41 295.69 1117.99 297.12 1116.23 297.12Z"
      fill="#17151c" opacity="1" stroke-width="4" stroke="#000000"></path>
    <path
      d="M1087.03 293.93C1085.27 293.93 1083.85 292.51 1083.85 290.75 1083.85 289 1085.27 287.56 1087.03 287.56 1088.78 287.56 1090.21 289 1090.21 290.75 1090.21 292.51 1088.78 293.93 1087.03 293.93Z"
      fill="#17151c" opacity="1" stroke-width="4" stroke="#000000"></path>
    <path
      d="M1164.96 347.22C1158.12 347.22 1152.58 341.68 1152.58 334.84 1152.58 328 1158.12 322.45 1164.96 322.45 1171.8 322.45 1177.35 328 1177.35 334.84 1177.35 341.68 1171.8 347.22 1164.96 347.22Z"
      fill="#424661" opacity="1" stroke-width="4" stroke="#000000"></path>
  </g>
</svg>