<svg xmlns="http://www.w3.org/2000/svg" height="1200" width="1600" version="1.1"
  xmlns:xlink="http://www.w3.org/1999/xlink" xmlns:svgjs="http://svgjs.com/svgjs">
  <g>
    <path
      d="M1393.87 448.78C1347.19 309.38 1249.5 215.68 1125.81 181.41 998.51 146.16 866.69 148.59 737.54 166.82 616.41 183.96 479.35 198.79 370.77 268.67 286.35 323.12 212.73 416.57 190.82 529.72 166.35 656.48 201.93 790.77 265.27 894.08 297.45 946.46 335.81 993.13 384.85 1023.14 431.95 1052.07 482.74 1067.26 535.59 1070.79 589.99 1074.31 645.62 1062.52 696.41 1040.04 746.9 1017.55 794.3 987.9 843.55 962.62 870.6 949.74 898.36 938.92 927.15 933.09 945.86 931.02 964.47 931.39 983.19 933.82 1043.55 945.12 1102.57 969.55 1164.26 968.33 1239.32 966.87 1301.33 927.25 1345.95 857.13 1417.52 744.23 1437.77 579.67 1393.87 448.78Z"
      fill="#cfcfcf" opacity="1" stroke-width="4" stroke="#000000"></path>
  </g>
  <g>
    <path d="M1240.72 913.46L1275.48 981.49 1276.84 894.86 1377.58 948.09 1301.14 832 1408.68 824.39 1330.06 790.72"
      stroke="#000000" stroke-width="4" stroke-linecap="round" stroke-linejoin="round" opacity="1" fill="none"></path>
  </g>
  <g>
    <path
      d="M995.71 272.72C883.16 275.55 794.43 368.82 796.98 481.09 798.39 542.33 827.59 599.88 876.07 637.3 907.54 661.39 925.97 698.53 926.25 737.94L937.02 760.62H1057.23L1075.09 737.94C1075.09 698.82 1093.23 661.68 1124.42 637.86 1213.72 569.54 1231.01 441.97 1162.69 352.38 1123 300.79 1060.91 271.02 995.71 272.72Z"
      fill="#ee7036" opacity="1" stroke-width="4" stroke="#000000"></path>
    <path
      d="M926.25 738.22V790.1C926.25 831.21 959.42 864.38 1000.53 864.38 1041.64 864.38 1074.8 831.21 1074.8 790.1V738.22H926.25Z"
      fill="#ffffff" opacity="1" stroke-width="4" stroke="#000000"></path>
    <path d="M926.25 737.94H1075.09" stroke="#000000" stroke-width="4" stroke-linecap="round" stroke-linejoin="round"
      opacity="1" fill="none"></path>
    <path d="M926.25 779.05H1074.8" stroke="#000000" stroke-width="4" stroke-linecap="round" stroke-linejoin="round"
      opacity="1" fill="none"></path>
    <path
      d="M975.58 737.94V678.69C975.58 639 959.99 600.73 931.92 572.66 910.66 551.4 899.04 522.76 899.04 492.71 899.04 471.45 916.33 454.44 937.31 454.44 958.57 454.44 975.58 471.73 975.58 492.71V514.83C975.58 528.43 986.64 539.49 1000.24 539.49 1013.85 539.49 1024.91 528.43 1024.91 514.83V492.71C1024.91 471.45 1042.2 454.44 1063.18 454.44H1063.75C1085.01 454.44 1102.02 471.73 1102.02 492.71 1102.02 522.76 1090.11 551.68 1068.85 572.94 1040.78 601.29 1024.91 639.28 1024.91 679.25L1025.19 738.22"
      stroke="#000000" stroke-width="4" stroke-linecap="round" stroke-linejoin="round" opacity="1" fill="none"></path>
  </g>
  <g>
    <path d="M355.24 295.66L321.78 230.17 320.47 313.57 223.48 262.33 297.07 374.09 193.54 381.41 269.23 413.83"
      stroke="#000000" stroke-width="4" stroke-linecap="round" stroke-linejoin="round" opacity="1" fill="none"></path>
  </g>
  <g>
    <path d="M621.42 246.58L684.03 193.54 773.26 300.38 621.42 246.58Z" fill="#9297cb" opacity="1" stroke-width="4"
      stroke="#000000"></path>
  </g>
  <g>
    <path
      d="M1124.25 927.39L1109.59 888.73 1138.82 914.4 1144.1 887.92 1152.94 913.05 1177.21 890.58 1163.5 922.34 1206.58 922.79 1163.45 937.64 1196.61 967.77 1154.21 956.13 1147.21 1000.39 1135.89 956.72 1101.92 984.78 1124.38 942.51 1082.79 931.82 1124.25 927.39Z"
      fill="#9297cb" opacity="1" stroke-width="4" stroke="#000000"></path>
  </g>
  <g>
    <path
      d="M388.54 549.48L387.35 548.5C386.96 540.22 387.16 532.14 386.76 523.86 385.78 507.9 393.27 493.31 392.48 478.73 390.51 446.21 397.01 417.63 396.62 402.46 395.43 360.08 407.06 347.86 451.01 345.5 453.97 345.3 465.4 338.01 468.36 338.01 506.59 338.01 526.69 339.19 544.63 363.63 546.6 366.19 555.47 365.01 556.85 368.16 564.14 383.93 566.11 406.4 567.69 424.73 568.28 433.2 569.26 441.48 570.84 449.76L571.63 452.91C576.16 473.41 580.5 492.92 570.64 512.03 563.35 525.83 545.22 535.09 525.12 535.09 519.99 535.09 514.87 534.5 509.94 533.12L510.14 549.68H388.54V549.48Z"
      fill="#ffffff" opacity="1" stroke-width="4" stroke="#000000"></path>
    <path
      d="M483.35 556.18L472.32 524.25C471.92 523.07 472.12 521.89 472.71 520.9 473.7 519.33 479.02 520.51 480.59 521.49 490.65 527.21 509.96 532.93 509.96 532.93L510.16 548.5 483.35 556.18Z"
      fill="#ffffff00" opacity="0" stroke-width="4" stroke="#ffffff00"></path>
    <path
      d="M743.49 645.07L741.91 638.96C748.41 625.56 756.49 608.21 765.76 591.07 765.56 568.99 770.49 547.12 779.95 527.01 784.87 516.37 787.44 502.97 789.21 492.13 791.38 479.71 792.95 470.65 797.29 470.65 808.52 470.65 811.68 490.16 816.21 519.52V520.12C822.32 515.19 830.2 504.94 838.87 494.1 856.22 471.83 875.93 446.8 892.48 446.8 895.83 446.8 899.18 447.98 901.94 450.15 904.5 449.16 907.07 448.57 909.82 448.57 912.98 448.38 915.93 449.76 918.1 451.92 920.66 454.68 921.65 459.02 921.06 464.34 924.01 465.33 926.38 467.69 927.56 470.65 931.5 481.88 918.3 503.17 908.64 518.74 906.28 522.48 904.31 525.83 902.53 528.79 916.13 512.82 930.12 502.77 938.8 502.77 940.96 502.57 943.13 503.56 944.31 505.14 949.04 511.25 929.14 537.06 900.56 572.93 878.49 629.69 859.37 636.2 856.81 636.99 853.85 649.99 847.74 677.78 846.36 683.7L840.65 687.44 743.49 645.07Z"
      fill="#ffffff" opacity="1" stroke-width="4" stroke="#000000"></path>
    <path d="M816.21 520.12L810.89 535.29C810.89 535.29 832.37 562.69 825.28 592.05" stroke="#000000" stroke-width="4"
      stroke-linecap="round" stroke-linejoin="round" opacity="1" fill="none"></path>
    <path d="M901.94 450.15C877.11 476.76 853.66 511.44 853.66 511.44" stroke="#000000" stroke-width="4"
      stroke-linecap="round" stroke-linejoin="round" opacity="1" fill="none"></path>
    <path d="M921.08 464.34C910.24 475.18 873.78 525.63 873.78 525.63" stroke="#000000" stroke-width="4"
      stroke-linecap="round" stroke-linejoin="round" opacity="1" fill="none"></path>
    <path d="M902.53 528.79L892.28 541.01" stroke="#000000" stroke-width="4" stroke-linecap="round"
      stroke-linejoin="round" opacity="1" fill="none"></path>
    <path
      d="M385.8 506.12C385.01 490.16 384.22 475.18 383.23 461.58 381.66 437.54 380.28 417.04 379.88 402.26 378.7 360.28 411.22 324.41 456.75 322.24 459.7 322.05 462.66 322.05 465.62 322.05 504.05 322.05 534.6 334.46 552.14 359.29 555.09 363.43 556.87 367.97 556.87 367.97 556.67 368.16 550.95 374.67 532.62 374.67 520.41 374.67 505.62 371.91 488.48 366.19 493.8 374.27 494.98 383.14 491.63 389.84 487.69 397.92 477.44 402.46 463.05 402.46 459.51 402.46 455.76 402.26 452.21 401.67 452.02 401.67 451.82 401.86 451.82 402.06 456.75 413.3 458.32 426.11 455.76 438.33L455.56 439.31 454.78 438.92C446.5 435.76 437.83 433.99 429.16 433.79 416.94 433.79 409.05 438.52 406.1 447.79 398.61 470.45 439.6 495.09 439.99 495.28L440.78 495.87 440.19 496.66C418.32 520.31 388.16 523.47 387.96 523.47L386.78 523.66C386.78 523.86 386.19 511.64 385.8 506.12Z"
      fill="#231f20" opacity="1" stroke-width="4" stroke="#000000"></path>
    <path d="M509.96 532.93C500.7 529.58 490.05 526.42 481.58 521.49" stroke="#000000" stroke-width="4"
      stroke-linecap="round" stroke-linejoin="round" opacity="1" fill="none"></path>
    <path d="M451.03 467.69L435.26 461.38" stroke="#000000" stroke-width="4" stroke-linecap="round"
      stroke-linejoin="round" opacity="1" fill="none"></path>
    <path d="M531.24 443.06L532.43 447.39C533.22 449.95 532.43 452.52 530.46 454.29L529.87 454.88" stroke="#000000"
      stroke-width="4" stroke-linecap="round" stroke-linejoin="round" opacity="1" fill="none"></path>
    <path d="M535.38 473.8C532.62 475.77 523.16 475.97 518.04 469.66" stroke="#000000" stroke-width="4"
      stroke-linecap="round" stroke-linejoin="round" opacity="1" fill="none"></path>
    <path
      d="M504.42 439.51C507.14 439.51 509.35 437.3 509.35 434.58 509.35 431.86 507.14 429.65 504.42 429.65 501.7 429.65 499.49 431.86 499.49 434.58 499.49 437.3 501.7 439.51 504.42 439.51Z"
      fill="#231f20" opacity="1" stroke-width="4" stroke="#000000"></path>
    <path
      d="M548.17 432.81C550.89 432.81 553.1 430.6 553.1 427.88 553.1 425.16 550.89 422.95 548.17 422.95 545.45 422.95 543.25 425.16 543.25 427.88 543.25 430.6 545.45 432.81 548.17 432.81Z"
      fill="#231f20" opacity="1" stroke-width="4" stroke="#000000"></path>
    <path
      d="M315.81 894.77C264.37 894.77 228.11 879.6 216.28 852.99 178.64 769.03 294.92 610.97 296.1 609.39 308.13 592.25 334.34 563.67 373.95 563.67 379.27 563.67 382.43 563.87 387.55 565.05L387.35 548.5H510.14L512.3 568.8C517.23 568.01 522.16 567.42 527.09 567.61 550.34 567.61 595.47 575.5 637.45 628.51 665.05 663.59 698.75 711.48 702.69 717 705.05 712.27 720.82 680.15 741.71 639.35L741.91 638.96 846.36 683.7 846.17 684.29C834.54 735.13 820.94 773.17 804.19 800.96 781.72 838.21 753.34 856.93 720.03 856.93 706.24 856.74 692.44 853.98 679.63 849.05 650.46 838.21 620.9 811.21 601.39 790.52 588.77 777.11 576.95 763.12 566.11 748.34L540.69 844.71H420.66L408.44 882.36 407.65 883.15C373.36 890.83 342.42 894.77 315.81 894.77Z"
      fill="#373a50" opacity="1" stroke-width="4" stroke="#000000"></path>
    <path
      d="M593.7 782.24C576.95 763.51 566.11 748.34 566.11 748.34L577.74 699.27C578.53 695.91 581.88 693.94 585.23 694.73 587.39 695.32 589.17 697.1 589.76 699.27 591.73 707.35 593.7 782.24 593.7 782.24Z"
      fill="#373a5000" opacity="0" stroke-width="4" stroke="#ffffff00"></path>
    <path
      d="M558.42 939.31C552.51 939.31 529.65 920.59 508.76 892.41 471.71 886.69 448.45 874.67 446.48 873.68 434.26 876.84 419.87 880.19 407.65 883.15L398.98 782.24 408.64 782.63C463.43 786.38 497.92 790.91 533.79 804.31 559.8 814.17 611.64 855.75 621.69 884.13 623.85 890.44 623.85 895.76 621.49 899.9 623.26 905.22 622.87 909.95 620.5 913.1 618.53 915.86 614.99 917.44 610.45 917.44 607.3 921.77 602.37 924.14 597.05 923.94 584.04 923.94 567.49 912.12 554.09 902.66 551.92 901.08 549.95 899.7 547.98 898.32 559.8 915.07 565.71 929.85 563.15 936.16 562.36 937.93 560.79 939.12 559.01 939.31 558.82 939.31 558.62 939.31 558.42 939.31Z"
      fill="#ffffff" opacity="1" stroke-width="4" stroke="#000000"></path>
    <path d="M621.49 899.9C609.07 885.71 580.5 859.3 560.2 845.11" stroke="#000000" stroke-width="4"
      stroke-linecap="round" stroke-linejoin="round" opacity="1" fill="none"></path>
    <path d="M610.06 917.04C600.6 907.58 569.46 880.98 544.43 863.83" stroke="#000000" stroke-width="4"
      stroke-linecap="round" stroke-linejoin="round" opacity="1" fill="none"></path>
    <path d="M547.98 898.32L529.06 882.75" stroke="#000000" stroke-width="4" stroke-linecap="round"
      stroke-linejoin="round" opacity="1" fill="none"></path>
    <path d="M409.25 782.63C381.85 780.07 347.17 779.28 321.94 781.06" stroke="#000000" stroke-width="4"
      stroke-linecap="round" stroke-linejoin="round" opacity="1" fill="none"></path>
    <path d="M354.07 736.32L337.71 779.08" stroke="#000000" stroke-width="4" stroke-linecap="round"
      stroke-linejoin="round" opacity="1" fill="none"></path>
    <path d="M702.71 717L716.31 737.5" stroke="#000000" stroke-width="4" stroke-linecap="round" stroke-linejoin="round"
      opacity="1" fill="none"></path>
    <path d="M566.11 748.34L573.8 715.82" stroke="#000000" stroke-width="4" stroke-linecap="round"
      stroke-linejoin="round" opacity="1" fill="none"></path>
    <path d="M387.55 565.05C395.24 568.6 408.44 574.9 415.14 580.42" stroke="#000000" stroke-width="4"
      stroke-linecap="round" stroke-linejoin="round" opacity="1" fill="none"></path>
    <path
      d="M337.71 779.08L368.45 696.7 369.83 697.1C381.26 702.42 385.21 714.44 381.66 726.46 377.32 741.05 373.38 760.56 381.07 779.28L381.66 780.66 337.71 779.08Z"
      fill="#373a5000" opacity="0" stroke-width="4" stroke="#ffffff00"></path>
  </g>
</svg>