<svg xmlns="http://www.w3.org/2000/svg" height="1200" width="1600" version="1.1"
  xmlns:xlink="http://www.w3.org/1999/xlink" xmlns:svgjs="http://svgjs.com/svgjs">
  <g>
    <path
      d="M1054.31 193.55C1102.31 228.79 1126.01 298.67 1170.37 367.33 1214.73 435.99 1280.35 503.44 1265.16 554.48 1249.97 605.53 1154.57 639.55 1095.63 703.36 1036.69 767.16 1014.21 860.13 957.09 912.99 899.97 965.25 808.22 976.79 748.67 933.65 688.51 891.12 661.17 793.89 599.19 725.23 537.82 655.96 442.42 615.25 398.06 545.37 353.1 474.88 359.78 375.23 416.29 318.11 472.8 260.99 579.14 245.8 661.17 226.36 743.81 206.31 801.53 182 867.16 169.85 932.78 158.3 1005.7 158.91 1054.31 193.55Z"
      fill="#cfcfcf" opacity="1" stroke-width="4" stroke="#000000"></path>
  </g>
  <g>
    <path
      d="M608.46 672.59C602.9 657.59 589.26 638.58 577.17 621.68 575.26 618.96 573.28 616.31 571.43 613.65L571.31 613.53 627.28 600.02 629.81 601.25C632.28 604.71 634.19 607.67 636.16 610.82 641.53 619.46 646.34 628.4 650.48 637.72 652.52 642.35 654.43 646.92 656.28 651.79L651.9 685.98 608.46 672.59Z"
      fill="#ffffff" opacity="1" stroke-width="4" stroke="#000000"></path>
    <path
      d="M584.88 632.48C582.29 628.83 579.7 625.19 577.17 621.61 575.26 618.9 574.39 617.73 572.48 615.07L571.37 613.47 621.41 598.91 621.54 599.15C611.05 604.83 601.61 612.3 593.65 621.12 587.84 627.6 585.19 632.41 585.13 632.48L585.01 632.66 584.88 632.48Z"
      fill="#ffffff00" opacity="0" stroke-width="4" stroke="#ffffff00"></path>
    <path
      d="M499.85 347.26C497.93 347.87 495.9 348.18 493.86 348.12 488.31 348.12 483.62 346.21 481.33 343 477.57 337.88 477.51 331.89 480.96 321.03 480.59 320.54 477.94 317.14 478.43 314.98 478.74 313.75 480.59 312.82 483.86 312.39L484.17 311.34C485.9 306.16 487.51 301.59 489.42 297.83 492.13 292.52 500.03 293.88 506.2 291.53 510.28 289.93 510.03 289.74 514.35 289.81 522.68 289.81 525.95 288.26 531.44 293.2 540.21 301.1 538.97 314.3 537.43 322.39L536.01 323.44C535.27 328.19 536.69 343.62 534.77 353.12V353.24L500.4 355.16 499.17 351.45 499.85 347.26Z"
      fill="#ffffff" opacity="1" stroke-width="4" stroke="#000000"></path>
    <path
      d="M499.85 347.26L504.6 345.34C504.78 345.28 504.91 345.22 505.09 345.22 505.46 345.22 505.83 345.41 506.02 345.71 506.2 346.02 506.27 346.39 506.08 346.76L502.93 353.92 499.17 351.45 499.85 347.26Z"
      fill="#ffffff00" opacity="0" stroke-width="4" stroke="#ffffff00"></path>
    <path
      d="M495.9 675.98C495.71 671.23 495.16 667.28 494.91 665.55 493.74 657.28 492.32 647.16 490.47 634.76L502.32 533.56 543.23 617.85C544.28 622.54 545.88 630.69 546.5 634.94 548.04 645 548.84 655.12 548.97 665.3 548.97 668.76 549.03 672.28 548.91 675.86L528.91 711.28 495.9 675.98Z"
      fill="#ffffff" opacity="1" stroke-width="4" stroke="#000000"></path>
    <path
      d="M498 601.62L502.01 539.54C502.13 537.94 504.29 537.51 504.97 538.92L543.17 617.73C543.23 617.85 543.29 617.97 543.29 618.1 543.54 619.21 543.78 620.5 544.03 621.92 544.52 624.27 545.02 626.92 545.45 629.27 545.57 629.82 545.33 630.38 544.9 630.75L532.49 640.93C531.81 641.49 530.83 641.36 530.27 640.74L498.24 602.79C498.06 602.42 497.93 601.99 498 601.62Z"
      fill="#ffffff00" opacity="0" stroke-width="4" stroke="#ffffff00"></path>
    <path
      d="M469.24 720.84L468.93 720.23C470.1 718.56 471.4 717.14 472.94 715.91 473.74 715.29 474.67 714.49 475.78 713.62 479.98 710.29 485.72 705.72 489.6 701.65 494.23 696.71 496.39 687.82 495.9 675.97V675.85H507.38C512 675.85 516.26 678.38 518.48 682.39L528.17 700.11C528.23 700.17 528.3 700.17 528.3 700.11L530.83 686.28C531.94 680.29 537.18 675.91 543.29 675.91H548.84V676.04C548.41 690.97 546.87 705.66 544.03 720.29 544.03 720.29 544.03 720.29 544.03 720.35L543.6 720.84H543.54 469.24Z"
      fill="#ee7036" opacity="1" stroke-width="4" stroke="#000000"></path>
    <path
      d="M400.31 394.77C397.66 389.47 396.3 385.76 396.05 385.21 395.31 385.02 388.83 383.42 383.22 375.21 382.91 375.83 381.74 377.68 379.64 377.68 378.16 377.68 376.55 376.82 374.76 375.03 370.51 370.77 369.95 367.74 370.26 365.95 370.44 364.66 371.18 363.61 372.3 362.99 371.49 361.02 371.43 359.29 372.11 357.81 372.6 356.7 373.53 355.77 374.7 355.22 372.67 351.02 375.69 348.18 376.43 347.57 375.32 347.01 374.33 346.45 373.34 345.9 367.36 342.75 363.47 340.72 363.47 338 363.47 336.77 364.27 335.29 368.1 335.29 372.23 335.29 378.9 337.14 385.93 340.22 393.34 343.43 400.31 347.69 406.54 352.81 412.04 357.5 418.76 364.04 426.91 372.56L426.85 373.79 401.67 395.2 400.31 394.77Z"
      fill="#ffffff" opacity="1" stroke-width="4" stroke="#000000"></path>
    <path
      d="M559.21 471.97C552.36 461.73 544.96 456.42 544.4 455.99L486.7 455.56 486.52 455.06 479.61 422.73C477.76 424.15 460.42 437.54 446.41 437.54 445.98 437.54 445.54 437.54 445.11 437.48 435.98 436.92 418.02 430.69 400.37 394.83L400.31 394.77 426.91 372.56 426.97 372.62C436.53 382.68 444.68 392 445.67 393.11 468.62 362.99 487.38 358.49 496.52 358.49 496.76 358.49 497.01 358.49 497.19 358.49H497.56C497.63 358.49 497.69 358.49 497.75 358.49L499.17 351.45H535.76C535.76 351.45 534.96 355.46 534.77 356.33 536.13 356.51 547.49 358.49 555.32 367.13 558.78 370.83 570.81 375.7 575.56 387.92 578.46 395.2 574.08 407.61 576 414.4 577.54 419.89 578.71 425.07 579.39 429.58 582.41 448.83 571.55 465.43 559.34 471.91L559.21 471.97Z"
      fill="#373a50" opacity="1" stroke-width="4" stroke="#000000"></path>
    <path
      d="M544.4 455.99L544.46 455.06 550.57 420.01C555.57 421.8 556.5 428.1 557.48 434.82 558.29 440.07 559.09 445.44 561.74 449.69 566.62 457.53 572.36 460 572.36 460 568.78 465.12 564.21 469.32 559.4 471.85 559.4 471.85 544.52 456.05 544.4 455.99Z"
      fill="#373a5000" opacity="0" stroke-width="4" stroke="#ffffff00"></path>
    <path
      d="M577.72 414.52C576.8 414.52 576.06 414.4 576.06 414.4 576.06 414.4 574.7 410.01 574.33 408.97 570.63 398.85 569.46 394.71 562.98 380.52 558.16 382.86 551.07 383.97 545.7 383.91 538.48 383.85 531.32 382.49 525.27 378.6 520.15 375.4 513.67 368.79 512 355.22 511.39 350.22 511.51 345.16 512.25 340.22L512.31 340.16C512.31 340.16 528.85 332.69 525.21 321.77 524.28 318.93 521.82 317.45 517.99 317.45 512.37 317.45 505.52 320.6 505.52 320.6 505.46 320.54 498.61 312.33 503.74 304 503.86 303.81 503.67 303.57 503.49 303.63 501.88 304 500.34 304.25 498.68 304.25 490.84 304.25 489.42 297.89 489.42 297.89V297.83C492.38 292.03 496.08 288.57 501.7 286.47 505.77 284.87 510.09 284.07 514.41 284.13 522.74 284.13 530.7 286.91 536.26 291.84 544.59 299.37 542.98 313.32 541.13 323.01L541.07 323.19C544.15 322.76 547.24 322.51 550.33 322.51 561.06 322.51 580.19 325.23 587.78 343.31 591.67 352.69 592.78 366.63 584.14 377.86 585.62 378.36 596.55 382.31 598.27 390.89 599.51 396.38 598.09 402.12 594.51 406.44 590.44 411.25 583.71 414.52 577.72 414.52Z"
      fill="#30242a" opacity="1" stroke-width="4" stroke="#000000"></path>
    <path
      d="M490.47 634.76C489.67 629.33 488.86 623.96 488.06 618.78 486.33 607.05 484.73 596.19 483.93 590.39 475.53 529.48 482.94 469.13 486.52 455.19V455.06H544.46 544.52C566 473.33 573.53 495.48 584.51 526.58 589.94 541.89 594.94 551.45 604.14 567.06 608.15 573.85 612.84 579.53 617.4 585.02 619.87 587.98 622.15 590.76 624.25 593.6 626.35 596.38 628.2 598.84 629.87 601.25L530.76 625.13C530.7 625.13 530.7 625.13 530.7 625.07L505.9 553.61C505.9 553.55 505.77 553.55 505.77 553.61L506.08 630.99C506.08 631.06 506.08 631.06 506.02 631.06L490.47 634.76Z"
      fill="#ee7036" opacity="1" stroke-width="4" stroke="#000000"></path>
    <path d="M505.65 553.61L498.06 455.06" stroke="#000000" stroke-width="4" stroke-linecap="round"
      stroke-linejoin="round" opacity="1" fill="none"></path>
    <path
      d="M465.72 730.53V730.41C465.66 726.77 466.77 723.25 468.87 720.29L468.93 720.23H544.09V720.35C543.48 723.74 542.61 727.14 541.62 730.41L465.72 730.53Z"
      fill="#212121" opacity="1" stroke-width="4" stroke="#000000"></path>
    <path
      d="M599.75 730.47C598.27 727.14 597.84 723.37 598.64 719.73L599.01 719.36 667.14 689.74 667.63 689.98C668.37 693.38 668.99 696.9 669.42 700.42V700.48L599.75 730.47Z"
      fill="#212121" opacity="1" stroke-width="4" stroke="#000000"></path>
    <path
      d="M598.89 719.61C598.77 719.67 598.64 719.55 598.71 719.42 599.14 717.63 599.75 715.84 600.62 714.18 600.99 713.44 601.48 712.51 601.98 711.52 604.38 706.9 608.09 699.92 610.24 694.43 612.4 688.82 611.85 681.72 608.52 672.65 608.52 672.59 608.52 672.52 608.58 672.46L619.56 667.59C623.64 665.8 628.39 666.35 632.03 668.95L647.02 679.68C647.15 679.74 647.27 679.68 647.27 679.56L645.17 667.22C644.18 661.42 647.27 655.68 652.7 653.33L656.34 651.73 656.4 651.85C661.09 664.19 664.86 676.91 667.7 689.8 667.7 689.87 667.7 689.93 667.63 689.99L598.89 719.61Z"
      fill="#ee7036" opacity="1" stroke-width="4" stroke="#000000"></path>
    <path d="M494.66 691.41L506.14 693.81" stroke="#000000" stroke-width="4" stroke-linecap="round"
      stroke-linejoin="round" opacity="1" fill="none"></path>
    <path d="M491.39 699.37L501.21 706.46" stroke="#000000" stroke-width="4" stroke-linecap="round"
      stroke-linejoin="round" opacity="1" fill="none"></path>
    <path d="M528.36 700.05L525.4 720.23" stroke="#000000" stroke-width="4" stroke-linecap="round"
      stroke-linejoin="round" opacity="1" fill="none"></path>
    <path d="M647.21 679.5L651.47 697.09" stroke="#000000" stroke-width="4" stroke-linecap="round"
      stroke-linejoin="round" opacity="1" fill="none"></path>
    <path d="M611.54 686.78L620.92 687.64" stroke="#000000" stroke-width="4" stroke-linecap="round"
      stroke-linejoin="round" opacity="1" fill="none"></path>
    <path d="M610.24 694.49L619.81 698.13" stroke="#000000" stroke-width="4" stroke-linecap="round"
      stroke-linejoin="round" opacity="1" fill="none"></path>
    <path d="M550.57 420.01L544.46 455.06H486.52" stroke="#000000" stroke-width="4" stroke-linecap="round"
      stroke-linejoin="round" opacity="1" fill="none"></path>
    <path d="M558.59 439.57L547.43 437.6" stroke="#000000" stroke-width="4" stroke-linecap="round"
      stroke-linejoin="round" opacity="1" fill="none"></path>
    <path d="M445.67 393.11L439.5 401.31" stroke="#000000" stroke-width="4" stroke-linecap="round"
      stroke-linejoin="round" opacity="1" fill="none"></path>
    <path d="M479.61 422.73L492.57 410.57" stroke="#000000" stroke-width="4" stroke-linecap="round"
      stroke-linejoin="round" opacity="1" fill="none"></path>
    <path d="M376.43 347.56C381.49 347.93 386.73 349.23 391.36 351.32" stroke="#000000" stroke-width="4"
      stroke-linecap="round" stroke-linejoin="round" opacity="1" fill="none"></path>
    <path d="M374.7 355.22C380.69 355.59 388.28 358.12 388.28 358.12" stroke="#000000" stroke-width="4"
      stroke-linecap="round" stroke-linejoin="round" opacity="1" fill="none"></path>
    <path d="M372.3 362.99C375.69 362.38 383.4 364.47 384.58 365.52" stroke="#000000" stroke-width="4"
      stroke-linecap="round" stroke-linejoin="round" opacity="1" fill="none"></path>
    <path d="M499.85 347.26C502.93 345.96 504.6 345.34 504.6 345.34" stroke="#000000" stroke-width="4"
      stroke-linecap="round" stroke-linejoin="round" opacity="1" fill="none"></path>
    <path d="M513.55 327.26L509.23 329.73" stroke="#000000" stroke-width="4" stroke-linecap="round"
      stroke-linejoin="round" opacity="1" fill="none"></path>
    <path d="M562.98 380.52C569.15 378.05 569.7 375.4 569.7 375.4" stroke="#000000" stroke-width="4"
      stroke-linecap="round" stroke-linejoin="round" opacity="1" fill="none"></path>
    <path d="M584.14 377.86C582.66 379.65 580.75 381.32 578.96 382.8" stroke="#000000" stroke-width="4"
      stroke-linecap="round" stroke-linejoin="round" opacity="1" fill="none"></path>
    <path d="M541.07 323.18L538.85 332.81" stroke="#000000" stroke-width="4" stroke-linecap="round"
      stroke-linejoin="round" opacity="1" fill="none"></path>
    <path d="M490.1 324.18C488.25 326.65 484.54 326.65 484.54 326.65" stroke="#000000" stroke-width="4"
      stroke-linecap="round" stroke-linejoin="round" opacity="1" fill="none"></path>
    <path
      d="M490.41 316.16C491.26 316.16 491.95 315.46 491.95 314.61 491.95 313.76 491.26 313.07 490.41 313.07 489.55 313.07 488.86 313.76 488.86 314.61 488.86 315.46 489.55 316.16 490.41 316.16Z"
      fill="#231f20" opacity="1" stroke-width="4" stroke="#000000"></path>
    <path
      d="M479.61 422.73L487.57 415.26C488.06 414.89 489.73 414.7 490.34 414.7 491.21 414.7 491.95 415.63 492.5 416.31 493.06 416.93 493.24 417.79 493.06 418.65 491.15 428.16 484.11 441.86 484.05 442.04L483.8 442.54 479.61 422.73Z"
      fill="#373a5000" opacity="0" stroke-width="4" stroke="#ffffff00"></path>
  </g>
  <g>
    <path
      d="M1092.95 784.05C1090.8 751.76 1084.66 739.46 1087.33 715.88 1087.85 711.83 1089.42 705.59 1090.61 701.69H1040.12C1040.02 702.97 1039.78 706.5 1039.74 707.78 1038.54 736.56 1041.55 763.14 1043.69 784.53L1068.75 807.25C1068.7 807.25 1092.57 784.01 1092.95 784.05Z"
      fill="#ffffff" opacity="1" stroke-width="4" stroke="#000000"></path>
    <path
      d="M1039.93 703.97H1089.9C1092.04 696.64 1095.66 687.3 1099.14 678.49H1042.83C1041.4 686.54 1040.45 695.83 1039.93 703.97Z"
      fill="#222222" opacity="1" stroke-width="4" stroke="#000000"></path>
    <path
      d="M1092.81 807.3C1093.38 800.01 1093.42 792.73 1093.04 785.44 1093 784.96 1093 784.53 1092.95 784.05 1092.57 784.01 1092.23 784.01 1091.85 784.01 1086.66 784.01 1082.13 787.44 1080.66 792.39 1078.85 786.2 1072.37 782.67 1066.18 784.48 1062.36 785.63 1059.41 788.58 1058.27 792.39 1056.46 786.2 1049.93 782.67 1043.74 784.48 1043.69 784.48 1043.69 784.48 1043.64 784.53 1044.5 792.96 1045.17 800.59 1045.4 807.25 1045.88 820.26 1044.59 829.5 1039.16 833.55 1028.35 841.65 1020.68 847.7 1017.35 853.04H1084.14C1087.04 843.46 1091.42 825.79 1092.81 807.3Z"
      fill="#ee7036" opacity="1" stroke-width="4" stroke="#000000"></path>
    <path
      d="M1018.25 851.65C1016.3 854.27 1015.34 857.47 1015.39 860.71H1081.61C1081.61 860.71 1082.85 857.37 1084.56 851.65H1018.25Z"
      fill="#0f0f0f" opacity="1" stroke-width="4" stroke="#000000"></path>
    <path
      d="M1058.36 851.65H1084.56C1086.09 846.56 1087.9 839.51 1089.52 831.26 1075.37 828.22 1061.46 837.12 1058.41 851.27 1058.36 851.37 1058.36 851.61 1058.36 851.65Z"
      fill="#ee7036" opacity="1" stroke-width="4" stroke="#000000"></path>
    <path
      d="M1167.12 682.82C1163.6 649.62 1156.45 608.74 1131.77 581.49H1103.33L1080.9 581.3C1080.9 581.3 1052.12 624.61 1042.69 679.68H1098.67C1100.71 674.49 1102.95 668.96 1105.1 663.24 1105.95 669.67 1106.91 676.25 1108.05 682.82H1167.12V682.82Z"
      fill="#9297cb" opacity="1" stroke-width="4" stroke="#000000"></path>
    <path
      d="M1107.53 679.68C1108.86 687.68 1111.24 699.16 1113.05 707.31H1169.84C1168.84 699.5 1167.69 688.01 1166.79 679.68H1107.53Z"
      fill="#222222" opacity="1" stroke-width="4" stroke="#000000"></path>
    <path
      d="M1180.75 812.64L1198.52 787.1C1190.47 754.99 1173.51 732.65 1170.22 709.69 1169.93 707.78 1169.69 705.88 1169.46 703.97H1112.29C1112.53 705.07 1112.81 706.21 1113.05 707.31 1119.96 736.75 1134.2 768.33 1144.64 790.82L1180.75 812.64Z"
      fill="#ffffff" opacity="1" stroke-width="4" stroke="#000000"></path>
    <path
      d="M1202.23 806.97C1201.52 801.25 1200.47 795.2 1199.09 788.96 1198.8 787.72 1198.52 786.48 1198.23 785.29 1192.47 784.44 1186.94 787.96 1185.27 793.53 1183.46 787.34 1176.98 783.82 1170.79 785.63 1166.98 786.77 1164.03 789.72 1162.88 793.53 1161.07 787.34 1154.59 783.82 1148.4 785.63 1146.49 786.2 1144.83 787.2 1143.4 788.58 1146.78 795.87 1149.88 802.54 1152.35 808.45 1158.12 822.17 1160.69 831.84 1156.21 835.65 1146.59 843.79 1140.35 848.41 1137.4 852.8H1202.85C1204.42 837.55 1204.23 822.17 1202.23 806.97Z"
      fill="#ee7036" opacity="1" stroke-width="4" stroke="#000000"></path>
    <path
      d="M1138.16 851.65C1136.3 854.32 1135.44 857.47 1135.49 860.71H1201.71C1201.71 860.71 1202.42 857.47 1203.04 851.65H1138.16Z"
      fill="#0f0f0f" opacity="1" stroke-width="4" stroke="#000000"></path>
    <path d="M1101 627.89C1101.86 638.76 1103.33 650.33 1105.14 663.24" stroke="#000000" stroke-width="4"
      stroke-linecap="round" stroke-linejoin="round" opacity="1" fill="none"></path>
    <path
      d="M1178.41 851.65H1203.04C1204.61 839.74 1204.09 830.69 1204.09 830.69 1191.66 830.69 1180.89 839.46 1178.41 851.65Z"
      fill="#ee7036" opacity="1" stroke-width="4" stroke="#000000"></path>
    <path
      d="M1127.72 449.15L1104.14 430.57C1104.14 430.57 1081.18 428.62 1075.61 436.1 1070.56 442.86 1071.27 456.97 1069.75 463.54 1068.22 470.11 1066.22 476.64 1069.84 482.45 1073.46 488.26 1081.52 490.12 1088.38 488.22L1088.33 494.65H1125.06C1126.2 476.35 1127.49 456.87 1127.72 449.15Z"
      fill="#ffffff" opacity="1" stroke-width="4" stroke="#000000"></path>
    <path
      d="M1165.55 404.32C1156.55 391.37 1141.4 386.36 1131.73 393.08 1128.82 395.08 1126.77 397.89 1125.53 401.23 1117.1 397.37 1108.43 397.23 1102.05 401.66 1095.19 406.42 1092.47 415.42 1093.71 425.48 1085.66 426.95 1079.51 430.72 1075.56 436.05 1074.99 436.81 1074.51 437.58 1074.13 438.43 1074.13 438.43 1078.28 443.34 1095.43 437.62 1091.71 442.58 1092.85 449.39 1103.62 448.87 1104.19 449.63 1104.81 450.39 1105.43 451.11 1104.62 453.68 1104.24 456.44 1104.95 460.06 1104.95 460.06 1109 458.44 1113 458.49 1115.34 460.3 1117.77 461.87 1120.2 463.06 1122.34 470.16 1109.67 477.69 1109.67 477.69 1116.34 484.83 1125.58 485.88 1125.58 485.88 1126.01 478.69 1126.44 471.69 1126.77 465.59 1133.39 467.35 1139.87 466.73 1144.92 463.21 1150.92 459.01 1153.78 451.53 1153.5 442.96 1157.4 443.1 1161.07 442.2 1164.22 440.01 1173.98 433.24 1174.55 417.28 1165.55 404.32Z"
      fill="#9e76dd" opacity="1" stroke-width="4" stroke="#000000"></path>
    <path
      d="M1164.36 429.38C1154.69 436.1 1139.54 431.1 1130.54 418.14 1127.49 413.76 1125.53 408.99 1124.68 404.37 1123.15 411.76 1125.06 420.76 1130.54 428.72 1139.54 441.67 1154.69 446.72 1164.36 439.96 1170.74 435.53 1173.17 427.05 1171.5 418.09 1170.5 422.76 1168.12 426.76 1164.36 429.38Z"
      fill="#9e76dd00" opacity="0" stroke-width="4" stroke="#ffffff00"></path>
    <path
      d="M1142.83 443.63C1130.11 452.54 1110.77 447.77 1095.47 433.34 1096.95 438.01 1099.28 442.67 1102.38 447.15 1114.24 464.11 1133.3 471.26 1144.97 463.16 1153.4 457.25 1155.64 444.96 1151.73 432.19 1149.83 436.86 1146.88 440.82 1142.83 443.63Z"
      fill="#9e76dd00" opacity="0" stroke-width="4" stroke="#ffffff00"></path>
    <path d="M1088.38 488.22C1091.19 487.22 1094.04 486.36 1096.81 485.5" stroke="#000000" stroke-width="4"
      stroke-linecap="round" stroke-linejoin="round" opacity="1" fill="none"></path>
    <path d="M1106.38 469.11L1111.15 467.21" stroke="#000000" stroke-width="4" stroke-linecap="round"
      stroke-linejoin="round" opacity="1" fill="none"></path>
    <path d="M1081.85 461.54L1081.47 462.87C1081.23 463.64 1081.47 464.45 1082.04 464.97L1082.18 465.11"
      stroke="#000000" stroke-width="4" stroke-linecap="round" stroke-linejoin="round" opacity="1" fill="none"></path>
    <path d="M1080.56 470.97C1081.42 471.59 1084.23 471.69 1085.85 469.69" stroke="#000000" stroke-width="4"
      stroke-linecap="round" stroke-linejoin="round" opacity="1" fill="none"></path>
    <path
      d="M1089.99 460.54C1090.86 460.54 1091.57 459.83 1091.57 458.97 1091.57 458.1 1090.86 457.39 1089.99 457.39 1089.12 457.39 1088.42 458.1 1088.42 458.97 1088.42 459.83 1089.12 460.54 1089.99 460.54Z"
      fill="#171314" opacity="1" stroke-width="4" stroke="#000000"></path>
    <path
      d="M1076.51 458.44C1077.38 458.44 1078.09 457.74 1078.09 456.87 1078.09 456 1077.38 455.3 1076.51 455.3 1075.65 455.3 1074.94 456 1074.94 456.87 1074.94 457.74 1075.65 458.44 1076.51 458.44Z"
      fill="#171314" opacity="1" stroke-width="4" stroke="#000000"></path>
    <path
      d="M1126.82 465.54C1127.25 458.39 1127.63 451.68 1127.72 448.1 1128.11 435.77 1118.91 425.57 1105.19 424.86 1101.67 424.67 1097.19 424.86 1093.71 425.43"
      stroke="#000000" stroke-width="4" stroke-linecap="round" stroke-linejoin="round" opacity="1" fill="none"></path>
    <path d="M1153.55 442.96C1153.07 435.24 1150.59 425.52 1145.16 417.71 1139.83 410.04 1132.44 404.42 1125.53 401.23"
      stroke="#000000" stroke-width="4" stroke-linecap="round" stroke-linejoin="round" opacity="1" fill="none"></path>
    <path d="M1088.38 488.22L1088.28 497.13 1101.43 483.6C1094.38 486.79 1088.38 488.22 1088.38 488.22Z"
      fill="#ffffff00" opacity="0" stroke-width="4" stroke="#ffffff00"></path>
    <path
      d="M1011.06 573.87C994.86 582.02 968.23 596.12 962.04 602.03 951.08 612.51 943.93 623.46 944.89 626.32 945.17 627.18 948.27 627.66 952.79 625.51 949.41 634.09 947.74 641.71 947.74 644.9 947.74 648.71 951.08 648.24 951.08 648.24 952.03 653.48 958.7 649.67 958.7 649.67 964.89 653 972.52 638.71 972.52 638.71 972.52 638.71 970.14 648.24 974.42 645.85 978.71 643.47 981.57 630.61 981.57 630.61 986.81 626.8 992.53 617.75 992.53 617.75L1010.63 612.03C1010.63 612.03 1020.16 608.93 1028.3 605.69L1011.06 573.87Z"
      fill="#ffffff" opacity="1" stroke-width="4" stroke="#000000"></path>
    <path d="M951.08 648.24C954.41 645.38 963.47 624.89 963.47 624.89" stroke="#000000" stroke-width="4"
      stroke-linecap="round" stroke-linejoin="round" opacity="1" fill="none"></path>
    <path d="M958.7 649.67C961.56 646.81 970.61 628.23 970.61 628.23" stroke="#000000" stroke-width="4"
      stroke-linecap="round" stroke-linejoin="round" opacity="1" fill="none"></path>
    <path d="M972.52 638.71L976.33 630.61" stroke="#000000" stroke-width="4" stroke-linecap="round"
      stroke-linejoin="round" opacity="1" fill="none"></path>
    <path
      d="M1156.88 511.04C1145.35 499.22 1133.01 498.22 1124.82 499.36L1124.77 499.32C1124.77 499.32 1124.96 495.7 1125.1 493.89L1088.33 493.84 1088.28 500.08C1088.28 500.08 1065.7 495.27 1048.74 523.9 1032.07 552.01 1023.49 567.73 1023.49 567.73 1023.49 567.73 1017.68 570.54 1009.63 574.59L1026.06 606.6C1032.35 604.12 1039.16 600.98 1043.5 597.74 1058.27 586.78 1073.51 560.1 1073.51 560.1L1079.23 583.92H1133.54L1140.06 551.29 1154.97 568.68 1142.45 581.4 1162.83 607.79C1173.93 600.31 1186.94 589.35 1190.7 578.21 1199.28 552.53 1156.88 511.04 1156.88 511.04Z"
      fill="#ee7036" opacity="1" stroke-width="4" stroke="#000000"></path>
    <path d="M1133.54 584.02H1079.23" stroke="#000000" stroke-width="4" stroke-linecap="round" stroke-linejoin="round"
      opacity="1" fill="none"></path>
    <path d="M1070.65 546.29L1062.79 576.59C1069.13 567.77 1073.51 560.1 1073.51 560.1L1070.65 546.29Z" fill="#ee703600"
      opacity="0" stroke-width="4" stroke="#ffffff00"></path>
    <path d="M1133.54 583.92L1140.06 551.2 1135.11 545.24C1135.11 545.24 1129.68 567.39 1112.39 583.92H1133.54Z"
      fill="#ee703600" opacity="0" stroke-width="4" stroke="#ffffff00"></path>
    <path d="M1073.51 560.1L1067.79 538.67" stroke="#000000" stroke-width="4" stroke-linecap="round"
      stroke-linejoin="round" opacity="1" fill="none"></path>
    <path d="M1139.87 551.05L1132.77 542.48" stroke="#000000" stroke-width="4" stroke-linecap="round"
      stroke-linejoin="round" opacity="1" fill="none"></path>
    <path d="M1154.97 568.68L1160.21 563.44" stroke="#000000" stroke-width="4" stroke-linecap="round"
      stroke-linejoin="round" opacity="1" fill="none"></path>
    <path
      d="M1123.06 601.07C1123.06 601.07 1111.15 605.36 1107.34 607.74 1103.52 610.12 1094.95 617.75 1090.19 625.85 1085.42 633.94 1088.76 636.8 1088.76 636.8 1088.28 643.47 1094.47 641.57 1094.47 641.57 1101.14 645.85 1114 629.18 1114 629.18 1114 629.18 1108.29 646.33 1112.1 645.38 1115.91 644.43 1122.58 629.66 1122.58 629.66 1122.58 629.66 1131.63 628.23 1135.44 626.32 1139.25 624.42 1141.64 619.65 1141.64 619.65 1149.45 615.98 1156.93 611.74 1164.07 606.98L1143.49 580.35 1123.06 601.07Z"
      fill="#ffffff" opacity="1" stroke-width="4" stroke="#000000"></path>
    <path d="M1088.76 636.8C1093.38 630.09 1098.62 623.89 1104.48 618.22" stroke="#000000" stroke-width="4"
      stroke-linecap="round" stroke-linejoin="round" opacity="1" fill="none"></path>
    <path d="M1094.47 641.57C1094.47 641.57 1104.48 629.18 1110.67 622.99" stroke="#000000" stroke-width="4"
      stroke-linecap="round" stroke-linejoin="round" opacity="1" fill="none"></path>
    <path d="M1114 629.18L1116.82 624.94" stroke="#000000" stroke-width="4" stroke-linecap="round"
      stroke-linejoin="round" opacity="1" fill="none"></path>
    <path d="M1124.77 499.32C1120.96 500.27 1117.96 500.56 1117.96 500.56" stroke="#000000" stroke-width="4"
      stroke-linecap="round" stroke-linejoin="round" opacity="1" fill="none"></path>
  </g>
  <g>
    <path
      d="M427.28 1006.9V757.95C427.28 742.44 439.87 729.78 455.45 729.78H642.91C658.42 729.78 671.08 742.37 671.08 757.95V1006.9C671.08 1022.41 658.49 1035.07 642.91 1035.07H455.45C439.87 1035 427.28 1022.41 427.28 1006.9Z"
      fill="#9297cb" opacity="1" stroke-width="4" stroke="#000000"></path>
  </g>
  <g>
    <path
      d="M888.72 716.6C886.5 713.08 881.73 707.4 878.94 704.36L918.49 673.38C924.76 681.67 931.07 691.88 936.08 700.89L914.11 731.29 888.72 716.6Z"
      fill="#ffffff" opacity="1" stroke-width="4" stroke="#000000"></path>
    <path d="M919.7 674.92C922.25 678.53 924.76 682.2 927.12 685.91L890.11 699.25 919.7 674.92Z" fill="#ffffff00"
      opacity="0" stroke-width="4" stroke="#ffffff00"></path>
    <path
      d="M892.28 728.98C892.76 725.13 891.37 721.03 888.72 716.6L896.76 709.76C899.56 707.4 903.75 707.73 906.11 710.53 906.45 710.91 906.69 711.3 906.93 711.73L911.94 721.37 936.08 700.89C939.07 706.19 941.62 711.39 943.36 715.01L887.32 762.08C885.59 753.65 890.4 745.07 892.28 728.98Z"
      fill="#373a50" opacity="1" stroke-width="4" stroke="#000000"></path>
    <path
      d="M943.11 714.48C945.57 719.59 946.82 722.62 946.82 722.62L891.08 769.65C889.01 766.85 887.46 764.39 887.27 761.7L943.11 714.48Z"
      fill="#000000" opacity="1" stroke-width="4" stroke="#000000"></path>
    <path d="M899.32 732.74L890.89 731.58" stroke="#000000" stroke-width="4" stroke-linecap="round"
      stroke-linejoin="round" opacity="1" fill="none"></path>
    <path d="M897.44 740.21L889.49 738.38" stroke="#000000" stroke-width="4" stroke-linecap="round"
      stroke-linejoin="round" opacity="1" fill="none"></path>
    <path
      d="M739.02 727.82C739.6 723.73 739.93 717.9 739.79 713.76L789.75 713.18C789.13 723.68 787.44 736.26 785.42 746.52L751.88 753.79 739.02 727.82Z"
      fill="#ffffff" opacity="1" stroke-width="4" stroke="#000000"></path>
    <path d="M756.07 715.44H789.66C789.27 720.36 788.74 725.27 788.07 730.19L756.07 715.44Z" fill="#ffffff00"
      opacity="0" stroke-width="4" stroke="#ffffff00"></path>
    <path
      d="M734.25 618.65C737.52 556.92 773.03 487.3 773.03 487.3H776.74 823.53 824.73C824.97 488.22 825.17 489.08 825.41 490L825.45 490.1C849.74 519.05 840.05 559.82 859.09 606.02 866.36 623.66 891.37 623.37 918.45 648.57 923.7 653.34 928.42 658.64 932.47 664.47L881.1 706.72C866.17 689.91 839.14 668.71 817.89 640.62 809.17 629.1 802.28 614.6 796.88 599.08 793.75 605.68 790.72 612.48 788.02 619.61 780.98 638.3 797.85 668.22 802.52 690.19 804.5 699.45 805.41 708.7 804.88 715.44H739.69C739.21 692.6 732.18 657.67 734.25 618.65Z"
      fill="#ee7036" opacity="1" stroke-width="4" stroke="#000000"></path>
    <path
      d="M818.81 553.79C811.19 603.71 806.57 622.26 806.57 622.26 804.54 618.16 802.57 613.73 800.64 609.06 799.24 605.64 797.99 602.31 796.83 599.13 804.16 584 811.48 568.87 818.81 553.79Z"
      fill="#ee703600" opacity="0" stroke-width="4" stroke="#ffffff00"></path>
    <path
      d="M782.14 761.07C780.79 766.42 779.78 769.69 779.78 769.69H706.83C706.93 766.76 707.75 763.19 709.19 760.78L782.14 761.07Z"
      fill="#000000" opacity="1" stroke-width="4" stroke="#000000"></path>
    <path
      d="M733.81 739.29C736.56 736.69 738.15 732.84 739.02 727.82H749.86C753.52 727.82 756.51 730.81 756.51 734.47 756.51 734.96 756.46 735.44 756.36 735.92L754 746.52H785.42C784.26 752.4 783.06 757.41 782.09 761.26L708.95 761.26C712.81 753.6 721.91 750.47 733.81 739.29Z"
      fill="#373a50" opacity="1" stroke-width="4" stroke="#000000"></path>
    <path d="M823.77 539.63C817.79 559.91 807.1 578.17 796.88 599.08" stroke="#000000" stroke-width="4"
      stroke-linecap="round" stroke-linejoin="round" opacity="1" fill="none"></path>
    <path d="M730.01 741.6L736.13 747.24" stroke="#000000" stroke-width="4" stroke-linecap="round"
      stroke-linejoin="round" opacity="1" fill="none"></path>
    <path d="M724.9 745.84L729.81 752.64" stroke="#000000" stroke-width="4" stroke-linecap="round"
      stroke-linejoin="round" opacity="1" fill="none"></path>
    <path
      d="M816.54 329.7C813.45 329.7 810.95 327.2 810.95 324.11 810.95 321.02 813.45 318.52 816.54 318.52 819.63 318.52 822.13 321.02 822.13 324.11 822.13 327.2 819.63 329.7 816.54 329.7Z"
      fill="#373a50" opacity="1" stroke-width="4" stroke="#000000"></path>
    <path
      d="M790.67 384.34C783.34 385.74 774.38 382.56 771.54 376.48 768.75 370.46 771.68 362.03 774.24 355.96 774.24 355.96 770.77 352.1 771.49 349.89 772.12 348.01 776.98 347.29 776.98 347.29 779.25 340.01 781.27 334.9 784.74 331.15 790.91 324.45 799.53 325.17 812.4 327.82 827.24 330.86 834.85 339.14 832.39 352.83 831.28 359.09 827.29 377.16 824.15 389.97H789.22L790.67 384.34Z"
      fill="#ffffff" opacity="1" stroke-width="4" stroke="#000000"></path>
    <path d="M790.67 384.34C790.67 384.34 795.05 383.9 802.81 380.48L791.05 391.13 789.56 388.67 790.67 384.34Z"
      fill="#ffffff00" opacity="0" stroke-width="4" stroke="#ffffff00"></path>
    <path
      d="M789.75 332.83C795.92 326.13 798.91 329.7 811.77 332.35 826.61 335.39 834.9 339.19 832.44 352.88 831.53 357.98 829.16 369.74 826.26 381.14 821.7 379.09 817.6 375.81 814.57 371.71 817.84 368.97 825.7 361.31 821.21 354.51 816.44 347.33 803 356.39 803 356.39 803 356.39 799.73 350.32 798.81 339.58 786.19 339.58 783.92 334.52 783.92 334.52 784.6 333.12 788.74 333.99 789.75 332.83Z"
      fill="#171314" opacity="1" stroke-width="4" stroke="#000000"></path>
    <path
      d="M785.08 329.17C791.25 322.47 800.3 320.06 813.17 322.71 828.01 325.75 835.67 338.18 833.21 351.86 832.78 354.22 832.1 357.93 830.59 362.79L822.56 358.66C822.56 358.66 822.61 355.43 819.34 353.07 816.06 350.71 810.81 352.54 810.81 352.54L780.65 336.83C781.13 333.8 783.39 331.05 785.08 329.17Z"
      fill="#ee7036" opacity="1" stroke-width="4" stroke="#000000"></path>
    <path d="M794.79 344.18L769.34 330.91" stroke="#000000" stroke-width="4" stroke-linecap="round"
      stroke-linejoin="round" opacity="1" fill="none"></path>
    <path d="M813.26 361.02L808.59 364.78" stroke="#000000" stroke-width="4" stroke-linecap="round"
      stroke-linejoin="round" opacity="1" fill="none"></path>
    <path d="M782.43 361.02C781.51 361.93 778.67 362.9 777.27 362.42" stroke="#000000" stroke-width="4"
      stroke-linecap="round" stroke-linejoin="round" opacity="1" fill="none"></path>
    <path
      d="M782.91 349.89C782.09 349.89 781.42 349.22 781.42 348.39 781.42 347.57 782.09 346.9 782.91 346.9 783.73 346.9 784.4 347.57 784.4 348.39 784.4 349.22 783.73 349.89 782.91 349.89Z"
      fill="#171314" opacity="1" stroke-width="4" stroke="#000000"></path>
    <path d="M789.95 384.45C792.84 384 795.82 383.13 799.05 382.03" stroke="#000000" stroke-width="4"
      stroke-linecap="round" stroke-linejoin="round" opacity="1" fill="none"></path>
    <path
      d="M689.34 536.3C687.08 532.35 703.51 510.38 716.9 492.79L742.82 513.85C739.74 517.13 735.64 521.32 735.64 521.32 735.64 521.32 721.14 561.98 716.95 561.98 712.76 561.98 715.07 554.03 715.07 554.03 715.07 554.03 707.12 570.85 701.05 565.26 701.05 565.26 695.89 569.02 693.58 562.47 693.58 562.47 687.03 561.98 690.79 550.76 694.64 539.24 697.34 534.86 697.34 534.86 697.34 534.86 691.22 539.58 689.34 536.3Z"
      fill="#ffffff" opacity="1" stroke-width="4" stroke="#000000"></path>
    <path
      d="M892.91 534.57C893.68 535.15 897.73 538.57 900.71 546.52 900.76 546.57 900.76 546.66 900.86 546.66 902.11 547.53 916.66 557.98 916.18 561.12 915.8 563.77 904.67 558.47 900.47 556.35 900.14 556.15 899.8 556.59 900.04 556.88 903.03 560.54 910.64 570.75 907.36 576.49 907.32 576.53 907.32 576.58 907.32 576.68 907.36 577.4 907.32 581.93 902.02 580.82 901.87 580.77 901.68 580.87 901.63 581.02 901.2 581.88 899.51 584.53 894.69 582.17 889.63 579.67 881.92 570.27 880.43 568.44 880.29 568.3 880.09 568.25 879.9 568.39 879.18 569.02 877.15 570.37 874.6 568.1 872.82 566.56 865.73 545.41 859.62 526.28 859.57 526.09 859.66 525.9 859.86 525.85L891.08 517.99C891.27 517.95 891.51 518.09 891.51 518.28 892.28 526.04 892.72 533.07 892.76 534.23 892.76 534.42 892.81 534.52 892.91 534.57Z"
      fill="#ffffff" opacity="1" stroke-width="4" stroke="#000000"></path>
    <path
      d="M729.43 476.12L756.07 498.67C755.78 499.01 754.63 500.46 754.34 500.79 749.76 506.38 744.61 512.02 740.85 515.97L715.41 494.77C720.27 488.31 725.86 480.99 729.43 476.12Z"
      fill="#373a50" opacity="1" stroke-width="4" stroke="#000000"></path>
    <path
      d="M891.61 519.82L860 527.73C857.88 521.03 855.28 512.55 853.45 506.77L888.91 498.58C890.02 505.76 891.03 514.04 891.61 519.82Z"
      fill="#373a50" opacity="1" stroke-width="4" stroke="#000000"></path>
    <path
      d="M733.33 470.44C741.76 456.9 762.34 401.73 787.58 396.58L789.56 388.63H824.5C824.06 390.65 823.62 392.53 823.19 394.21 847.04 392.34 875.08 451.26 883.03 474.15 885.68 481.76 887.66 490.96 889.1 499.88L854.03 508.65C851.62 500.89 849.74 494.72 848.87 491.93 845.59 481.18 832.49 463.4 832.49 463.4L825.45 490.05H771.68L769.32 477.42C769.32 477.42 766.05 486.24 755.25 499.73L728.56 477.33C730.54 474.63 732.22 472.22 733.33 470.44Z"
      fill="#9297cb" opacity="1" stroke-width="4" stroke="#000000"></path>
    <path
      d="M769.28 477.42C769.28 477.42 767.44 482.39 761.95 490.58L767.16 452.51C766.29 458.68 769.28 477.42 769.28 477.42Z"
      fill="#9297cb00" opacity="0" stroke-width="4" stroke="#ffffff00"></path>
    <path d="M832.39 463.4L828.59 477.95 822.52 450.25 832.39 463.4Z" fill="#9297cb00" opacity="0" stroke-width="4"
      stroke="#ffffff00"></path>
    <path d="M832.44 463.35C832.44 463.45 828.69 458.11 824.73 451.94" stroke="#000000" stroke-width="4"
      stroke-linecap="round" stroke-linejoin="round" opacity="1" fill="none"></path>
    <path d="M823.19 394.21C819.48 394.79 815.87 395.8 812.83 397.97" stroke="#000000" stroke-width="4"
      stroke-linecap="round" stroke-linejoin="round" opacity="1" fill="none"></path>
    <path d="M825.45 490.1L771.68 490.05" stroke="#000000" stroke-width="4" stroke-linecap="round"
      stroke-linejoin="round" opacity="1" fill="none"></path>
    <path d="M769.32 477.42C766.96 463.89 766.48 446.64 769.76 436.81" stroke="#000000" stroke-width="4"
      stroke-linecap="round" stroke-linejoin="round" opacity="1" fill="none"></path>
    <path d="M697.29 534.91C701.05 531.63 705.24 526.47 705.24 526.47 705.24 526.47 714.59 527.39 719.26 519.92"
      stroke="#000000" stroke-width="4" stroke-linecap="round" stroke-linejoin="round" opacity="1" fill="none"></path>
    <path d="M693.53 562.51C695.41 556.92 705.24 537.75 705.24 537.75" stroke="#000000" stroke-width="4"
      stroke-linecap="round" stroke-linejoin="round" opacity="1" fill="none"></path>
    <path d="M701 565.31C701.92 562.51 712.23 541.46 712.23 541.46" stroke="#000000" stroke-width="4"
      stroke-linecap="round" stroke-linejoin="round" opacity="1" fill="none"></path>
    <path d="M715.02 554.08L718.78 544.73" stroke="#000000" stroke-width="4" stroke-linecap="round"
      stroke-linejoin="round" opacity="1" fill="none"></path>
    <path d="M901.6 580.74C894.64 575.14 883.9 562.51 883.9 562.51" stroke="#000000" stroke-width="4"
      stroke-linecap="round" stroke-linejoin="round" opacity="1" fill="none"></path>
    <path d="M906.73 576C903.03 572.29 892.76 560.15 891.37 558.27" stroke="#000000" stroke-width="4"
      stroke-linecap="round" stroke-linejoin="round" opacity="1" fill="none"></path>
    <path d="M880.24 568.15C878.98 566.37 874.21 560.2 874.07 560.15" stroke="#000000" stroke-width="4"
      stroke-linecap="round" stroke-linejoin="round" opacity="1" fill="none"></path>
  </g>
  <g>
    <path
      d="M651.06 770.59H940.37C955.71 770.59 968.19 783.02 968.19 798.41V1008.75C968.19 1024.09 955.75 1036.57 940.37 1036.57H651.06C635.73 1036.57 623.25 1024.13 623.25 1008.75V798.41C623.25 783.02 635.68 770.59 651.06 770.59Z"
      fill="#cfcfcf" opacity="1" stroke-width="4" stroke="#000000"></path>
  </g>
  <g>
    <path
      d="M325.05 869.35H432.78C449.17 869.35 462.52 882.65 462.52 899.09V1006.82C462.52 1023.22 449.23 1036.57 432.78 1036.57H325.05C308.66 1036.57 295.31 1023.27 295.31 1006.82V899.09C295.31 882.65 308.6 869.35 325.05 869.35Z"
      stroke="#000000" stroke-width="4" stroke-linecap="round" stroke-linejoin="round" opacity="1" fill="none"></path>
  </g>
  <g>
    <path
      d="M951.92 271.39L981.23 249.72 955.8 228.81C955.36 228.42 955.23 227.79 955.48 227.28 955.74 226.77 956.37 226.45 956.94 226.65L987.65 234.21 992.03 202.81C992.09 202.24 992.6 201.73 993.18 201.73 993.81 201.67 994.32 202.05 994.51 202.68L1003.6 235.23 1044.09 224.74C1044.72 224.61 1045.3 224.87 1045.55 225.44 1045.8 226.01 1045.61 226.71 1045.11 227.03L1012.43 248.07 1045.93 275.52C1046.44 275.91 1046.57 276.6 1046.25 277.18 1045.93 277.69 1045.3 277.94 1044.66 277.69L1005.38 261.86 999.91 291.03C999.79 291.61 999.28 292.05 998.71 292.05 998.71 292.05 998.71 292.05 998.64 292.05 998.07 292.05 997.56 291.67 997.43 291.1L990.06 262.62 953.13 273.68C952.56 273.87 951.92 273.55 951.61 273.05 951.29 272.41 951.42 271.77 951.92 271.39Z"
      fill="#ffffff" opacity="1" stroke-width="4" stroke="#000000"></path>
    <path d="M1022.16 200.33L1028.71 189.21" stroke="#000000" stroke-width="4" stroke-linecap="round"
      stroke-linejoin="round" opacity="1" fill="none"></path>
    <path d="M972.33 212.15L968.45 206.24" stroke="#000000" stroke-width="4" stroke-linecap="round"
      stroke-linejoin="round" opacity="1" fill="none"></path>
    <path d="M959.93 294.02L953.39 300.57" stroke="#000000" stroke-width="4" stroke-linecap="round"
      stroke-linejoin="round" opacity="1" fill="none"></path>
    <path d="M1047.65 248.83H1061.44" stroke="#000000" stroke-width="4" stroke-linecap="round" stroke-linejoin="round"
      opacity="1" fill="none"></path>
  </g>
  <g>
    <path
      d="M405.25 591.12L370.82 565.66 400.69 541.08C401.21 540.64 401.36 539.89 401.06 539.29 400.76 538.7 400.02 538.32 399.35 538.55L363.27 547.43 358.12 510.54C358.05 509.87 357.45 509.27 356.78 509.27 356.03 509.2 355.43 509.64 355.21 510.39L344.53 548.63 296.96 536.31C296.21 536.16 295.54 536.45 295.24 537.13 294.94 537.8 295.16 538.62 295.76 538.99L334.15 563.71 294.79 595.98C294.19 596.42 294.04 597.25 294.42 597.92 294.79 598.52 295.54 598.81 296.28 598.52L342.44 579.92 348.86 614.2C349.01 614.87 349.61 615.39 350.28 615.39 350.28 615.39 350.28 615.39 350.35 615.39 351.03 615.39 351.62 614.95 351.77 614.27L360.44 580.82 403.83 593.81C404.5 594.03 405.25 593.66 405.62 593.06 405.99 592.32 405.84 591.57 405.25 591.12Z"
      fill="#ffffff" opacity="1" stroke-width="4" stroke="#000000"></path>
    <path d="M322.72 507.63L315.03 494.56" stroke="#000000" stroke-width="4" stroke-linecap="round"
      stroke-linejoin="round" opacity="1" fill="none"></path>
    <path d="M381.27 521.52L385.83 514.57" stroke="#000000" stroke-width="4" stroke-linecap="round"
      stroke-linejoin="round" opacity="1" fill="none"></path>
    <path d="M395.84 617.71L403.53 625.4" stroke="#000000" stroke-width="4" stroke-linecap="round"
      stroke-linejoin="round" opacity="1" fill="none"></path>
    <path d="M292.77 564.61H276.57" stroke="#000000" stroke-width="4" stroke-linecap="round" stroke-linejoin="round"
      opacity="1" fill="none"></path>
  </g>
  <g>
    <path
      d="M881.98 1003.83L881.98 889.53C881.98 872.34 895.92 858.4 913.1 858.4L1201.05 858.4C1218.23 858.4 1232.17 872.34 1232.17 889.53L1232.17 1003.83C1232.17 1021.02 1218.23 1034.96 1201.05 1034.96L913.1 1034.96C895.92 1034.96 881.98 1021.02 881.98 1003.83Z"
      fill="#fb9eeb" opacity="1" stroke-width="4" stroke="#000000"></path>
  </g>
  <g>
    <path
      d="M1223.74 929.73H1292.58C1303.05 929.73 1311.58 938.23 1311.58 948.73V1017.56C1311.58 1028.04 1303.08 1036.57 1292.58 1036.57H1223.74C1213.27 1036.57 1204.74 1028.07 1204.74 1017.56V948.73C1204.74 938.23 1213.24 929.73 1223.74 929.73Z"
      stroke="#000000" stroke-width="4" stroke-linecap="round" stroke-linejoin="round" opacity="1" fill="none"></path>
  </g>
  <g>
    <path
      d="M756.92 119.95V209C756.85 233.19 737.28 252.76 713.09 252.76H634.3L591.71 281.86C590.98 282.37 590.1 282.66 589.22 282.66 586.73 282.66 584.75 280.69 584.75 278.19V252.76H578.37C554.19 252.76 534.62 233.19 534.62 209V119.95C534.62 95.76 554.19 76.19 578.37 76.19H713.16C737.35 76.19 756.92 95.76 756.92 119.95Z"
      fill="#ffffff" opacity="1" stroke-width="4" stroke="#000000"></path>
    <path d="M634.3 252.76L627.55 257.38 584.75 265.44V252.76H634.3Z" fill="#ffffff00" opacity="0" stroke-width="4"
      stroke="#ffffff00"></path>
  </g>
  <g>
    <path
      d="M640.86 196.15L627.98 203.54C626.67 204.26 624.99 203.84 624.26 202.52 624.08 202.21 623.92 201.78 623.89 201.37L622.69 186.55C622.61 185.34 621.68 184.3 620.48 184.07L605.83 181.46C604.37 181.22 603.35 179.77 603.65 178.32 603.74 177.95 603.85 177.51 604.12 177.25L612.77 165.14C613.49 164.13 613.44 162.79 612.63 161.79L603.08 150.34C602.12 149.17 602.29 147.49 603.46 146.53 603.79 146.28 604.1 146.1 604.52 146.01L618.93 142.25C620.13 141.96 620.95 140.84 620.98 139.66L621 124.75C620.99 123.23 622.23 122.02 623.74 122.07 624.14 122.04 624.52 122.14 624.92 122.37L638.33 128.77C639.45 129.32 640.79 129 641.56 128.07L651.16 116.66C652.11 115.51 653.81 115.35 654.96 116.3 655.29 116.58 655.54 116.91 655.64 117.27L661.8 130.83C662.31 131.96 663.54 132.6 664.72 132.37L679.42 129.82C680.89 129.53 682.28 130.55 682.57 132.01 682.66 132.43 682.63 132.82 682.54 133.2L678.55 147.56C678.25 148.74 678.73 149.99 679.81 150.66L692.69 158.12C693.97 158.84 694.4 160.54 693.67 161.81 693.46 162.15 693.17 162.48 692.86 162.67L680.58 171.07C679.55 171.74 679.14 173.09 679.57 174.26L684.62 188.27C685.13 189.66 684.39 191.26 683 191.77 682.62 191.94 682.22 191.97 681.83 191.93L667.02 190.48C665.79 190.37 664.62 191.06 664.2 192.21L659.04 206.21C658.55 207.61 656.98 208.34 655.58 207.85 655.22 207.69 654.88 207.47 654.55 207.19L644.13 196.58C643.29 195.71 641.94 195.56 640.86 196.15Z"
      fill="#ee7036" opacity="1" stroke-width="4" stroke="#000000"></path>
  </g>
</svg>