<svg xmlns="http://www.w3.org/2000/svg" height="1200" width="1600" version="1.1"
  xmlns:xlink="http://www.w3.org/1999/xlink" xmlns:svgjs="http://svgjs.com/svgjs">
  <g>
    <path
      d="M322.44 854.29C398.05 823.1 480.74 793.29 688.91 842.21 1052.32 927.65 1209.9 903.55 1200.25 808.55 1191.62 724.76 991.74 659.45 898.66 605.12 701.63 490.11 697.53 366.17 868.28 340.86 1036.67 315.89 1169.63 390.07 1247.85 189.2"
      stroke="#000000" stroke-width="4" stroke-linecap="round" stroke-linejoin="round" opacity="1" fill="none"></path>
  </g>
  <g>
    <path
      d="M735.04 121.67L1060.87 195.81C1109.85 206.95 1141.62 251.03 1131.79 294.22L967.13 1017.94C957.31 1061.13 909.59 1087.13 860.61 1075.98L534.78 1001.85C485.8 990.71 454.03 946.62 463.86 903.43L628.52 179.72C638.34 136.53 686.06 110.53 735.04 121.67Z"
      fill="#373a50" opacity="1" stroke-width="4" stroke="#000000"></path>
  </g>
  <g>
    <path
      d="M744.86 145.46L1042.07 213.08C1086.75 223.24 1115.4 264.85 1106.05 305.98L949.27 995.06C939.91 1036.18 896.07 1061.3 851.4 1051.13L554.19 983.51C509.51 973.35 480.86 931.74 490.21 890.61L646.99 201.53C656.35 160.41 700.19 135.29 744.86 145.46Z"
      fill="#ffffff" opacity="1" stroke-width="4" stroke="#000000"></path>
  </g>
  <g>
    <path
      d="M1272.1 940.03L1169.79 925.25 1126.06 951.15C1121.17 954.03 1114.99 952.39 1112.1 947.64 1110.89 945.68 1110.48 943.38 1110.81 941.04L1126.7 831.14C1133.56 783.64 1177.72 750.63 1225.22 757.49L1296.99 767.87C1344.49 774.73 1377.49 818.89 1370.63 866.39 1363.91 913.91 1319.75 946.92 1272.1 940.03Z"
      fill="#ee7036" opacity="1" stroke-width="4" stroke="#000000"></path>
    <path
      d="M1240.23 879.77L1220.94 889.37C1217.4 891.1 1213.15 889.59 1211.4 886.2 1210.48 884.28 1210.36 882.02 1211.39 880.08L1220.34 860.49C1221.61 857.83 1221.01 854.76 1218.95 852.53L1203.88 837.07C1201.14 834.29 1201.19 829.82 1203.98 827.09 1205.52 825.67 1207.57 824.92 1209.78 825.09L1231.21 827.59C1234.15 827.87 1236.89 826.47 1238.31 823.84L1248.37 804.85C1250.21 801.39 1254.43 800.06 1257.9 801.9 1259.84 802.93 1261.07 804.75 1261.52 806.76L1265.79 827.81C1266.41 830.74 1268.64 832.85 1271.55 833.42L1292.8 837.09C1296.58 837.78 1299.18 841.44 1298.63 845.24 1298.34 847.29 1297.02 849.19 1295.08 850.25L1276.24 860.81C1273.65 862.22 1272.33 865.16 1272.66 868.05L1275.69 889.37C1276.33 893.2 1273.57 896.83 1269.75 897.47 1267.62 897.76 1265.47 897.15 1263.88 895.73L1248.1 881.06C1246.01 878.97 1242.8 878.5 1240.23 879.77Z"
      fill="#ffffff" opacity="1" stroke-width="4" stroke="#000000"></path>
  </g>
  <g>
    <path
      d="M341.66 909.8L369.41 865.23C370.7 863.15 373.46 862.45 375.64 863.78 376.4 864.26 377.05 865.03 377.4 865.84L400.73 920.59C401.72 922.91 400.67 925.53 398.35 926.52 397.53 926.87 396.6 926.94 395.72 926.76L344.63 916.58C342.17 916.1 340.59 913.72 341.1 911.33 341.2 910.8 341.37 910.25 341.66 909.8Z"
      fill="#9297cb" opacity="1" stroke-width="4" stroke="#000000"></path>
    <path
      d="M341.1 911.33C340.59 913.72 342.17 916.1 344.63 916.58L352.72 918.2 395.68 908.75 377.4 865.84C377.05 865.03 376.4 864.26 375.64 863.78 373.46 862.45 370.7 863.15 369.41 865.23L341.66 909.8C341.37 910.25 341.2 910.8 341.1 911.33Z"
      fill="#9297cb00" opacity="0" stroke-width="4" stroke="#ffffff00"></path>
    <path
      d="M271.43 947.78L396.59 894.44C419.06 884.86 429.49 858.93 419.92 836.46L384.65 753.72C375.08 731.25 349.14 720.82 326.67 730.39L201.44 783.77C178.97 793.34 168.54 819.27 178.11 841.75L213.38 924.48C223.02 946.93 248.95 957.36 271.43 947.78Z"
      fill="#9297cb" opacity="1" stroke-width="4" stroke="#000000"></path>
    <path
      d="M264.52 868.89C257.49 871.89 249.35 868.62 246.36 861.59 243.36 854.55 246.63 846.42 253.66 843.42 260.7 840.43 268.83 843.7 271.83 850.73 274.82 857.76 271.55 865.9 264.52 868.89Z"
      fill="#ffffff" opacity="1" stroke-width="4" stroke="#000000"></path>
    <path
      d="M304.49 851.86C297.46 854.85 289.33 851.58 286.33 844.55 283.33 837.52 286.6 829.39 293.64 826.39 300.67 823.39 308.8 826.66 311.8 833.69 314.79 840.73 311.52 848.86 304.49 851.86Z"
      fill="#ffffff" opacity="1" stroke-width="4" stroke="#000000"></path>
    <path
      d="M344.4 834.85C337.36 837.85 329.23 834.57 326.23 827.54 323.24 820.51 326.51 812.38 333.54 809.38 340.57 806.38 348.71 809.65 351.7 816.69 354.7 823.72 351.43 831.85 344.4 834.85Z"
      fill="#ffffff" opacity="1" stroke-width="4" stroke="#000000"></path>
  </g>
  <g>
    <path
      d="M1276.68 123.58C1336.72 116.5 1391.01 159.33 1398.09 219.38 1405.17 279.43 1359.04 334.1 1299.13 341.16 1239.23 348.23 1187.96 305.04 1180.88 244.99 1173.8 184.95 1216.63 130.66 1276.68 123.58Z"
      fill="#9297cb" opacity="1" stroke-width="4" stroke="#000000"></path>
    <path d="M1190.37 185.91L1375.11 164.12" stroke="#000000" stroke-width="4" stroke-linecap="round"
      stroke-linejoin="round" opacity="1" fill="none"></path>
    <path d="M1180.88 244.99L1398.09 219.38" stroke="#000000" stroke-width="4" stroke-linecap="round"
      stroke-linejoin="round" opacity="1" fill="none"></path>
    <path d="M1204.04 300.53L1388.58 278.32" stroke="#000000" stroke-width="4" stroke-linecap="round"
      stroke-linejoin="round" opacity="1" fill="none"></path>
    <path d="M1299.13 341.16L1276.68 123.58" stroke="#000000" stroke-width="4" stroke-linecap="round"
      stroke-linejoin="round" opacity="1" fill="none"></path>
    <path d="M1276.68 123.58C1276.68 123.58 1147.85 236.66 1299.13 341.16" stroke="#000000" stroke-width="4"
      stroke-linecap="round" stroke-linejoin="round" opacity="1" fill="none"></path>
    <path d="M1276.82 123.57C1276.82 123.57 1423.05 201.29 1299.13 341.16" stroke="#000000" stroke-width="4"
      stroke-linecap="round" stroke-linejoin="round" opacity="1" fill="none"></path>
  </g>
  <g>
    <path
      d="M332.57 268.59L539.79 232.41 458.33 425.96 436.97 372.13 374.73 421.83 318.19 351.05 380.42 301.34 332.57 268.59Z"
      fill="#cfcfcf" opacity="1" stroke-width="4" stroke="#000000"></path>
  </g>
  <g>
    <path d="M1059.71 473.99L618.29 372.19 534.86 733.93 976.28 835.74 1059.71 473.99Z" fill="#ffffff" opacity="1"
      stroke-width="4" stroke="#000000"></path>
    <path
      d="M903.88 569.05L878.52 664.83 1012.13 680.29 1009.12 693.32 871.61 677.42 830.86 702.75 868.72 778.66 993.7 760.21 990.47 774.2 874.92 791.18 886.87 815.03 870.13 811.17 819.52 709.77 751.74 751.77 798.49 794.64 772.25 788.59 565.96 599.11 569.38 584.26 741.53 742.42 864.36 666.3 890 569.3 571.29 575.98 574.38 562.6 638.32 561.25 648.04 456.04 603.44 436.58 606.47 423.46 654.3 444.31 722.15 396.05 739.5 400.05 712.75 419.06 782.31 491.92 772.74 501.08 701.77 426.89 661.42 455.58 651.66 560.97 966.61 554.43 978.25 455.11 991.28 458.12 980.04 554.16 1041.51 552.89 1038.43 566.26 903.88 569.05Z"
      fill="#ee7036" opacity="1" stroke-width="4" stroke="#000000"></path>
    <path
      d="M701.52 696.37L669.03 666.97C672.95 662.97 676.92 659.15 680.68 655.48 702.87 634.14 717.57 620.08 711.96 586.06 711.62 583.98 711.31 581.81 711.05 579.76L755.17 578.84C755.15 578.93 755.15 578.93 755.22 579.03 764.4 635.79 734.84 664.24 711.02 687.11 707.75 690.26 704.6 693.26 701.52 696.37Z"
      fill="#373a50" opacity="1" stroke-width="4" stroke="#000000"></path>
    <path
      d="M892.61 493.36C867.62 508.32 838.98 512.26 813.71 515.8 788.91 519.26 767.59 522.25 759.14 533.67 755.84 538.09 754.01 544.48 753.49 552.64L709.65 553.52C710.32 534.86 715 519.67 723.96 507.64 743.29 481.38 776.06 476.84 807.72 472.42 829.88 469.35 852.79 466.18 870.2 455.74 878.74 450.62 885.92 443.55 891.16 435.03 898.73 436.87 935.44 445.24 935.44 445.24 925.72 466.09 911.59 482.01 892.61 493.36Z"
      fill="#373a50" opacity="1" stroke-width="4" stroke="#000000"></path>
    <path
      d="M639.31 709.11C642.67 701.25 646.92 693.87 651.97 686.94L684.76 716.6C676.85 729.23 672.46 744.31 674.54 766.06L630.35 755.86C630.29 738.76 633.23 723.26 639.31 709.11Z"
      fill="#373a50" opacity="1" stroke-width="4" stroke="#000000"></path>
    <path
      d="M610.34 686.52C628.93 690.81 647.48 679.22 651.77 660.63 656.05 642.03 644.46 623.49 625.87 619.2 607.27 614.91 588.73 626.51 584.44 645.1 580.15 663.69 591.75 682.24 610.34 686.52Z"
      fill="#191919" opacity="1" stroke-width="4" stroke="#000000"></path>
    <path
      d="M617.38 633.15L627.39 635.46C628.43 635.7 629.09 636.76 628.85 637.8L621.17 671.11C620.93 672.15 619.86 672.81 618.83 672.57L608.82 670.26C607.78 670.03 607.12 668.96 607.36 667.93L615.04 634.61C615.37 633.59 616.34 632.91 617.38 633.15Z"
      fill="#ee7036" opacity="1" stroke-width="4" stroke="#000000"></path>
    <path
      d="M637.9 652.16L635.59 662.17C635.35 663.2 634.29 663.87 633.26 663.63L599.94 655.94C598.9 655.71 598.24 654.64 598.48 653.61L600.79 643.59C601.03 642.56 602.09 641.89 603.12 642.13L636.44 649.82C637.48 650.06 638.14 651.12 637.9 652.16Z"
      fill="#ee7036" opacity="1" stroke-width="4" stroke="#000000"></path>
    <path
      d="M935.61 725.91C954.2 730.2 972.75 718.6 977.04 700.01 981.32 681.42 969.73 662.87 951.14 658.58 932.55 654.29 914 665.89 909.71 684.48 905.42 703.07 917.02 721.62 935.61 725.91Z"
      fill="#191919" opacity="1" stroke-width="4" stroke="#000000"></path>
    <path
      d="M945.77 672.8L929.02 681.94C927.98 682.51 927.58 683.88 928.16 684.92 928.49 685.45 928.95 685.83 929.64 685.99L959.24 692.81C960.45 693.09 961.62 692.36 961.9 691.15 962.04 690.55 961.92 689.89 961.59 689.36L950.34 673.85C949.31 672.43 947.32 671.98 945.77 672.8Z"
      fill="#ee7036" opacity="1" stroke-width="4" stroke="#000000"></path>
    <path
      d="M923.67 701.61L924.07 699.88C924.27 699.02 925.12 698.49 925.98 698.69L956.79 705.8C957.66 705.99 958.19 706.84 957.99 707.71L957.59 709.43C957.39 710.3 956.54 710.83 955.68 710.63L924.86 703.52C924 703.32 923.47 702.47 923.67 701.61Z"
      fill="#ee7036" opacity="1" stroke-width="4" stroke="#000000"></path>
    <path
      d="M952.44 688.43L951.31 688.17 932.32 683.79 928.34 701.05 947.33 705.43 948.45 705.69 953.63 706.88 957.62 689.62 952.44 688.43Z"
      fill="#ee7036" opacity="1" stroke-width="4" stroke="#000000"></path>
    <path
      d="M731.35 507.9C749.95 512.18 768.49 500.59 772.78 482 777.07 463.4 765.47 444.86 746.88 440.57 728.29 436.28 709.74 447.88 705.45 466.47 701.17 485.06 712.76 503.61 731.35 507.9Z"
      fill="#191919" opacity="1" stroke-width="4" stroke="#000000"></path>
    <path
      d="M741.97 456.35L723.44 462.98C722.35 463.37 721.81 464.51 722.22 465.52 722.33 465.82 722.53 466.13 722.75 466.37L736.95 478.91C737.62 479.52 738.66 479.76 739.54 479.51L757.79 474.45C758.86 474.15 759.49 473.02 759.19 471.95 759.08 471.65 758.96 471.35 758.66 471.1L744.91 457.02C744.18 456.22 743.06 455.96 741.97 456.35Z"
      fill="#ee7036" opacity="1" stroke-width="4" stroke="#000000"></path>
    <path
      d="M736.15 482.37L726.17 473.61 723.26 486.21C723.07 487.07 723.6 487.92 724.46 488.12L746.73 493.26C747.59 493.46 748.44 492.93 748.64 492.06L751.55 479.46 738.74 482.96C737.86 483.22 736.91 483 736.15 482.37Z"
      fill="#ee7036" opacity="1" stroke-width="4" stroke="#000000"></path>
  </g>
</svg>