<svg xmlns="http://www.w3.org/2000/svg" height="1200" width="1600" version="1.1"
  xmlns:xlink="http://www.w3.org/1999/xlink" xmlns:svgjs="http://svgjs.com/svgjs">
  <g>
    <path
      d="M646.08 991.07C659.05 991.07 669.56 980.56 669.56 967.59 669.56 954.62 659.05 944.1 646.08 944.1 633.1 944.1 622.59 954.62 622.59 967.59 622.59 980.56 633.1 991.07 646.08 991.07Z"
      fill="#9297cb" opacity="1" stroke-width="4" stroke="#000000"></path>
  </g>
  <g>
    <path
      d="M829.94 882.44L845.83 886.21 832.34 895.35 836.97 911.01 822.29 903.93 811.09 915.75 809.89 899.47 794 895.7 807.49 886.5 802.86 870.9 817.54 877.98 828.74 866.16 829.94 882.44Z"
      fill="#373a50" opacity="1" stroke-width="4" stroke="#000000"></path>
  </g>
  <g>
    <path
      d="M304 507.33C313.93 507.33 321.98 499.28 321.98 489.35 321.98 479.42 313.93 471.37 304 471.37 294.07 471.37 286.02 479.42 286.02 489.35 286.02 499.28 294.07 507.33 304 507.33Z"
      fill="#373a50" opacity="1" stroke-width="4" stroke="#000000"></path>
  </g>
  <g>
    <path
      d="M1342.33 332.83L1358.7 336.71 1344.8 346.13 1349.57 362.27 1334.44 354.97 1322.89 367.16 1321.66 350.38 1305.29 346.49 1319.18 337.01 1314.41 320.93 1329.55 328.23 1341.09 316.04 1342.33 332.83Z"
      fill="#373a50" opacity="1" stroke-width="4" stroke="#000000"></path>
  </g>
  <g>
    <path
      d="M643.49 256.95L621.47 273.4 629.83 247.59 604.06 244.36 627.53 231.63 615 206.44 640.67 220.31 650.61 199.25 657.43 223.82 683.65 214.35 664.58 237.2 687.64 252.86 659.97 252.96 660.35 279.59 643.49 256.95Z"
      stroke="#000000" stroke-width="4" stroke-linecap="round" stroke-linejoin="round" opacity="1" fill="none"></path>
  </g>
  <g>
    <path
      d="M551.84 336.91L1100.64 339.23C1119.18 339.23 1124.26 341.17 1124.26 359.71L1134.2 386.7V791.91C1134.2 810.44 1119.18 825.47 1100.64 825.47H551.84C533.3 825.47 518.27 810.44 518.27 791.91V386.7L527.32 359.71C527.32 341.17 533.3 336.91 551.84 336.91Z"
      fill="#9297cb" opacity="1" stroke-width="4" stroke="#000000"></path>
    <path
      d="M551.84 326.15H1100.64C1119.18 326.15 1134.2 341.17 1134.2 359.71V386.7H518.27V359.71C518.27 341.17 533.3 326.15 551.84 326.15Z"
      fill="#737696" opacity="1" stroke-width="4" stroke="#000000"></path>
    <path
      d="M565.59 367.63C571.37 367.63 576.05 362.95 576.05 357.17 576.05 351.39 571.37 346.71 565.59 346.71 559.81 346.71 555.13 351.39 555.13 357.17 555.13 362.95 559.81 367.63 565.59 367.63Z"
      fill="#fcfcfc" opacity="1" stroke-width="4" stroke="#000000"></path>
    <path
      d="M599.6 367.63C605.38 367.63 610.07 362.95 610.07 357.17 610.07 351.39 605.38 346.71 599.6 346.71 593.82 346.71 589.14 351.39 589.14 357.17 589.14 362.95 593.82 367.63 599.6 367.63Z"
      fill="#9398cc" opacity="1" stroke-width="4" stroke="#000000"></path>
    <path
      d="M633.61 367.63C639.39 367.63 644.08 362.95 644.08 357.17 644.08 351.39 639.39 346.71 633.61 346.71 627.83 346.71 623.15 351.39 623.15 357.17 623.15 362.95 627.83 367.63 633.61 367.63Z"
      fill="#9398cc" opacity="1" stroke-width="4" stroke="#000000"></path>
    <path d="M748.95 356.95H903.6" stroke="#000000" stroke-width="4" stroke-linecap="round" stroke-linejoin="round"
      opacity="1" fill="none"></path>
  </g>
  <g>
    <path d="M796.54 497.3V719.12" stroke="#000000" stroke-width="4" stroke-linecap="round" stroke-linejoin="round"
      opacity="1" fill="none"></path>
    <path
      d="M785.71 575.97H807.46C815.6 575.97 822.1 582.56 822.1 590.62V640.96C822.1 649.1 815.52 655.6 807.46 655.6H785.71C777.57 655.6 771.07 649.02 771.07 640.96V590.62C770.98 582.47 777.57 575.97 785.71 575.97Z"
      fill="#373a50" opacity="1" stroke-width="4" stroke="#000000"></path>
    <path d="M805.21 610.11H787.88" stroke="#000000" stroke-width="4" stroke-linecap="round" stroke-linejoin="round"
      opacity="1" fill="none"></path>
    <path d="M805.21 621.38H787.88" stroke="#000000" stroke-width="4" stroke-linecap="round" stroke-linejoin="round"
      opacity="1" fill="none"></path>
    <path d="M910.05 497.3V719.12" stroke="#000000" stroke-width="4" stroke-linecap="round" stroke-linejoin="round"
      opacity="1" fill="none"></path>
    <path
      d="M899.22 532.65H920.97C929.11 532.65 935.61 539.23 935.61 547.29V597.64C935.61 605.78 929.03 612.28 920.97 612.28H899.22C891.08 612.28 884.58 605.69 884.58 597.64V547.29C884.49 539.15 891.08 532.65 899.22 532.65Z"
      fill="#373a50" opacity="1" stroke-width="4" stroke="#000000"></path>
    <path d="M918.72 566.79H901.39" stroke="#000000" stroke-width="4" stroke-linecap="round" stroke-linejoin="round"
      opacity="1" fill="none"></path>
    <path d="M918.72 578.05H901.39" stroke="#000000" stroke-width="4" stroke-linecap="round" stroke-linejoin="round"
      opacity="1" fill="none"></path>
    <path d="M1015.76 497.3V719.12" stroke="#000000" stroke-width="4" stroke-linecap="round" stroke-linejoin="round"
      opacity="1" fill="none"></path>
    <path
      d="M1004.93 614.1H1026.68C1034.82 614.1 1041.32 620.68 1041.32 628.74V679.08C1041.32 687.23 1034.74 693.73 1026.68 693.73H1004.93C996.79 693.73 990.29 687.14 990.29 679.08V628.74C990.2 620.6 996.79 614.1 1004.93 614.1Z"
      fill="#373a50" opacity="1" stroke-width="4" stroke="#000000"></path>
    <path d="M1024.43 648.24H1007.1" stroke="#000000" stroke-width="4" stroke-linecap="round" stroke-linejoin="round"
      opacity="1" fill="none"></path>
    <path d="M1024.43 659.5H1007.1" stroke="#000000" stroke-width="4" stroke-linecap="round" stroke-linejoin="round"
      opacity="1" fill="none"></path>
    <path
      d="M663.62 589.84C689.23 589.84 709.98 569.08 709.98 543.48 709.98 517.88 689.23 497.12 663.62 497.12 638.02 497.12 617.27 517.88 617.27 543.48 617.27 569.08 638.02 589.84 663.62 589.84Z"
      fill="#ee7036" opacity="1" stroke-width="4" stroke="#000000"></path>
    <path d="M663.62 498.16V519.83" stroke="#000000" stroke-width="4" stroke-linecap="round" stroke-linejoin="round"
      opacity="1" fill="none"></path>
    <path
      d="M663.36 719.12C688.97 719.12 709.72 698.36 709.72 672.76 709.72 647.15 688.97 626.4 663.36 626.4 637.76 626.4 617.01 647.15 617.01 672.76 617.01 698.36 637.76 719.12 663.36 719.12Z"
      fill="#ee7036" opacity="1" stroke-width="4" stroke="#000000"></path>
    <path d="M663.8 626.4V648.06" stroke="#000000" stroke-width="4" stroke-linecap="round" stroke-linejoin="round"
      opacity="1" fill="none"></path>
  </g>
  <g>
    <path
      d="M647.28 808.97L689.03 776.08 673.3 825.17 721.92 830.87 679.55 855.11 699.88 895.69 655.31 874.26 634.51 924.73 624.14 872.41 569.83 881.89 609.52 847.9 573.13 823.04 619.95 820.57 616.45 770.1 647.28 808.97Z"
      stroke="#000000" stroke-width="4" stroke-linecap="round" stroke-linejoin="round" opacity="1" fill="none"></path>
  </g>
  <g>
    <path
      d="M223.03 561.25L302.49 549.25C316.25 547.17 329.07 556.63 331.15 570.38L336.08 603.05C338.16 616.81 328.7 629.63 314.95 631.7L235.49 643.7C221.73 645.78 208.91 636.33 206.83 622.57L201.9 589.9C199.82 576.15 209.28 563.33 223.03 561.25Z"
      fill="#ee7036" opacity="1" stroke-width="4" stroke="#000000"></path>
    <path d="M252.82 617.15L229.67 602.65 247.52 582.06" stroke="#000000" stroke-width="4" stroke-linecap="round"
      stroke-linejoin="round" opacity="1" fill="none"></path>
    <path d="M285.15 576.37L308.29 590.78 290.45 611.47" stroke="#000000" stroke-width="4" stroke-linecap="round"
      stroke-linejoin="round" opacity="1" fill="none"></path>
    <path d="M272.06 577.2L265.81 615.67" stroke="#000000" stroke-width="4" stroke-linecap="round"
      stroke-linejoin="round" opacity="1" fill="none"></path>
  </g>
  <g>
    <path
      d="M797.17 174.45H987.94C1010.24 174.45 1028.32 192.53 1028.32 214.84V404.61C1028.32 426.92 1010.24 445 987.94 445H797.17C774.87 445 756.79 426.92 756.79 404.61V214.84C756.79 192.53 774.87 174.45 797.17 174.45Z"
      fill="#cfcfcf" opacity="1" stroke-width="4" stroke="#000000"></path>
    <path d="M823.88 210.43L792.86 241.46" stroke="#000000" stroke-width="4" stroke-linecap="round"
      stroke-linejoin="round" opacity="1" fill="none"></path>
    <path d="M823.88 241.46L792.86 210.43" stroke="#000000" stroke-width="4" stroke-linecap="round"
      stroke-linejoin="round" opacity="1" fill="none"></path>
  </g>
  <g>
    <path
      d="M851.79 256.52C851.79 251.44 851.48 243.55 852 235.98 852 235.93 852.05 235.88 852.05 235.88L898.89 209.37C898.94 209.32 899.04 209.37 899.04 209.42L914.14 229.91V229.96L928.97 278.46C928.97 278.46 928.97 278.46 928.97 278.51 930.11 290.39 930.89 299.62 930.94 299.93 930.89 300.5 928.04 341.17 904.33 341.17 880.73 341.17 883.69 309.32 883.74 308.65L882.13 293.14C882.13 293.03 882.03 292.98 881.93 293.03 880.47 293.86 870.51 299.31 859.83 293.45 848 286.91 851.79 266.32 851.79 256.52Z"
      fill="#ffffff" opacity="1" stroke-width="4" stroke="#000000"></path>
    <path d="M883.17 302.68L882.19 292.93C882.19 292.93 891.42 288.26 895.98 285.25L883.17 302.68Z" fill="#ffffff00"
      opacity="0" stroke-width="4" stroke="#ffffff00"></path>
    <path d="M961.91 378.04L970.98 414.56 976.01 374.78 961.91 378.04Z" fill="#ffffff00" opacity="0" stroke-width="4"
      stroke="#ffffff00"></path>
    <path
      d="M853.09 227.06C854.28 217.83 875.65 203.35 891.88 203.35 907.65 203.35 912.99 216.53 915.85 238.26 916.05 239.87 924.87 239.3 926.58 254.6 927.67 264.51 928.45 272.75 929.02 278.46 927.15 278.51 925.03 278.35 922.64 277.99 919.06 277.47 914.65 276.28 911.39 273.84 911.39 273.84 927.83 255.17 913.88 246.2 906.3 241.32 893.8 257.04 893.8 257.04 893.8 257.04 885.66 247.29 890.02 234.79 867.25 246.72 852 235.93 852 235.93 852.26 228.82 853.04 227.16 853.09 227.06Z"
      fill="#ffea29" opacity="1" stroke-width="4" stroke="#000000"></path>
    <path d="M908.48 259.27L903.87 264.66" stroke="#000000" stroke-width="4" stroke-linecap="round"
      stroke-linejoin="round" opacity="1" fill="none"></path>
    <path d="M864.86 264.14C864.34 265.28 863.67 267.15 863.98 268.19 864.29 268.86 864.86 269.38 865.54 269.64"
      stroke="#000000" stroke-width="4" stroke-linecap="round" stroke-linejoin="round" opacity="1" fill="none"></path>
    <path d="M871.86 272.29C871.92 274.31 870.31 276.02 868.23 276.07 868.18 276.07 868.13 276.07 868.08 276.07"
      stroke="#000000" stroke-width="4" stroke-linecap="round" stroke-linejoin="round" opacity="1" fill="none"></path>
    <path d="M882.19 292.88L892.2 287.54" stroke="#000000" stroke-width="4" stroke-linecap="round"
      stroke-linejoin="round" opacity="1" fill="none"></path>
    <path
      d="M874.82 258.18C875.88 258.18 876.74 257.32 876.74 256.26 876.74 255.2 875.88 254.34 874.82 254.34 873.76 254.34 872.9 255.2 872.9 256.26 872.9 257.32 873.76 258.18 874.82 258.18Z"
      fill="#17151c" opacity="1" stroke-width="4" stroke="#000000"></path>
    <path
      d="M858.59 258.18C859.64 258.18 860.5 257.32 860.5 256.26 860.5 255.2 859.64 254.34 858.59 254.34 857.53 254.34 856.67 255.2 856.67 256.26 856.67 257.32 857.53 258.18 858.59 258.18Z"
      fill="#17151c" opacity="1" stroke-width="4" stroke="#000000"></path>
    <path
      d="M917.45 190.91C927.48 190.91 935.61 182.78 935.61 172.75 935.61 162.73 927.48 154.6 917.45 154.6 907.43 154.6 899.3 162.73 899.3 172.75 899.3 182.78 907.43 190.91 917.45 190.91Z"
      fill="#9297cb" opacity="1" stroke-width="4" stroke="#000000"></path>
    <path
      d="M924.04 233.96C922.8 227.11 923.21 219.95 925.75 213.47 926.01 212.79 926.22 212.12 926.38 211.39 928.87 200.61 918.49 188.99 903.19 185.46 887.89 181.93 873.47 187.79 870.98 198.63 870.93 198.89 870.88 199.15 870.83 199.41 869.94 204.86 866.99 209.79 862.63 213.16 860.14 214.97 857.91 217.2 856.04 219.69 854.64 221.66 853.66 224.26 852.98 227.27L926.58 254.5C925.86 247.8 925.03 241.48 924.35 236.5 924.35 235.62 924.2 234.79 924.04 233.96Z"
      fill="#9297cb" opacity="1" stroke-width="4" stroke="#000000"></path>
    <path
      d="M1018.91 352.58C1002.73 331.21 981.3 311.91 965.17 305.64V305.59C964.45 305.33 963.67 305.07 962.94 304.81 945.88 299.1 930.99 299.93 930.99 299.93 930.99 299.93 920.67 323.79 901.69 323.79 885.4 323.79 883.79 308.59 883.79 308.59 883.79 308.59 872.17 311.34 860.25 323.79 860.25 323.79 844.53 340.39 831.61 366.89L866.47 390.6 868.91 416.01 966.57 449.1 974.09 389.97 979.02 394.23 1018.91 352.58Z"
      fill="#9297cb" opacity="1" stroke-width="4" stroke="#000000"></path>
    <path d="M974.09 389.97L962.99 378.93" stroke="#000000" stroke-width="4" stroke-linecap="round"
      stroke-linejoin="round" opacity="1" fill="none"></path>
    <path
      d="M932.91 425.76C919.37 419.28 870 411.65 870 411.65L867.66 390.65 831.61 366.89C827.57 375.14 823.06 384.16 820.88 394.02 819.27 401.49 819.37 415.29 821.4 423.01 823.89 432.4 828.04 440.13 837.58 443.19L942.92 466.89 952.98 468.61C952.98 468.61 958.43 468.61 957.34 462.64 960.04 463.16 961.91 462.38 963.31 461.03 964.91 459.42 963.31 455.59 963.31 455.59 963.31 455.59 967.09 455.07 964.4 449.1 961.8 443.45 946.45 432.3 932.91 425.76Z"
      fill="#ffffff" opacity="1" stroke-width="4" stroke="#000000"></path>
    <path d="M870 411.65L867.66 390.65 860.87 386.14 857.44 413.73 870 411.65Z" fill="#ffffff00" opacity="0"
      stroke-width="4" stroke="#ffffff00"></path>
    <path d="M870 411.65L855.89 413.99" stroke="#000000" stroke-width="4" stroke-linecap="round" stroke-linejoin="round"
      opacity="1" fill="none"></path>
    <path
      d="M899.15 457.09L942.92 466.95 952.98 468.66C952.98 468.66 958.43 468.66 957.34 462.69 960.04 463.21 961.91 462.43 963.31 461.08 964.91 459.48 963.31 455.64 963.31 455.64L936.85 450.81 899.15 457.09Z"
      fill="#ffffff00" opacity="0" stroke-width="4" stroke="#ffffff00"></path>
    <path d="M963.31 455.59C950.86 446.35 929.7 434.42 929.7 434.42" stroke="#000000" stroke-width="4"
      stroke-linecap="round" stroke-linejoin="round" opacity="1" fill="none"></path>
    <path d="M957.03 462.95C944.27 455.07 924.2 443.14 924.2 443.14" stroke="#000000" stroke-width="4"
      stroke-linecap="round" stroke-linejoin="round" opacity="1" fill="none"></path>
    <path d="M944.32 466.43C935.09 461.55 918.8 452.89 918.8 452.89" stroke="#000000" stroke-width="4"
      stroke-linecap="round" stroke-linejoin="round" opacity="1" fill="none"></path>
    <path
      d="M1018.86 352.47L978.71 393.97 990.95 405.17 955.68 446.92C955.68 446.92 939.08 449.1 930.94 452.37 922.8 455.64 917.45 457.97 915.22 460.51 913.1 462.9 912.53 465.39 917.61 467.46 912.79 474.62 909.26 482.14 908.69 485.46 907.6 491.95 911.96 492.52 911.96 492.52 913.56 499.57 920.1 496.87 920.1 496.87 920.1 496.87 920.1 500.66 926.64 499.57 934.73 498.22 944.84 486.5 946.03 485.1H946.09C945.15 486.97 936.8 504.39 943.49 502.32 952.83 499.47 961.39 481.73 961.39 481.73 987.94 480.64 987.94 469.28 987.94 469.28 987.94 469.28 1040.54 439.97 1042.72 406.88 1043.65 392.1 1033.28 371.46 1018.86 352.47Z"
      fill="#ffffff" opacity="1" stroke-width="4" stroke="#000000"></path>
    <path d="M985.3 400.19L990.95 405.17 1001.32 394.12 985.3 400.19Z" fill="#ffffff00" opacity="0" stroke-width="4"
      stroke="#ffffff00"></path>
    <path d="M990.95 405.17L998.01 397.55" stroke="#000000" stroke-width="4" stroke-linecap="round"
      stroke-linejoin="round" opacity="1" fill="none"></path>
    <path d="M911.96 492.52C911.96 492.52 916.68 483.28 931.87 465.39" stroke="#000000" stroke-width="4"
      stroke-linecap="round" stroke-linejoin="round" opacity="1" fill="none"></path>
    <path d="M917.61 467.46C919.22 465.29 921.55 461.55 922.64 460.98" stroke="#000000" stroke-width="4"
      stroke-linecap="round" stroke-linejoin="round" opacity="1" fill="none"></path>
    <path d="M920.1 496.87C920.1 496.87 930.47 483.91 941.83 471.98" stroke="#000000" stroke-width="4"
      stroke-linecap="round" stroke-linejoin="round" opacity="1" fill="none"></path>
    <path d="M946.03 485.1C948.73 481.83 950.7 479.24 950.7 479.24" stroke="#000000" stroke-width="4"
      stroke-linecap="round" stroke-linejoin="round" opacity="1" fill="none"></path>
    <path d="M867.66 390.65L864.03 359.06" stroke="#000000" stroke-width="4" stroke-linecap="round"
      stroke-linejoin="round" opacity="1" fill="none"></path>
  </g>
  <g>
    <path
      d="M1040.08 572.61H1278.54C1306.42 572.61 1329.02 595.2 1329.02 623.09V860.31C1329.02 888.19 1306.42 910.79 1278.54 910.79H1040.08C1012.2 910.79 989.6 888.19 989.6 860.31V623.09C989.6 595.2 1012.2 572.61 1040.08 572.61Z"
      fill="#cfcfcf" opacity="1" stroke-width="4" stroke="#000000"></path>
    <path d="M1073.47 617.58L1034.69 656.36" stroke="#000000" stroke-width="4" stroke-linecap="round"
      stroke-linejoin="round" opacity="1" fill="none"></path>
    <path d="M1073.47 656.36L1034.69 617.58" stroke="#000000" stroke-width="4" stroke-linecap="round"
      stroke-linejoin="round" opacity="1" fill="none"></path>
  </g>
  <g>
    <path
      d="M1198.15 739.04L1130.85 736.96 1130.65 735.82 1130.78 725.49C1129.04 725.96 1126.89 726.29 1124.34 726.29 1116.82 726.29 1105.89 723.61 1099.65 715.49 1091.8 705.29 1093.54 691.53 1096.36 679.52 1097.3 675.63 1097.77 670.47 1098.24 664.83 1099.31 652.48 1100.72 637.12 1107.16 628.53 1117.03 614.91 1131.92 625.71 1153.33 625.71 1154.87 625.71 1158.49 625.58 1160.17 625.71 1184.73 626.99 1204.66 629.13 1203.92 652.82 1203.58 663.49 1202.18 684.89 1200.63 709.79 1200.03 718.24 1199.36 726.96 1198.89 735.62V735.82L1198.15 739.04Z"
      fill="#ffffff" opacity="1" stroke-width="4" stroke="#000000"></path>
    <path
      d="M1130.51 742.66L1130.78 725.76C1130.78 725.69 1130.85 725.55 1130.92 725.55 1132.12 725.22 1141.11 722.4 1150.78 717.03 1150.98 716.9 1151.18 717.17 1151.05 717.37L1130.92 742.8C1130.78 742.93 1130.51 742.87 1130.51 742.66Z"
      fill="#ffffff00" opacity="0" stroke-width="4" stroke="#ffffff00"></path>
    <path d="M1130.78 725.49C1136.28 723.81 1139.64 722.53 1145.74 719.58" stroke="#000000" stroke-width="4"
      stroke-linecap="round" stroke-linejoin="round" opacity="1" fill="none"></path>
    <path d="M1164.13 690L1172.92 686.58" stroke="#000000" stroke-width="4" stroke-linecap="round"
      stroke-linejoin="round" opacity="1" fill="none"></path>
    <path d="M1118.44 677.85C1117.36 680.6 1118.17 682.21 1119.84 683.22" stroke="#000000" stroke-width="4"
      stroke-linecap="round" stroke-linejoin="round" opacity="1" fill="none"></path>
    <path d="M1116.42 693.48C1117.97 694.76 1123.13 694.89 1126.15 691.13" stroke="#000000" stroke-width="4"
      stroke-linecap="round" stroke-linejoin="round" opacity="1" fill="none"></path>
    <path
      d="M1135.88 675.03C1137.44 675.03 1138.7 673.77 1138.7 672.21 1138.7 670.65 1137.44 669.39 1135.88 669.39 1134.32 669.39 1133.06 670.65 1133.06 672.21 1133.06 673.77 1134.32 675.03 1135.88 675.03Z"
      fill="#30242a" opacity="1" stroke-width="4" stroke="#000000"></path>
    <path
      d="M1107.23 670.33C1108.79 670.33 1110.05 669.07 1110.05 667.51 1110.05 665.96 1108.79 664.7 1107.23 664.7 1105.67 664.7 1104.41 665.96 1104.41 667.51 1104.41 669.07 1105.67 670.33 1107.23 670.33Z"
      fill="#30242a" opacity="1" stroke-width="4" stroke="#000000"></path>
    <path
      d="M1046.24 791.45C1043.42 786.95 1040.47 781.85 1037.38 777.02 1025.44 757.76 1015.1 740.92 1008.46 730.85 998.6 715.89 981.35 693.55 976.72 697.84 970.62 703.55 977.73 719.45 978.4 720.86 973.84 720.25 967.46 720.59 964.04 722.27 962.36 723.07 961.09 724.08 960.35 725.22 956.79 730.52 958.81 735.69 960.08 738.03 960.48 738.77 960.15 739.64 959.41 739.98 957.73 740.79 954.78 742.6 953.71 745.82 952.97 748.03 953.24 750.58 954.44 753.33 954.65 753.8 954.58 754.34 954.31 754.74 952.97 756.69 949.61 762.73 954.91 768.23 955.38 768.77 955.45 769.57 954.98 770.11 954.24 771.05 953.37 772.59 953.3 774.6 953.24 777.15 954.58 779.84 957.33 782.39 961.49 786.35 966.52 788.02 970.68 788.83 975.18 800.17 981.49 814.8 989 829.49 991.42 834.32 993.5 838.35 996.45 843.31 996.52 843.45 996.72 843.45 996.78 843.38L1046.24 791.71C1046.3 791.65 1046.3 791.51 1046.24 791.45Z"
      fill="#ffffff" opacity="1" stroke-width="4" stroke="#000000"></path>
    <path
      d="M1188.82 925.04L1188.55 924.84 1189.76 903.03C1189.76 902.9 1189.69 902.83 1189.56 902.83H1114.07C1114.01 902.83 1113.87 902.76 1113.87 902.7L1103.67 863.51C1103.61 863.31 1103.4 863.31 1103.34 863.44 1099.85 867.74 1080.59 890.35 1058.25 890.35 1027.58 890.35 1005.57 869.42 978.73 808.09 978.67 808.02 978.73 807.88 978.8 807.82L1033.49 770.64C1033.55 770.58 1033.69 770.58 1033.76 770.71L1055.56 805.4C1055.63 805.54 1055.83 805.54 1055.9 805.4 1086.43 746.96 1125.88 744.34 1129.98 744.27 1130.11 744.27 1130.18 744.21 1130.18 744.07L1130.31 735.89C1130.31 735.75 1130.38 735.69 1130.51 735.69H1198.75V736.02C1198.62 738.3 1198.42 741.93 1198.28 744.27 1198.28 744.41 1198.35 744.48 1198.48 744.48 1203.85 745.08 1236.4 749.91 1258.54 780.91 1259.14 781.72 1317.99 860.22 1296.58 907.93 1289.67 922.96 1269.21 931.55 1240.29 931.55 1225.32 931.41 1207.95 929.27 1188.82 925.04Z"
      fill="#373a50" opacity="1" stroke-width="4" stroke="#000000"></path>
    <path
      d="M1196.14 870.69C1196.14 870.56 1204.86 861.23 1205.26 842.58 1205.33 838.75 1207.41 835.26 1210.7 833.32L1225.79 870.76C1208.42 870.22 1196.14 870.69 1196.14 870.69Z"
      fill="#373a5000" opacity="0" stroke-width="4" stroke="#ffffff00"></path>
    <path
      d="M1083.07 881.29C1089.31 869.88 1089.45 856.4 1089.45 845.33 1089.58 835.33 1089.58 827.48 1093.81 824.19L1094.15 823.85 1103.54 863.11C1097.9 870.15 1090.99 876.59 1083.48 881.63L1083.07 881.29Z"
      fill="#373a5000" opacity="0" stroke-width="4" stroke="#ffffff00"></path>
    <path d="M1098.04 839.96L1103.54 863.11" stroke="#000000" stroke-width="4" stroke-linecap="round"
      stroke-linejoin="round" opacity="1" fill="none"></path>
    <path d="M1064.96 819.56L1055.9 806.07" stroke="#000000" stroke-width="4" stroke-linecap="round"
      stroke-linejoin="round" opacity="1" fill="none"></path>
    <path d="M1139.91 744.48L1130.24 744.28" stroke="#000000" stroke-width="4" stroke-linecap="round"
      stroke-linejoin="round" opacity="1" fill="none"></path>
    <path d="M955.92 769.17C964.38 773.06 972.29 775.61 981.28 778.03" stroke="#000000" stroke-width="4"
      stroke-linecap="round" stroke-linejoin="round" opacity="1" fill="none"></path>
    <path d="M954.78 754.07C964.71 758.7 973.77 760.78 984.5 763" stroke="#000000" stroke-width="4"
      stroke-linecap="round" stroke-linejoin="round" opacity="1" fill="none"></path>
    <path d="M960.95 739.44C970.35 744.21 978.73 747.29 989.07 748.9" stroke="#000000" stroke-width="4"
      stroke-linecap="round" stroke-linejoin="round" opacity="1" fill="none"></path>
    <path
      d="M973.03 728.98L979.61 730.99C980.01 731.06 992.22 734.01 992.69 741.12 992.96 744.14 991.62 747.03 989.13 748.77 989 748.84 989 748.97 989.07 749.11 989.87 749.98 993.23 754.07 991.15 758.3 990.21 760.31 988.4 761.52 987.12 762.12 986.12 762.59 985.24 762.86 984.77 762.93 984.64 762.93 984.57 763.13 984.64 763.26 985.51 764.47 988.73 769.3 987.32 773.6 986.65 775.48 985.04 776.55 983.77 777.15 982.83 777.62 982.02 777.82 981.55 777.96 981.42 778.03 981.35 778.16 981.42 778.29 983.77 781.05 983.83 783.39 983.57 784.8 983.23 786.55 982.02 788.02 980.34 788.83 979.47 789.23 978.6 789.43 977.66 789.43 977.46 789.43 977.19 789.43 976.92 789.43"
      stroke="#000000" stroke-width="4" stroke-linecap="round" stroke-linejoin="round" opacity="1" fill="none"></path>
    <path
      d="M1102.4 680.46C1110.14 680.46 1116.42 674.19 1116.42 666.44 1116.42 658.7 1110.14 652.42 1102.4 652.42 1094.66 652.42 1088.37 658.7 1088.37 666.44 1088.37 674.19 1094.66 680.46 1102.4 680.46Z"
      stroke="#000000" stroke-width="4" stroke-linecap="round" stroke-linejoin="round" opacity="1" fill="none"></path>
    <path
      d="M1137.76 685.77C1145.5 685.77 1151.78 679.49 1151.78 671.75 1151.78 664 1145.5 657.72 1137.76 657.72 1130.02 657.72 1123.74 664 1123.74 671.75 1123.74 679.49 1130.02 685.77 1137.76 685.77Z"
      stroke="#000000" stroke-width="4" stroke-linecap="round" stroke-linejoin="round" opacity="1" fill="none"></path>
    <path
      d="M1267.6 793.86C1255.92 798.83 1247.74 810.43 1247.74 823.85 1247.74 841.84 1262.36 856.46 1280.35 856.46 1286.05 856.46 1291.35 854.99 1296.05 852.44 1288.93 829.36 1276.25 807.28 1267.6 793.86Z"
      fill="#9297cb" opacity="1" stroke-width="4" stroke="#000000"></path>
    <path
      d="M1196.2 817.22C1214.21 817.22 1228.81 802.62 1228.81 784.61 1228.81 766.59 1214.21 752 1196.2 752 1178.19 752 1163.59 766.59 1163.59 784.61 1163.59 802.62 1178.19 817.22 1196.2 817.22Z"
      fill="#9297cb" opacity="1" stroke-width="4" stroke="#000000"></path>
    <path
      d="M1126.62 774C1126.62 763.33 1121.52 753.87 1113.6 747.9 1100.72 752.73 1082.34 763.87 1065.29 789.5 1070.79 799.7 1081.6 806.61 1094.01 806.61 1112.06 806.68 1126.62 792.05 1126.62 774Z"
      fill="#9297cb" opacity="1" stroke-width="4" stroke="#000000"></path>
    <path
      d="M1025.3 821.98C1011.81 821.98 1000.21 830.16 995.24 841.9 1008.53 865.46 1021.28 879.14 1035.43 885.65 1048.45 881.36 1057.84 869.15 1057.84 854.65 1057.91 836.6 1043.28 821.98 1025.3 821.98Z"
      fill="#9297cb" opacity="1" stroke-width="4" stroke="#000000"></path>
    <path
      d="M1247.74 885.79C1229.75 885.79 1215.13 900.41 1215.13 918.4 1215.13 922.49 1215.86 926.38 1217.27 930.01 1225.46 931.01 1233.18 931.55 1240.29 931.55 1256.39 931.55 1269.88 928.87 1279.88 923.9 1280.21 922.09 1280.35 920.28 1280.35 918.4 1280.41 900.41 1265.79 885.79 1247.74 885.79Z"
      fill="#9297cb" opacity="1" stroke-width="4" stroke="#000000"></path>
    <path
      d="M1257.4 779.77C1247.2 780.37 1236.73 779.77 1226.73 778.09 1164 766.22 1170.24 705.63 1170.44 705.16V705.02L1170.57 704.89C1170.71 704.89 1194.06 690.66 1189.83 677.85 1188.89 674.89 1186.88 672.55 1184.06 671.27 1175.47 667.51 1161.98 672.81 1161.85 672.81L1161.51 672.95V672.61C1159.97 664.16 1161.38 658.05 1164 651.68 1152.86 653.09 1144.94 651.21 1141.79 645.91 1139.44 642.15 1140.04 636.51 1143.53 631.68 1112.73 641.88 1104.75 633.16 1104.48 632.89L1104.68 632.49C1105.49 630.74 1106.36 629.33 1107.3 628.06 1118.1 613.5 1137.16 606.18 1160.98 607.26 1173.19 607.86 1184.26 613.03 1192.45 621.68 1200.43 630.14 1204.72 641.08 1204.39 652.35 1204.05 659.39 1203.65 668.65 1202.91 680.53 1223.11 670.53 1241.9 670.94 1256.19 681 1268.87 689.92 1276.19 706.03 1274.51 721.19 1276.05 721.33 1285.18 722.27 1294.84 727.43 1304.7 732.73 1317.18 743.54 1321.28 765.01 1323.76 778.5 1321.41 792.39 1314.37 804.26 1307.92 815.2 1297.72 823.92 1286.45 827.81 1286.25 827.75 1269.27 795 1257.4 779.77Z"
      fill="#30242a" opacity="1" stroke-width="4" stroke="#000000"></path>
    <path d="M1202.91 680.54L1201.71 691.81" stroke="#000000" stroke-width="4" stroke-linecap="round"
      stroke-linejoin="round" opacity="1" fill="none"></path>
    <path d="M1257.4 779.77C1274.04 779.23 1282.9 770.51 1282.9 770.51" stroke="#000000" stroke-width="4"
      stroke-linecap="round" stroke-linejoin="round" opacity="1" fill="none"></path>
    <path d="M1274.51 721.19C1274.51 721.19 1273.64 729.04 1271.09 736.89" stroke="#000000" stroke-width="4"
      stroke-linecap="round" stroke-linejoin="round" opacity="1" fill="none"></path>
    <path
      d="M1151.78 890.48C1169.79 890.48 1184.39 875.89 1184.39 857.87 1184.39 839.86 1169.79 825.26 1151.78 825.26 1133.77 825.26 1119.17 839.86 1119.17 857.87 1119.17 875.89 1133.77 890.48 1151.78 890.48Z"
      fill="#9297cb" opacity="1" stroke-width="4" stroke="#000000"></path>
    <path
      d="M1104.61 957.32C1103.54 957.18 1102.73 956.51 1102.26 955.57 1100.72 952.01 1104.08 943.69 1110.52 934.5 1110.58 934.43 1110.52 934.37 1110.38 934.37 1109.24 935.11 1108.1 935.78 1106.96 936.65 1099.31 942.15 1089.92 948.73 1082.74 948.73 1079.58 948.73 1077.1 947.45 1075.22 944.97H1075.16C1072.47 944.97 1070.46 944.03 1069.45 942.49 1068.18 940.74 1068.04 938.12 1068.98 935.11V935.04C1067.57 932.56 1067.57 929.74 1068.85 926.11 1074.49 910.01 1103.87 886.53 1118.57 880.89 1138.43 873.24 1170.03 871.5 1193.05 871.16H1193.39L1190.16 925.24 1189.69 925.11C1183.25 923.7 1176.21 922.36 1168.09 920.01 1168.09 920.01 1168.09 920.01 1168.02 920.01 1166.61 920.54 1153.73 927.19 1132.86 930.48H1132.79C1120.92 946.51 1109.38 954.77 1106.63 956.85 1105.95 957.25 1105.95 957.32 1104.61 957.32Z"
      fill="#ffffff" opacity="1" stroke-width="4" stroke="#000000"></path>
    <path d="M1193.39 871.23C1204.79 871.23 1223.11 870.7 1237.2 871.64" stroke="#000000" stroke-width="4"
      stroke-linecap="round" stroke-linejoin="round" opacity="1" fill="none"></path>
    <path d="M1215.46 845.06L1225.79 870.76" stroke="#000000" stroke-width="4" stroke-linecap="round"
      stroke-linejoin="round" opacity="1" fill="none"></path>
    <path d="M1068.98 935.11C1076.77 926.45 1091.8 910.61 1102.33 903.23" stroke="#000000" stroke-width="4"
      stroke-linecap="round" stroke-linejoin="round" opacity="1" fill="none"></path>
    <path d="M1075.22 944.97C1080.39 939.67 1097.16 923.63 1111.26 913.9" stroke="#000000" stroke-width="4"
      stroke-linecap="round" stroke-linejoin="round" opacity="1" fill="none"></path>
    <path d="M1110.72 934.17L1120.05 924.37" stroke="#000000" stroke-width="4" stroke-linecap="round"
      stroke-linejoin="round" opacity="1" fill="none"></path>
  </g>
  <g>
    <path
      d="M368.49 542.34C367.54 537.57 367.28 534.79 365.71 530.2 362.25 520.06 356.7 510.7 349.42 502.9 338.58 491.11 336.59 484.09 336.85 480.27 336.85 478.97 337.28 477.76 338.06 476.72 332.43 467.79 338.24 462.5 338.93 461.9 338.76 459.12 339.28 457.04 340.49 455.74 341.7 454.53 343.35 453.92 345.08 454.01 346.56 454.01 348.12 454.27 349.51 454.79 350.55 453.66 352.11 453.05 353.67 453.05 358.78 453.05 366.32 458.17 376.2 468.4 382.62 474.99 387.99 481.66 389.29 483.31 389.47 472.82 391.81 467.01 396.31 466.14 396.4 466.14 396.49 466.14 396.57 466.14 399.35 466.14 402.47 476.72 406.71 491.28 409.31 500.12 412.26 509.74 415.56 518.67V519.19L401.6 540.17 372.04 544.33H369.44L368.49 542.34Z"
      fill="#ffffff" opacity="1" stroke-width="4" stroke="#000000"></path>
    <path
      d="M487.93 483.83L485.16 483.65V483.48C482.99 472.04 479.61 454.27 478.05 445.69L477.27 441.27C475.54 431.73 472.85 408.24 486.29 396.28 494.35 389.09 503.62 393.42 515.84 393.42 522.17 393.42 526.42 392.81 532.31 395.15 543.24 399.4 552.25 400.53 557.88 409.19 560.05 412.49 560.4 419.16 562.05 424.1L562.31 424.8 562.91 426.44C565.69 426.79 570.28 427.74 570.8 430.26 571.58 433.38 567.94 438.15 567.16 439.01 572.1 455.05 572.01 463.72 566.73 471.17 563.35 475.85 556.58 478.63 548.52 478.63 545.49 478.71 542.46 478.19 539.6 477.24L540.64 483.83 513.5 503.5 487.93 483.83Z"
      fill="#ffffff" opacity="1" stroke-width="4" stroke="#000000"></path>
    <path
      d="M539.6 477.24L540.64 483.83H530.58L527.2 477.07C526.59 475.85 527.11 474.46 528.33 473.86 528.93 473.51 529.71 473.51 530.41 473.86 533.27 475.16 536.39 476.29 539.6 477.24Z"
      fill="#ffffff00" opacity="0" stroke-width="4" stroke="#ffffff00"></path>
    <path
      d="M346.3 981.89C346.13 981.8 345.95 981.72 345.78 981.8 345.69 981.8 345.52 981.8 345.43 981.8 345.35 981.8 345.26 981.8 345.08 981.8 343.61 981.8 339.88 982.93 339.36 981.54L334.94 972.62C332.86 966.98 329.92 968.97 324.37 966.63L309.98 963.86 305.47 945.83C307.55 936.38 310.07 927.89 313.01 918.79 313.01 918.7 313.1 918.61 313.19 918.53L314.14 917.75 383.83 946.35 383.57 949.56C380.88 954.15 379.41 957.71 378.11 960.22L377.5 961 376.03 961.26 359.99 959.44C359.3 959.09 359.04 956.93 358.26 956.84L356.53 956.67C352.8 956.67 352.8 957.45 352.54 961.17L348.73 978.86C348.64 980.24 347.77 981.46 346.47 981.89H346.3Z"
      fill="#ffffff" opacity="1" stroke-width="4" stroke="#000000"></path>
    <path
      d="M519.57 1008.67C518.62 1008.67 517.67 1008.33 516.88 1007.63L508.74 998.97C504.66 994.55 498.86 992.12 492.87 992.21L468.26 993.42 467.48 991.34C466 982.06 465.48 973.22 464.79 961.87L465.48 961 536.91 955.37 541.42 962.13C540.55 969.06 539.94 973.05 539.94 975.13L538.12 977.99 523.3 976C522.52 976 521.83 976.08 521.05 976.34 519.23 976.95 517.75 978.25 516.97 979.9 516.1 981.54 516.02 983.54 516.62 985.36L522.87 1003.99C523.3 1005.29 522.95 1006.77 521.91 1007.63 521.31 1008.33 520.44 1008.59 519.57 1008.67Z"
      fill="#ffffff" opacity="1" stroke-width="4" stroke="#000000"></path>
    <path
      d="M638.06 532.02L641.7 527.34C659.04 508.96 670.31 503.94 674.47 501.42 681.75 496.92 698.31 488.33 708.36 488.33 709.49 488.33 710.61 488.42 711.66 488.68 713.39 489.03 714.86 490.07 715.73 491.54 716.86 491.63 717.98 491.89 719.02 492.32 721.28 493.27 722.66 495.53 722.49 497.96 722.4 499.43 722.14 500.99 721.54 502.38 722.49 503.59 723.01 505.06 723.01 506.62 722.92 513.82 712.87 521.97 708.01 525.43 707.67 525.69 707.93 526.21 708.27 526.04 710.96 525.43 714.78 524.65 717.9 524.65 719.28 524.57 720.67 524.83 721.97 525.52 722.58 525.78 723.1 526.39 723.18 527.08 722.75 530.89 715.3 535.05 705.85 540.26L704.55 541.04C694.49 546.67 681.92 553.6 672.65 562.45L672.39 562.71 638.06 532.02Z"
      fill="#ffffff" opacity="1" stroke-width="4" stroke="#000000"></path>
    <path d="M553.9 446.38C555.28 449.33 559.62 449.67 561.79 448.89" stroke="#000000" stroke-width="4"
      stroke-linecap="round" stroke-linejoin="round" opacity="1" fill="none"></path>
    <path
      d="M552.77 426.96C554.07 426.96 555.02 428 555.02 429.22 555.02 430.43 553.98 431.47 552.77 431.47 551.47 431.47 550.52 430.43 550.52 429.22 550.43 428 551.47 426.96 552.77 426.96Z"
      fill="#231f20" opacity="1" stroke-width="4" stroke="#000000"></path>
    <path d="M530.41 473.86C530.41 473.86 535.87 476.29 539.6 477.24" stroke="#000000" stroke-width="4"
      stroke-linecap="round" stroke-linejoin="round" opacity="1" fill="none"></path>
    <path d="M513.33 446.47L520.61 450.8" stroke="#000000" stroke-width="4" stroke-linecap="round"
      stroke-linejoin="round" opacity="1" fill="none"></path>
    <path
      d="M474.76 1024.02L474.41 1023.76C471.38 1013.27 469.12 1002.52 467.48 991.69V991.34H492.79C498.94 991.34 504.92 993.85 509.17 998.36L517.32 1007.03C517.84 1007.63 518.53 1007.98 519.31 1007.98 519.49 1007.98 519.66 1007.98 519.75 1007.89 519.92 1007.89 520.09 1007.81 520.27 1007.81 520.96 1007.55 521.57 1007.03 521.91 1006.42 522.26 1005.73 522.26 1004.95 522 1004.25L515.76 985.62C515.5 984.75 515.32 983.88 515.41 983.02 515.41 978.68 518.97 975.13 523.3 975.13H539.94V975.65C540.55 987.61 544.02 992.64 550.34 997.84 552.94 999.92 555.72 1001.83 558.58 1003.47 560.22 1004.51 561.96 1005.55 563.78 1006.77 571.06 1010.84 576.17 1015 579.9 1019.94 580.68 1021.07 581.55 1022.37 582.16 1023.5L582.07 1024.28 474.76 1023.93V1024.02Z"
      fill="#ee7036" opacity="1" stroke-width="4" stroke="#000000"></path>
    <path
      d="M301.74 988.13L299.92 981.54C301.05 969.41 302.79 957.79 305.39 946L305.47 945.74 305.73 945.83 326.62 955.02C332.26 957.53 336.68 962.21 338.76 968.02L342.83 979.2C343.18 980.24 344.13 980.94 345.17 981.02H345.43C346.91 981.02 348.12 979.9 348.29 978.51L350.03 959.01V958.83C350.11 958.05 350.29 957.36 350.63 956.67 351.85 953.81 354.71 951.99 357.74 951.99 358.78 951.9 359.91 952.16 360.86 952.68L378.02 960.05C378.11 960.13 378.2 960.22 378.11 960.31 377.76 960.91 376.9 962.82 376.46 963.69 372.13 974.87 372.04 982.93 375.94 990.82 378.54 995.93 381.49 1000.96 384.78 1005.64 387.73 1010.06 390.16 1013.7 391.55 1017.6 392.07 1019.16 392.41 1020.46 392.76 1022.11 392.76 1022.2 392.76 1022.2 392.76 1022.28L392.15 1022.98 391.98 1023.41 301.74 988.13Z"
      fill="#ee7036" opacity="1" stroke-width="4" stroke="#000000"></path>
    <path
      d="M313.45 918.7C313.27 918.61 313.19 918.44 313.27 918.27L314.57 914.45C317.87 904.66 320.64 898.68 325.24 889.49 330.26 879.26 336.07 869.38 342.74 860.19 351.5 847.97 360.08 837.57 367.02 829.25L367.54 828.55C377.5 816.5 385.3 806.97 389.29 798.13 391.2 793.97 393.02 789.72 394.84 785.56 402.73 767.7 419.89 752.53 426.13 734.16L431.16 725.58C444.77 685.27 455.69 662.3 486.81 635.43L533.79 629.28V629.54C533.79 639.76 498.94 763.02 460.89 829.85 452.65 844.16 441.82 859.84 431.42 874.67 426.04 882.12 421.62 888.71 418.85 892.96 416.6 896.34 408.71 908.56 399.78 922.86 398.39 925.11 397.01 927.37 395.71 929.45 391.03 937.08 386.95 943.75 383.92 949.04L383.66 949.39 313.45 918.7Z"
      fill="#373a50" opacity="1" stroke-width="4" stroke="#000000"></path>
    <path
      d="M426.82 781.66C398.22 781.66 415.99 731.3 415.99 731.3L417.03 728.35C430.64 688.04 441.65 656.84 472.76 629.97L533.79 629.28V629.54C533.79 639.76 498.94 763.02 460.89 829.85 459.16 832.89 457.25 835.92 455.34 839.04 432.03 823.27 447.63 773.86 447.63 773.86 447.63 773.86 434.63 781.66 426.82 781.66Z"
      fill="#373a5000" opacity="0" stroke-width="4" stroke="#ffffff00"></path>
    <path
      d="M464.79 961.87V961.35C464.44 954.15 464.44 946.87 464.44 939.68 464.7 924.68 465.92 909.69 468.08 894.86 469.56 885.07 471.64 875.71 474.33 864.53L474.67 862.97C477.97 848.75 481.43 834.1 482.91 816.85 484.73 795.79 481.09 775.5 477.19 754.09L476.67 751.41C469.73 714.05 461.06 703.82 481.43 658.31L507.18 661.52 521.48 650.51C524.34 661.69 563.95 672.53 565.6 713.44 566.99 747.51 566.21 788.25 560.57 829.07 559.36 837.65 557.02 853.69 554.5 870.94 551.38 891.57 547.4 918.09 544.36 939.94 542.98 949.82 542.11 956.32 541.5 961.61L541.42 962.13 464.79 961.87Z"
      fill="#373a50" opacity="1" stroke-width="4" stroke="#000000"></path>
    <path
      d="M479.87 839.13C481.17 832.11 482.3 824.65 482.99 816.76 484.81 795.7 481.17 775.42 477.27 754.01L476.75 751.32C469.82 713.96 474.93 697.15 495.39 651.64L540.46 674.18C541.24 799.86 494.43 835.4 479.87 839.13Z"
      fill="#373a5000" opacity="0" stroke-width="4" stroke="#ffffff00"></path>
    <path d="M373.43 983.36L361.12 986.92" stroke="#000000" stroke-width="4" stroke-linecap="round"
      stroke-linejoin="round" opacity="1" fill="none"></path>
    <path d="M376.12 991.34L367.36 997.41" stroke="#000000" stroke-width="4" stroke-linecap="round"
      stroke-linejoin="round" opacity="1" fill="none"></path>
    <path d="M545.84 993.42L536.91 1000.53" stroke="#000000" stroke-width="4" stroke-linecap="round"
      stroke-linejoin="round" opacity="1" fill="none"></path>
    <path d="M552.16 999.23L546.53 1007.98" stroke="#000000" stroke-width="4" stroke-linecap="round"
      stroke-linejoin="round" opacity="1" fill="none"></path>
    <path d="M721.54 502.38L688.77 522.83" stroke="#000000" stroke-width="4" stroke-linecap="round"
      stroke-linejoin="round" opacity="1" fill="none"></path>
    <path d="M715.73 491.54L681.06 513.04" stroke="#000000" stroke-width="4" stroke-linecap="round"
      stroke-linejoin="round" opacity="1" fill="none"></path>
    <path
      d="M299.14 995.41C299.14 990.9 299.32 986.74 299.84 982.41L299.92 981.54 392.85 1022.28 393.11 1023.15C393.11 1023.24 393.11 1023.24 393.11 1023.32 393.19 1024.1 394.15 1030.6 391.72 1035.63L299.14 995.41Z"
      fill="#f2e3dd" opacity="1" stroke-width="4" stroke="#000000"></path>
    <path
      d="M478.31 1035.72C476.93 1032.34 475.02 1025.49 475.02 1025.49L474.41 1023.76C474.41 1023.67 474.5 1023.5 474.59 1023.5H582.16L582.24 1023.67C584.06 1027.31 584.93 1031.38 584.84 1035.46V1035.72H478.57 478.31Z"
      fill="#f2e3dd" opacity="1" stroke-width="4" stroke="#000000"></path>
    <path
      d="M471.64 805.15C467.74 805.24 464.1 803.42 461.84 800.3 450.66 785.82 459.94 741.61 463.49 726.7 463.66 726.01 462.71 725.66 462.36 726.27 455.43 737.45 436.53 766.66 423.44 775.68 410.27 784.69 400.13 785.65 396.4 785.65 395.97 785.65 395.45 785.65 395.01 785.56H394.75L394.84 785.39C403.25 765.88 409.49 747.51 415.04 731.3L416.08 728.35C429.68 688.22 440.52 656.49 471.29 629.62L463.14 606.83C460.8 609.17 437.49 631.18 416.6 631.18 415.38 631.18 414.08 631.1 412.87 630.92 386.95 627.46 376.38 593.04 368.49 542.34V542.25L415.56 518.67 426.74 547.1C442.86 520.84 451.79 512.17 457.77 507.49 473.2 495.53 481.69 493.97 483.86 493.88L514.2 486.69 544.8 493.88C571.32 497.18 581.55 517.2 591.52 535.31 599.58 549.96 606.08 562.79 607.03 564.61 607.29 564.27 607.9 563.57 608.77 562.53 613.88 556.29 629.48 537.39 641.62 527.43L641.7 527.34 678.28 565.74 678.2 565.83C678.11 565.91 669.44 577.96 658.17 590.96 647.77 603.01 633.04 618.27 621.77 623.03 613.01 626.76 605.21 628.5 598.1 628.5 580.25 628.5 569.41 616.88 560.31 604.23L556.93 632.4C560.14 647.05 564.04 677.64 565.51 713.18V713.27 713.36C565.34 713.53 551.82 733.9 534.22 755.22 504.84 790.85 486.89 801.51 477.1 804.28 475.37 804.89 473.54 805.15 471.64 805.15Z"
      fill="#9297cb" opacity="1" stroke-width="4" stroke="#000000"></path>
    <path
      d="M448.93 618.44C454.22 614.8 458.72 611.07 463.14 606.83L453.7 580.39C453.44 579.43 453 578.57 452.05 578.83 451.27 579.09 451.35 579.43 451.35 580.3 452.31 606.22 448.93 618.44 448.93 618.44Z"
      fill="#9297cb00" opacity="0" stroke-width="4" stroke="#ffffff00"></path>
    <path d="M483.86 493.88L482.3 483.05 543.24 482.87 544.8 493.88H483.86Z" fill="#373a50" opacity="1" stroke-width="4"
      stroke="#000000"></path>
    <path
      d="M487.59 488.16C485.51 488.16 483.34 487.81 481.35 487.12 476.23 485.3 473.02 482.35 471.72 478.37 469.3 470.82 474.85 461.81 475.89 460.25 474.06 459.99 463.84 458.26 461.32 448.03 458.98 438.58 468 431.91 469.82 430.69 463.66 428.35 460.2 423.24 460.8 417.08 461.41 411.02 466.18 404.25 475.63 402.78 472.94 390.82 480.65 385.18 483.08 383.71 486.37 381.72 490.1 380.59 494 380.59 499.12 380.68 504.06 382.32 508.22 385.27 508.91 383.97 513.24 376.69 522.17 376.69 534.22 376.69 536.56 386.66 536.91 388.22 539.86 387.18 542.98 386.66 546.1 386.57 552.25 386.57 556.67 389.17 558.75 394.11 561.01 398.97 560.66 404.6 557.88 409.19 554.16 415.26 546.53 418.99 537.17 419.51 539.6 434.07 529.37 440.23 529.28 440.31L529.19 440.4 529.11 440.31C528.93 440.14 519.05 431.47 510.04 431.47 507.26 431.38 504.49 432.43 502.41 434.25 500.07 436.15 498.68 439.01 498.6 442.05 498.25 452.1 510.12 464.15 510.21 464.32L510.3 464.41V464.5C508.22 481.92 497.21 488.16 487.59 488.16Z"
      fill="#ffb7d5" opacity="1" stroke-width="4" stroke="#000000"></path>
    <path d="M556.93 632.4L471.29 629.62" stroke="#000000" stroke-width="4" stroke-linecap="round"
      stroke-linejoin="round" opacity="1" fill="none"></path>
    <path d="M607.12 564.96L605.39 581.43" stroke="#000000" stroke-width="4" stroke-linecap="round"
      stroke-linejoin="round" opacity="1" fill="none"></path>
    <path d="M560.31 604.23L545.75 581.95" stroke="#000000" stroke-width="4" stroke-linecap="round"
      stroke-linejoin="round" opacity="1" fill="none"></path>
    <path d="M463.14 606.83L452.48 577.09" stroke="#000000" stroke-width="4" stroke-linecap="round"
      stroke-linejoin="round" opacity="1" fill="none"></path>
    <path d="M426.74 547.1L415.56 572.07" stroke="#000000" stroke-width="4" stroke-linecap="round"
      stroke-linejoin="round" opacity="1" fill="none"></path>
    <path d="M389.64 483.65L393.11 488.33" stroke="#000000" stroke-width="4" stroke-linecap="round"
      stroke-linejoin="round" opacity="1" fill="none"></path>
    <path d="M349.68 454.88C356.61 460.94 375.68 482.61 375.68 482.61" stroke="#000000" stroke-width="4"
      stroke-linecap="round" stroke-linejoin="round" opacity="1" fill="none"></path>
    <path d="M339.28 461.81C347.95 469.61 366.15 489.55 366.15 489.55" stroke="#000000" stroke-width="4"
      stroke-linecap="round" stroke-linejoin="round" opacity="1" fill="none"></path>
    <path d="M338.06 476.72C342.4 481.92 357.83 497.78 357.83 497.78" stroke="#000000" stroke-width="4"
      stroke-linecap="round" stroke-linejoin="round" opacity="1" fill="none"></path>
    <path d="M415.56 518.67L368.49 542.34" stroke="#000000" stroke-width="4" stroke-linecap="round"
      stroke-linejoin="round" opacity="1" fill="none"></path>
    <path d="M641.7 527.34L678.28 565.74" stroke="#000000" stroke-width="4" stroke-linecap="round"
      stroke-linejoin="round" opacity="1" fill="none"></path>
    <path
      d="M560.31 604.23L545.92 582.21C544.54 580.04 541.68 579.43 539.51 580.82 538.55 581.43 537.95 582.3 537.6 583.42 533.87 595.99 526.51 618.09 517.67 631.1L556.93 632.4 560.31 604.23Z"
      fill="#9297cb00" opacity="0" stroke-width="4" stroke="#ffffff00"></path>
  </g>
  <g>
    <path
      d="M1081.59 515.24L1240.33 363.79C1240.33 363.79 1240.45 363.79 1240.56 363.79L1310.73 480.66C1310.73 480.77 1310.73 480.77 1310.62 480.88L1081.81 515.46C1081.59 515.46 1081.59 515.24 1081.59 515.24Z"
      fill="#ee703600" opacity="0" stroke-width="4" stroke="#ffffff00"></path>
    <path
      d="M1081.59 515.11L1253.47 315.27C1253.47 315.16 1253.58 315.27 1253.69 315.27L1323.86 432.15C1323.86 432.26 1323.86 432.26 1323.75 432.26L1081.81 515.23C1081.7 515.34 1081.59 515.23 1081.59 515.11Z"
      fill="#ee7036" opacity="1" stroke-width="4" stroke="#000000"></path>
  </g>
</svg>