<svg xmlns="http://www.w3.org/2000/svg" height="1000" width="1000" version="1.1"
  xmlns:xlink="http://www.w3.org/1999/xlink" xmlns:svgjs="http://svgjs.com/svgjs">
  <g>
    <path
      d="M623.61 473.19C619.66 467.77 615.64 462 611.25 455.71 607.3 450 603.2 444.08 598.74 437.86 592.89 429.74 591.14 422.13 593.62 415.18 596.4 407.21 604.23 401.65 610.37 398.36 614.4 396.17 618.64 394.41 623.03 393.1 627.71 394.05 647.82 424.91 659.89 443.56L660.18 446.78 624.12 473.33 623.61 473.19Z"
      fill="#ee7036" opacity="1" stroke-width="4" stroke="#000000"></path>
    <path
      d="M605.11 371.59C610.81 367.42 616.96 358.06 622.37 349.8 625.29 345.41 628 341.24 630.34 338.31 635.61 331.8 643.51 328 651.92 327.93 655.06 327.93 658.21 328.51 661.13 329.61 673.35 334.36 680.81 341.82 685.34 353.74 687.9 360.47 688.05 366.11 685.93 372.1 684.17 376.78 682.12 381.25 679.71 385.63 680.08 386.22 682.42 389.8 681.61 392 680.66 394.85 675.03 395.36 674.23 395.44 668.89 404.43 663.55 409.04 657.33 410.06 656.67 410.14 656.01 410.21 655.35 410.21 646.65 410.21 638.68 401.14 637.58 399.9 632.61 406.63 629.68 414.01 626.54 421.84 625 425.57 623.68 429.45 621.86 433.32L609.49 443.78 605.11 371.59Z"
      fill="#f5ae94" opacity="1" stroke-width="4" stroke="#000000"></path>
    <path
      d="M685.34 353.74C680.81 341.82 673.35 334.36 661.13 329.61 659.74 329.1 658.35 328.73 656.89 328.44 656.45 328.36 656.31 327.78 656.67 327.56 662.45 322.95 666.03 315.71 665.52 307.67 664.79 295.96 655.35 286.45 643.65 285.65 629.9 284.7 618.42 295.6 618.42 309.13 618.42 320.1 625.95 329.39 636.12 331.95 636.56 332.02 636.63 332.61 636.26 332.83 634 334.36 631.95 336.19 630.27 338.39 628.15 341.02 625.66 344.68 623.17 348.48 621.78 347.09 608.54 334.51 590.62 334.51 583.16 334.58 575.85 336.63 569.49 340.51 548.86 352.5 542.5 372.98 543.45 388.12 544.32 402.82 551.79 414.97 562.9 419.72 563.27 419.87 563.71 419.94 564.15 419.94 575.04 419.94 603.28 375.32 605.03 371.74 606.2 372.84 614.32 380.15 625.81 380.15 626.76 380.15 628.8 379.86 628.8 379.86 628.73 379.64 623.1 363.77 631.66 358.06 632.83 357.26 634.29 356.74 635.75 356.74 643.21 356.74 648.92 369.62 648.99 369.76L649.06 369.91H649.21C654.77 368.37 656.89 363.4 657.7 360.4 657.84 359.89 658.57 359.74 658.87 360.25 660.26 362.89 662.96 366.91 666.62 366.91 669.32 366.91 672.03 364.72 674.74 360.4 675.03 359.89 675.83 359.96 676.05 360.47 680.3 370.57 685.71 371.45 685.86 371.45H686.15L686.22 371.15C688.2 365.52 687.83 360.18 685.34 353.74Z"
      fill="#191919" opacity="1" stroke-width="4" stroke="#000000"></path>
    <path
      d="M535.33 359.23C530.28 353.53 527.94 351.04 525.89 348.77L472.06 351.62C470.23 351.99 467.6 352.65 464.53 353.31 452.9 356.01 435.27 360.11 427.88 360.11 425.76 360.11 424.59 359.74 424.37 359.08 423.13 355.65 426.64 353.45 430.73 350.89 432.93 349.65 434.98 348.11 436.81 346.43 437.1 346.14 437.17 345.85 437.1 345.63 436.59 344.31 430.88 343.5 424.81 342.77 416.4 341.68 405.94 340.29 402.72 336.78 401.62 335.61 401.19 334.44 401.4 333.34 401.77 331.58 403.6 330.41 404.18 330.05 403.6 329.53 401.77 327.63 402.28 325.66 402.94 322.95 406.23 322.22 407.04 322.07 406.82 321.05 407.11 320.03 407.77 319.22 409.67 316.95 414.64 316.44 418.52 316.44 420.35 316.44 421.88 316.52 422.69 316.59 419.47 314.47 417.72 312.64 417.5 311.03 417.35 310.37 417.57 309.71 418.01 309.2 418.52 308.76 419.25 308.62 419.91 308.69 422.69 308.69 428.1 310.08 433.81 311.61 436.29 312.27 438.85 312.93 441.27 313.52 448.36 315.05 455.53 315.93 462.7 316.22 476.67 312.71 503.51 306.86 525.31 306.86 532.91 306.86 539.28 307.59 544.18 309.05 551.57 311.25 561.07 317.1 572.27 326.46L539.94 360.62 535.33 359.23Z"
      fill="#f5ae94" opacity="1" stroke-width="4" stroke="#000000"></path>
    <path
      d="M534.52 407.21C549.52 397.63 558.37 389 559.39 388.05 553.83 380.73 546.15 371.52 537.23 361.35L535.33 359.23 570.95 325.37 572.19 326.32C592.23 343.07 612.93 367.2 615.86 374.08 621.42 387.32 619.59 398.14 618.05 407.72 617.32 412.04 616.66 416.14 616.66 420.23 616.66 430.25 621.86 433.32 621.86 433.32 617.32 443.05 612.71 450.95 604.89 456.95 598.23 462.07 587.62 465.43 576.51 468.87L574.02 469.68 534.01 408.46 534.52 407.21Z"
      fill="#ee7036" opacity="1" stroke-width="4" stroke="#000000"></path>
    <path d="M609.35 453C614.54 447.66 618.42 440.78 621.86 433.32" stroke="#000000" stroke-width="4"
      stroke-linecap="round" stroke-linejoin="round" opacity="1" fill="none"></path>
    <path
      d="M405.28 531.41C411.35 521.17 417.35 509.1 422.69 498.42 426.93 489.86 430.95 481.74 434.46 475.75 451.14 446.86 474.62 436.4 499.42 425.28 504.68 422.94 510.17 420.45 515.51 417.89 521.94 414.75 528.23 411.23 534.3 407.36L534.52 407.21 576.8 468.8 576.43 468.94C571.68 470.41 566.85 471.94 562.1 473.7 580.75 486.13 593.18 495.57 600.5 501.42L600.64 502.15 552.88 551.3 549.96 551.38C533.5 545.09 515.73 537.62 498.68 527.09 483.18 547.06 470.23 563.44 455.97 576.68L452.38 579.1 404.84 534.33 405.28 531.41Z"
      fill="#373a50" opacity="1" stroke-width="4" stroke="#000000"></path>
    <path d="M498.39 526.95C474.55 513.12 465.04 493.37 465.04 477.28" stroke="#000000" stroke-width="4"
      stroke-linecap="round" stroke-linejoin="round" opacity="1" fill="none"></path>
    <path d="M562.03 473.7L547.69 464.12" stroke="#000000" stroke-width="4" stroke-linecap="round"
      stroke-linejoin="round" opacity="1" fill="none"></path>
    <path d="M559.39 388.05L567.15 397.12" stroke="#000000" stroke-width="4" stroke-linecap="round"
      stroke-linejoin="round" opacity="1" fill="none"></path>
    <path d="M525.89 348.62L531.6 338.31" stroke="#000000" stroke-width="4" stroke-linecap="round"
      stroke-linejoin="round" opacity="1" fill="none"></path>
    <path d="M404.33 329.97C417.5 330.27 437.24 333.19 437.24 333.19" stroke="#000000" stroke-width="4"
      stroke-linecap="round" stroke-linejoin="round" opacity="1" fill="none"></path>
    <path d="M407.04 322.07C421.15 322.22 439.44 325.15 439.44 325.15" stroke="#000000" stroke-width="4"
      stroke-linecap="round" stroke-linejoin="round" opacity="1" fill="none"></path>
    <path d="M423.13 316.73L440.9 318.56" stroke="#000000" stroke-width="4" stroke-linecap="round"
      stroke-linejoin="round" opacity="1" fill="none"></path>
    <path d="M639.12 374.15L636.92 369.03" stroke="#000000" stroke-width="4" stroke-linecap="round"
      stroke-linejoin="round" opacity="1" fill="none"></path>
    <path d="M637.58 399.9C635.39 397.7 633.27 392.44 633.27 392.44" stroke="#000000" stroke-width="4"
      stroke-linecap="round" stroke-linejoin="round" opacity="1" fill="none"></path>
    <path d="M664.72 388.78C663.99 390.97 664.72 393.9 666.18 394.63" stroke="#000000" stroke-width="4"
      stroke-linecap="round" stroke-linejoin="round" opacity="1" fill="none"></path>
    <path d="M576.36 468.72L534.3 407.5" stroke="#000000" stroke-width="4" stroke-linecap="round"
      stroke-linejoin="round" opacity="1" fill="none"></path>
    <path
      d="M250 636.73C252.71 633.81 258.56 627.81 259.07 627.22L260.24 627 316.49 699.71 316.93 702.93C315.75 707.24 313.12 711.56 309.61 714.34L309.46 714.41 250 636.73Z"
      fill="#060606" opacity="1" stroke-width="4" stroke="#000000"></path>
    <path
      d="M490.42 665.33C491.66 661.6 492.69 659.04 494.15 655.24L495.32 654.21 575.26 701.1 575.85 702.12C576.36 709.87 573.29 714.12 573.29 714.19L573.22 714.34 490.42 665.33Z"
      fill="#060606" opacity="1" stroke-width="4" stroke="#000000"></path>
    <path
      d="M531.74 591.53L531.67 590.65C548.35 569.95 562.98 558.47 564.88 557.01L563.27 556.42C558.73 554.74 554.35 553.06 550.03 551.45 549.74 551.38 549.66 551.01 549.88 550.79L600.5 501.42C605.33 505.22 609.86 509.46 614.25 513.78 633.85 533.89 636.56 555.4 622.29 577.56 614.76 589.34 603.57 601.7 592.74 613.69 590.04 616.69 588.36 618.45 585.87 621.3L583.38 622.03 531.74 591.53Z"
      fill="#f5ae94" opacity="1" stroke-width="4" stroke="#000000"></path>
    <path
      d="M494.15 655.24C497.88 645.8 502.49 635.93 507.39 627L507.83 626.71 535.91 641.19 539.64 631.1C541.4 627.15 546.96 626.49 550.91 628.17 551.2 628.32 551.49 628.47 551.79 628.61L570.44 639.66 570.58 640.39C569.92 641.34 569.63 641.78 569.12 642.58 561.07 655.6 561.88 667.38 572.27 689.25 574.24 693.2 575.41 697.44 575.78 701.83V702.12L494.15 655.24Z"
      fill="#9297cb" opacity="1" stroke-width="4" stroke="#000000"></path>
    <path
      d="M507.39 627C514.34 614.42 522.6 601.99 531.6 590.73L531.67 590.65 585.87 621.3C581.26 626.49 574.53 634.54 570.58 640.39L551.49 628.98C547.91 626.86 543.37 628.03 541.25 631.61 541.11 631.91 540.96 632.12 540.81 632.42L535.91 643.61 507.39 627Z"
      fill="#fdfaf8" opacity="1" stroke-width="4" stroke="#000000"></path>
    <path
      d="M315.46 583.34C341.14 568.42 362.93 561.91 376.02 557.96 382.39 556.06 387 554.67 388.9 553.2 393.72 549.03 399.06 541.94 405.28 531.41L455.9 576.68C442.95 589.26 430.52 598.41 417.86 604.62 406.45 610.26 392.99 616.33 379.9 622.18 371.12 626.13 362.2 630.15 354.08 633.95L349.69 634.83 315.17 584.73 315.46 583.34Z"
      fill="#f5ae94" opacity="1" stroke-width="4" stroke="#000000"></path>
    <path
      d="M322.56 629.78C317.58 623.27 308.37 622.03 301.86 627 300.83 627.81 299.88 628.76 299.08 629.78L298.93 629.93 280.79 608.28 281.6 606.89C294.25 594.02 303.47 590.36 315.32 583.41L315.46 583.34 354.08 633.95 353.94 634.03C345.52 637.98 339.38 640.97 334.33 643.75L333.09 643.68 322.56 629.78Z"
      fill="#fdfaf8" opacity="1" stroke-width="4" stroke="#000000"></path>
    <path
      d="M259 627.96C258.85 627.74 258.85 627.44 259.07 627.22 266.24 620.06 273.7 613.25 281.45 606.96L281.6 606.89 298.93 629.56 303.47 623.64C306.54 619.54 312.39 618.81 316.41 621.88 317.07 622.4 317.66 622.98 318.17 623.64L334.33 643.75C330.75 645.73 327.24 647.85 324.9 649.39 314.22 656.55 315.24 668.33 316.78 684.71 317.07 688.37 317.44 692.1 317.66 696.12 317.73 698.03 317.22 701.32 316.93 703 316.85 703.37 316.41 703.51 316.12 703.22L259 627.96Z"
      fill="#9297cb" opacity="1" stroke-width="4" stroke="#000000"></path>
    <path d="M565.24 557.01L583.53 554.08" stroke="#000000" stroke-width="4" stroke-linecap="round"
      stroke-linejoin="round" opacity="1" fill="none"></path>
    <path
      d="M673.13 383.66C674.14 383.66 674.96 382.84 674.96 381.83 674.96 380.82 674.14 380 673.13 380 672.12 380 671.3 380.82 671.3 381.83 671.3 382.84 672.12 383.66 673.13 383.66Z"
      fill="#000000" opacity="1" stroke-width="4" stroke="#000000"></path>
    <path d="M563.56 657.72H550.83" stroke="#000000" stroke-width="4" stroke-linecap="round" stroke-linejoin="round"
      opacity="1" fill="none"></path>
    <path d="M563.85 665.92L553.54 668.92" stroke="#000000" stroke-width="4" stroke-linecap="round"
      stroke-linejoin="round" opacity="1" fill="none"></path>
    <path d="M535.91 643.32L526.11 672.72" stroke="#000000" stroke-width="4" stroke-linecap="round"
      stroke-linejoin="round" opacity="1" fill="none"></path>
    <path d="M298.93 629.71L281.52 657.43" stroke="#000000" stroke-width="4" stroke-linecap="round"
      stroke-linejoin="round" opacity="1" fill="none"></path>
    <path d="M317.73 658.09L307.05 652.82" stroke="#000000" stroke-width="4" stroke-linecap="round"
      stroke-linejoin="round" opacity="1" fill="none"></path>
    <path d="M315.75 668.26L304.86 667.45" stroke="#000000" stroke-width="4" stroke-linecap="round"
      stroke-linejoin="round" opacity="1" fill="none"></path>
    <path
      d="M668.89 504.56C668.23 504.56 667.57 504.56 666.91 504.49 651.77 503.47 639.26 494.47 623.68 473.33L623.61 473.19 659.89 443.56C664.64 450.8 669.11 456.44 669.84 457.31L702.82 427.76C720.01 412.04 730.62 404.43 735.08 404.43 735.59 404.43 736.03 404.51 736.47 404.8 739.1 406.48 737.71 412.26 737.35 413.5 738.52 413.28 739.69 413.14 740.93 413.14 743.42 413.14 746.71 413.72 748.25 416.5 749.93 419.65 748.32 423.3 747.95 423.96 748.61 424.47 752.12 427.62 748.1 434.2 748.54 434.79 750.88 438.81 746.34 442.98 746.64 443.64 747.81 446.86 743.93 449.71 741.44 451.46 738.59 452.56 736.32 452.56 735.01 452.63 733.69 452.12 732.81 451.1 732.59 451.39 732.08 452.12 731.42 453.15 715.99 476.62 692.58 504.56 668.89 504.56Z"
      fill="#f5ae94" opacity="1" stroke-width="4" stroke="#000000"></path>
    <path
      d="M737.13 419.57C733.76 423.38 730.91 428.35 734.93 431.2 729.08 436.32 734.2 439.25 734.2 439.25 734.2 439.25 729.81 442.17 733.47 446.56 732.23 447.66 731.86 449.49 732.74 450.95"
      stroke="#000000" stroke-width="4" stroke-linecap="round" stroke-linejoin="round" opacity="1" fill="none"></path>
    <path
      d="M632.46 390.9L632.61 390.61 632.75 390.9C635.61 397.34 637.58 399.9 637.58 399.9 635.09 402.9 631.95 409.26 631.95 409.26 631.95 409.26 631 393.83 632.46 390.9Z"
      fill="#f5ae9400" opacity="0" stroke-width="4" stroke="#ffffff00"></path>
    <path d="M547.76 427.84C513.39 442.32 501.24 453.15 503.15 473.77 505.27 496.3 555 513.85 574.02 527.02"
      stroke="#000000" stroke-width="4" stroke-linecap="round" stroke-linejoin="round" opacity="1" fill="none"></path>
    <path d="M623.32 348.62L618.64 355.87" stroke="#000000" stroke-width="4" stroke-linecap="round"
      stroke-linejoin="round" opacity="1" fill="none"></path>
    <path d="M405.35 531.48L455.75 576.61" stroke="#000000" stroke-width="4" stroke-linecap="round"
      stroke-linejoin="round" opacity="1" fill="none"></path>
    <path d="M549.59 551.08L600.35 501.64" stroke="#000000" stroke-width="4" stroke-linecap="round"
      stroke-linejoin="round" opacity="1" fill="none"></path>
    <path d="M734.93 431.2C741.52 429.74 747.73 424.03 747.73 424.03" stroke="#000000" stroke-width="4"
      stroke-linecap="round" stroke-linejoin="round" opacity="1" fill="none"></path>
    <path d="M734.2 439.25C739.32 438.52 745.47 436.47 747.88 434.2" stroke="#000000" stroke-width="4"
      stroke-linecap="round" stroke-linejoin="round" opacity="1" fill="none"></path>
    <path d="M733.47 446.56C737.86 445.98 742.1 444.73 746.12 442.98" stroke="#000000" stroke-width="4"
      stroke-linecap="round" stroke-linejoin="round" opacity="1" fill="none"></path>
    <path d="M728.57 426.08C727.77 432.3 724.69 439.25 724.69 439.25" stroke="#000000" stroke-width="4"
      stroke-linecap="round" stroke-linejoin="round" opacity="1" fill="none"></path>
    <path
      d="M566.19 402.17C564.07 402.17 561.95 401.43 559.47 400.48 556.32 399.39 552.81 397.85 548.13 397.63L553.91 392.95 559.39 388.05 570.22 400.78 569.71 401.29C568.61 401.87 567.44 402.17 566.19 402.17Z"
      fill="#ee703600" opacity="0" stroke-width="4" stroke="#ffffff00"></path>
    <path
      d="M545.64 463.53C544.47 462.73 544.11 461.19 544.91 459.95 545.35 459.22 546.15 458.78 547.03 458.78L569.78 458.56 576.8 468.8 576.43 468.94C571.24 470.55 566.85 471.94 562.03 473.7L561.59 473.77 545.64 463.53Z"
      fill="#373a5000" opacity="0" stroke-width="4" stroke="#ffffff00"></path>
    <path
      d="M448.14 569.73C448.14 569.73 457.8 557.37 462.7 536.53 464.31 529.51 465.55 522.12 466.65 515.61 468.55 504.2 470.74 499.37 470.74 499.37 479.3 517.29 498.54 527.09 498.54 527.09 482.96 547.13 470.52 563.08 455.97 576.61L455.9 576.68 448.14 569.73Z"
      fill="#373a5000" opacity="0" stroke-width="4" stroke="#ffffff00"></path>
    <path
      d="M543.15 577.34C555.59 563.96 565.02 557.01 565.1 556.93L565.17 556.86 583.53 554.08C583.53 554.08 592.53 566.37 567.36 572.51 559.25 573.76 551.2 575.51 543.23 577.63L542.72 577.85 543.15 577.34Z"
      fill="#f5ae9400" opacity="0" stroke-width="4" stroke="#ffffff00"></path>
    <path d="M669.84 457.53V473.26" stroke="#000000" stroke-width="4" stroke-linecap="round" stroke-linejoin="round"
      opacity="1" fill="none"></path>
  </g>
</svg>