<svg xmlns="http://www.w3.org/2000/svg" height="1000" width="1000" version="1.1"
  xmlns:xlink="http://www.w3.org/1999/xlink" xmlns:svgjs="http://svgjs.com/svgjs">

  <g>
    <path
      d="M385.26 717.08C382.25 717.08 379.74 714.87 379.37 711.93L372.68 662.49H397.83L391.15 711.93C390.78 714.87 388.27 717.08 385.26 717.08Z"
      fill="#000000" opacity="1" stroke-width="4" stroke="#000000"></path>
    <path
      d="M282.82 717.08C279.81 717.08 277.3 714.87 276.93 711.93L270.24 662.49H295.39L288.71 711.93C288.34 714.87 285.82 717.08 282.82 717.08Z"
      fill="#000000" opacity="1" stroke-width="4" stroke="#000000"></path>
    <path
      d="M614.68 717.08C611.67 717.08 609.16 714.87 608.79 711.93L602.1 662.49H627.25L620.57 711.93C620.2 714.87 617.68 717.08 614.68 717.08Z"
      fill="#000000" opacity="1" stroke-width="4" stroke="#000000"></path>
    <path
      d="M717.12 717.08C714.11 717.08 711.6 714.87 711.23 711.93L704.55 662.49H729.7L723.01 711.93C722.64 714.87 720.13 717.08 717.12 717.08Z"
      fill="#000000" opacity="1" stroke-width="4" stroke="#000000"></path>
    <path
      d="M704.85 384.61H420.9C395.99 384.61 375.75 404.85 375.75 429.75V478.64H295.15C270.24 478.64 250 498.89 250 523.73V665.74 667.39L418.08 667.45 692.4 666.17H750V429.75C750 404.85 729.76 384.61 704.85 384.61Z"
      fill="#ee7036" opacity="1" stroke-width="4" stroke="#000000"></path>
    <path
      d="M750 479.69L375.81 561.88V569.37H580.63 636.95C667.62 569.37 692.34 595.5 692.34 626.17L692.4 655.25H750V479.69Z"
      fill="#ee703600" opacity="0" stroke-width="4" stroke="#ffffff00"></path>
    <path d="M375.75 478.64V569.37" stroke="#000000" stroke-width="4" stroke-linecap="round" stroke-linejoin="round"
      opacity="1" fill="none"></path>
    <path
      d="M382.32 473.55L376.12 473.37H376.06C371.33 479.38 367.72 483.92 366.12 485.33 366.06 485.33 366.06 485.39 366 485.39 364.89 486.31 363.85 487.11 362.87 487.91 359.86 490.11 357.04 491.65 354.4 492.75 340.79 498.27 324.65 491.95 317.78 496.74 317.78 496.74 317.72 496.8 317.78 496.86L372.93 563.6H372.99C373.48 563.23 380.97 557.41 384.52 554.65 386 553.36 387.53 552.13 389 550.9 392.68 547.78 396.24 544.59 399.67 541.46 405.26 536.24 410.53 530.97 415.38 525.57V525.51L413.29 513.73 382.32 473.55C382.38 473.55 382.38 473.55 382.32 473.55Z"
      fill="#d9b087" opacity="1" stroke-width="4" stroke="#000000"></path>
    <path
      d="M503.53 391.05L459.42 417.85C459.42 417.85 459.42 417.85 459.36 417.85L410.04 416.38C406.61 416.26 403.48 418.4 402.25 421.66L393.91 444.47V444.54C395.56 445.4 441.2 468.21 474.82 463.12 498.56 459.44 534.63 440.61 536.22 439.75 536.28 439.75 536.28 439.69 536.22 439.69 536.22 439.69 503.59 391.05 503.53 391.05Z"
      fill="#d9b087" opacity="1" stroke-width="4" stroke="#000000"></path>
    <path
      d="M633.02 482.51L562.6 416.81 545.24 447.3C545.24 447.3 480.77 384.54 450.96 394.6 427.46 402.58 414.52 423.56 392.62 451.96 386.79 459.57 380.9 467.29 376.12 473.43L415.44 525.51C438.81 499.56 449.61 482.38 457.15 464.96 457.15 464.96 545.3 569.37 598.3 569.37 671.48 569.37 633.02 482.51 633.02 482.51Z"
      fill="#9297cb" opacity="1" stroke-width="4" stroke="#000000"></path>
    <path
      d="M596.28 511.1C532.97 511.1 465.74 451.29 463.23 449.08 463.16 449.08 463.16 449.08 463.1 449.08 461.08 456.32 457.4 464.36 457.15 464.91V464.97C458.75 466.87 545.73 569.31 598.24 569.37H598.3C599.22 567.96 637.62 511.1 596.28 511.1Z"
      fill="#9297cb00" opacity="0" stroke-width="4" stroke="#ffffff00"></path>
    <path d="M376.12 473.43L415.44 525.51" stroke="#000000" stroke-width="4" stroke-linecap="round"
      stroke-linejoin="round" opacity="1" fill="none"></path>
    <path
      d="M544.69 355.71C551.13 361.72 563.27 358.9 564.32 358.6 564.38 358.6 564.19 395.52 564.19 395.52 564.19 395.59 564.26 395.59 564.26 395.59L606.15 389.08C606.15 389.08 606.21 389.08 606.21 389.02L607.62 368.78 607.69 349.52 605.42 325.16C605.42 311.36 607.01 294.98 592.17 288.54 575.48 281.24 557.39 285.66 550.82 294.31 547.14 299.16 541.99 304.86 541.56 311.36 541.19 316.39 541.31 321.36 541.01 325.16 541.01 325.16 541.01 325.23 540.95 325.23 540.52 325.35 536.22 326.51 535.92 328.23 535.43 330.56 539.54 332.71 539.9 332.95 539.9 332.95 539.96 333.02 539.9 333.02 538.86 340.87 538.25 349.82 544.69 355.71Z"
      fill="#d9b087" opacity="1" stroke-width="4" stroke="#000000"></path>
    <path
      d="M564.19 358.6V364.79L576.46 353.69C576.52 353.63 576.46 353.57 576.4 353.57 570.08 357.19 564.19 358.6 564.19 358.6Z"
      fill="#d9b08700" opacity="0" stroke-width="4" stroke="#ffffff00"></path>
    <path
      d="M541.56 311.36C542.17 311.42 547.57 311.67 553.4 306.33 553.46 306.27 553.52 306.33 553.52 306.33 553.71 307.5 556.04 318.23 568.8 313.2 568.86 313.2 568.86 313.2 568.86 313.26 567.57 319.21 573.09 324.24 573.64 324.74H573.7C574.44 324 585.23 312.71 593.64 319.77 602.35 328.54 588.85 342.34 588.06 343.14V343.2C591.92 347.43 601.8 349.03 607.62 349.46 607.69 349.46 607.69 349.46 607.69 349.39V325.35C607.69 311.55 607.32 292.65 592.47 286.21 575.79 278.91 553.34 284.8 546.83 293.51 543.22 298.17 541.99 304.74 541.5 311.24 541.5 311.36 541.5 311.36 541.56 311.36Z"
      fill="#191919" opacity="1" stroke-width="4" stroke="#000000"></path>
    <path d="M580.7 333.26L585.54 329.4" stroke="#000000" stroke-width="4" stroke-linecap="round"
      stroke-linejoin="round" opacity="1" fill="none"></path>
    <path d="M546.96 339.83C547.69 337.68 550.15 336.14 552.48 336.7" stroke="#000000" stroke-width="4"
      stroke-linecap="round" stroke-linejoin="round" opacity="1" fill="none"></path>
    <path
      d="M671.05 424.24C658.54 402.09 642.84 385.22 634.49 379.21 626.46 373.26 617.32 368.91 607.62 366.33 607.62 366.33 598.12 383.32 581.68 383.32 564.56 383.32 564.19 366.27 564.19 366.27 544.44 367.62 517.51 382.65 503.53 391.05L513.53 420.31 536.41 439.76 559.96 495.46 638.42 493 636.64 441.9 648.11 437.3 671.05 424.24Z"
      fill="#373a50" opacity="1" stroke-width="4" stroke="#000000"></path>
    <path
      d="M551.44 326.76C552.59 326.76 553.52 325.83 553.52 324.67 553.52 323.52 552.59 322.59 551.44 322.59 550.28 322.59 549.35 323.52 549.35 324.67 549.35 325.83 550.28 326.76 551.44 326.76Z"
      fill="#000000" opacity="1" stroke-width="4" stroke="#000000"></path>
    <path
      d="M574.68 689.72C573.89 675.68 572.35 661.26 569.72 647.71L561.13 638.32 509.66 639.06 504.88 647.65C506.53 653.17 507.64 657.83 508.07 661.69 508.99 668.63 508.07 674.82 506.53 679.36 502.42 691.32 494.02 699.97 492.61 709.6L575.17 704.38C575.17 699.54 574.93 694.44 574.68 689.72Z"
      fill="#d9b087" opacity="1" stroke-width="4" stroke="#000000"></path>
    <path d="M318.09 667.39V625.56C318.09 594.52 343.24 569.37 374.28 569.37L580.63 570.66V666.53" stroke="#000000"
      stroke-width="4" stroke-linecap="round" stroke-linejoin="round" opacity="1" fill="none"></path>
    <path
      d="M646.88 518.39C642.41 498.95 635.23 486.68 635.23 486.68L595.05 489.25C595.05 489.25 511.69 498.52 486.11 528.94 465.25 553.66 494.51 613.9 504.82 647.7H569.72C564.13 618.5 554.75 592.8 543.58 570.66H596.52C637.13 570.66 652.96 545.2 646.88 518.39Z"
      fill="#9297cb" opacity="1" stroke-width="4" stroke="#000000"></path>
    <path d="M594.99 489.32C594.99 489.32 539.17 495.57 504.82 514.47" stroke="#000000" stroke-width="4"
      stroke-linecap="round" stroke-linejoin="round" opacity="1" fill="none"></path>
    <path
      d="M532.91 550.78L543.52 570.59 543.58 570.66H585.79C571 570.66 541.31 548.33 532.91 550.72 532.91 550.72 532.85 550.78 532.91 550.78Z"
      fill="#9297cb00" opacity="0" stroke-width="4" stroke="#ffffff00"></path>
    <path d="M543.58 570.66C543.58 570.66 535.49 555.5 532.91 550.72" stroke="#000000" stroke-width="4"
      stroke-linecap="round" stroke-linejoin="round" opacity="1" fill="none"></path>
    <path
      d="M388.63 432.82C386.18 450.06 407.34 473.43 412.5 473.06 416.42 472.75 412.19 462.26 411.51 460.61 411.51 460.55 411.58 460.49 411.64 460.55 415.93 463.98 433.29 468.83 432.25 460.12 432.25 460.06 432.25 460.06 432.31 460.06 433.17 460.18 440.53 460.91 438.2 452.88V452.82C438.81 452.51 445.99 448.58 434.58 440 423.66 431.78 421.51 428.28 421.27 427.73 421.27 427.67 421.27 427.67 421.33 427.67 426.48 426.44 436.17 425.46 435.5 420.86 434.33 416.99 423.48 415.52 411.33 415.52 399.12 415.52 390.35 420.86 388.63 432.82Z"
      fill="#d9b087" opacity="1" stroke-width="4" stroke="#000000"></path>
    <path d="M536.35 439.69L528.06 418.28" stroke="#000000" stroke-width="4" stroke-linecap="round"
      stroke-linejoin="round" opacity="1" fill="none"></path>
    <path d="M457.21 464.96C457.21 464.96 460.16 457.79 463.16 449.14" stroke="#000000" stroke-width="4"
      stroke-linecap="round" stroke-linejoin="round" opacity="1" fill="none"></path>
    <path d="M411.58 460.55C404.83 455.77 399.86 450.31 399.86 450.31" stroke="#000000" stroke-width="4"
      stroke-linecap="round" stroke-linejoin="round" opacity="1" fill="none"></path>
    <path d="M438.14 452.76C425.68 447.3 409.43 433.99 409.43 433.99" stroke="#000000" stroke-width="4"
      stroke-linecap="round" stroke-linejoin="round" opacity="1" fill="none"></path>
    <path
      d="M519.66 425.58L536.16 439.57C536.22 439.63 536.28 439.57 536.28 439.51L528.06 418.34C528.06 418.28 528 418.28 527.94 418.34L519.66 425.58C519.6 425.52 519.6 425.52 519.66 425.58Z"
      fill="#373a5000" opacity="0" stroke-width="4" stroke="#ffffff00"></path>
    <path d="M504.82 647.64H569.65" stroke="#000000" stroke-width="4" stroke-linecap="round" stroke-linejoin="round"
      opacity="1" fill="none"></path>
    <path
      d="M513.83 684.64C511.5 682.61 508.99 680.89 506.47 679.42 500.64 691.25 491.81 695.61 486.41 704.44 485.74 705.67 485.12 706.9 484.57 708.31 483.71 710.76 483.22 713.64 483.22 717.08H575.11C575.17 712.79 575.17 708.61 575.17 704.38L528.43 704.32C525.61 697.39 520.4 690.15 513.83 684.64Z"
      fill="#373a50" opacity="1" stroke-width="4" stroke="#000000"></path>
    <path
      d="M345.39 526.12C349.56 520.05 352.87 512.26 353.97 504.1 354.53 500.24 354.71 496.49 354.47 492.81 354.47 492.75 354.4 492.75 354.4 492.75 340.23 497.11 331.22 491.34 320.36 492.32 320.36 492.26 320.3 492.26 320.3 492.26 320.18 492.26 319.99 492.26 319.81 492.32 318.64 492.44 317.54 492.69 316.37 493.06 313.73 493.79 311.1 495.14 308.21 497.17 308.21 497.17 308.15 497.23 308.21 497.23L362.81 570.96C362.81 570.96 362.87 571.02 362.87 570.96 366.18 568.69 372.44 563.97 373.05 563.54 373.05 563.54 373.11 563.48 373.05 563.48 372.25 562.5 358.64 543.97 345.39 526.12Z"
      fill="#373a50" opacity="1" stroke-width="4" stroke="#000000"></path>
    <path
      d="M623.14 447.3C620.63 442.08 617.87 436.01 615.6 429.94 615.6 429.88 615.48 429.88 615.48 429.94L605.42 465.02C605.42 465.09 605.42 465.09 605.48 465.09 618.18 463.06 629.22 461.59 630.32 461.47 630.38 461.47 630.38 461.41 630.38 461.41 629.95 460.67 626.76 454.9 623.14 447.3Z"
      fill="#373a5000" opacity="0" stroke-width="4" stroke="#ffffff00"></path>
    <path
      d="M688.04 461.47C684.61 448.96 677.19 434.97 671.05 424.24L623.14 447.3C627.01 455.46 630.38 461.47 630.38 461.47 630.38 461.47 618.79 463.01 605.36 465.15 595.54 466.69 584.81 468.59 576.95 470.43 559.16 474.54 541.87 480.49 542.17 483.31 542.72 488.22 557.63 484.17 565.97 482.88 566.28 482.82 548.25 490.61 545.36 492.94 539.11 497.91 550.88 499.81 550.88 499.81 550.21 506.01 559.84 505.33 559.84 505.33 559.84 505.33 559.16 509.44 568.06 509.44 577.02 509.44 607.13 500.49 607.13 500.49 607.13 500.49 643.45 503.25 657.19 502.57 670.93 501.9 698.29 499.81 688.04 461.47Z"
      fill="#d9b087" opacity="1" stroke-width="4" stroke="#000000"></path>
    <path d="M646.7 459.44L630.38 461.47" stroke="#000000" stroke-width="4" stroke-linecap="round"
      stroke-linejoin="round" opacity="1" fill="none"></path>
    <path d="M581.68 497.78L559.78 505.82" stroke="#000000" stroke-width="4" stroke-linecap="round"
      stroke-linejoin="round" opacity="1" fill="none"></path>
    <path d="M577.51 488.15L550.82 499.44" stroke="#000000" stroke-width="4" stroke-linecap="round"
      stroke-linejoin="round" opacity="1" fill="none"></path>
    <path d="M573.89 480.91L565.97 482.88" stroke="#000000" stroke-width="4" stroke-linecap="round"
      stroke-linejoin="round" opacity="1" fill="none"></path>
    <path d="M615.48 430L623.14 447.3" stroke="#000000" stroke-width="4" stroke-linecap="round" stroke-linejoin="round"
      opacity="1" fill="none"></path>
    <path d="M580.63 522.5C580.63 497.6 602.17 477.35 627.07 477.35H750V666.17L580.63 666.72V522.5Z" fill="#ee7036"
      opacity="1" stroke-width="4" stroke="#000000"></path>
    <path d="M432.25 459.99C422.06 456.31 404.7 443.13 404.7 443.13" stroke="#000000" stroke-width="4"
      stroke-linecap="round" stroke-linejoin="round" opacity="1" fill="none"></path>
    <path d="M680.01 477.35H749.94" stroke="#000000" stroke-width="4" stroke-linecap="round" stroke-linejoin="round"
      opacity="1" fill="none"></path>
  </g>
</svg>