<svg xmlns="http://www.w3.org/2000/svg" height="1000" width="1000" version="1.1"
  xmlns:xlink="http://www.w3.org/1999/xlink" xmlns:svgjs="http://svgjs.com/svgjs">
  
  <g>
    <path
      d="M692.35 719.44L619.02 750.36C618.96 750.36 618.96 750.36 618.96 750.3 617.93 747.51 617.44 744.53 617.5 741.62L617.75 740.83 690.89 710.09C690.95 710.09 691.08 710.63 691.08 710.63 692.17 716.1 692.41 719.02 692.35 719.44 692.41 719.44 692.41 719.44 692.35 719.44Z"
      fill="#9297cb" opacity="1" stroke-width="4" stroke="#000000"></path>
    <path
      d="M691.08 710.57C689.31 701.03 686.88 691.49 684.21 682.14 683.72 680.56 683.18 678.74 682.63 677.04L682.57 676.97 653.35 677.4 629.59 686.45C629.53 686.45 629.53 686.51 629.53 686.51 631.54 690.46 633.24 694.84 634.33 699.09 635.24 702.86 635.36 706.01 634.45 708.63 629.71 721.93 618.05 729.28 617.5 741.56 617.5 741.62 617.5 741.56 617.5 741.56L691.08 710.57Z"
      fill="#373a50" opacity="1" stroke-width="4" stroke="#000000"></path>
    <path
      d="M549.28 750.43H469.63C469.57 750.43 469.57 750.43 469.57 750.36 469.69 747.45 470.48 744.47 471.76 741.8 471.76 741.8 471.76 741.74 471.82 741.74L513.49 738.27 551.52 741.74C551.59 741.74 551.59 741.8 551.59 741.8 550.37 747.21 549.46 750.06 549.28 750.43 549.34 750.43 549.34 750.43 549.28 750.43Z"
      fill="#9297cb" opacity="1" stroke-width="4" stroke="#000000"></path>
    <path
      d="M504.51 699.39C504.45 699.39 504.45 699.39 504.51 699.39 504.51 705.22 503.96 710.09 502.62 713.73 502.08 715.31 501.23 716.77 500.13 718.04 490.66 728.49 476.99 730.62 471.76 741.74H551.59C553.6 732.44 555.3 723.27 556.33 713.91 556.45 712.76 556.63 711.36 556.76 710.02 556.76 710.02 556.76 709.96 556.7 709.96L531.85 700.12 504.51 699.39Z"
      fill="#373a50" opacity="1" stroke-width="4" stroke="#000000"></path>
    <path
      d="M486.09 293.07C485 295.5 488.83 298.72 489.19 299.03V299.09C487 306.01 485.79 314.4 488.83 319.2 492.47 325.21 500.07 326.91 508.88 325.76 508.94 325.76 508.94 325.76 508.94 325.82L508.27 329.77 541.56 335.72C541.62 335.72 541.62 335.72 541.62 335.66 542.05 333.9 547.33 330.86 547.64 328.92 547.94 327.34 548.12 325.64 548.43 323.94 550.13 314.4 549.95 303.65 551.16 296.48 553.41 282.93 555.53 272.9 539.86 262.76 530.57 256.74 519.26 255.83 508.94 258.51 508.94 258.51 494.96 261.24 494.36 278.01 494.36 278.07 491.5 289.73 491.26 290.46 491.26 290.46 491.26 290.52 491.2 290.52 490.89 290.64 486.88 291.13 486.09 293.07Z"
      fill="#f7bea1" opacity="1" stroke-width="4" stroke="#000000"></path>
    <path
      d="M508.39 329.77C509.24 329.59 516.17 327.95 521.27 321.81 521.33 321.75 521.27 321.69 521.21 321.69 515.98 324.42 509.54 325.64 509.06 325.76 509.06 325.76 509 325.76 509 325.82L508.33 329.71C508.27 329.71 508.33 329.77 508.39 329.77Z"
      fill="#f7bea100" opacity="0" stroke-width="4" stroke="#ffffff00"></path>
    <path
      d="M579.29 362.76C572.61 346.42 560.82 336.27 547.09 333.48 547.03 333.48 547.03 333.41 547.03 333.41L547.7 328.98C547.7 328.92 547.7 328.92 547.64 328.92L508.51 329.04C508.45 329.04 508.39 329.1 508.39 329.16L507.66 332.99C507.66 333.05 507.66 333.05 507.6 333.05 506.87 333.11 498.67 333.6 487.92 336.03 471.57 339.67 449.22 369.32 431.6 390.46H431.54L404.81 378.37H404.74L391.38 395.38 386.03 419.87V419.93C399.7 429.22 417.2 438.7 432.14 438.4 457.3 437.79 479.65 412.82 481.17 411.12 481.23 411.06 481.29 411.12 481.29 411.18L487 442.04C487 442.04 487 442.22 487.07 442.22L556.39 443.2 571.76 456.44C571.76 456.44 571.76 456.44 571.82 456.44 572.36 456.44 581.96 456.14 587.25 443.2 590.71 433.84 586.15 379.71 579.29 362.76Z"
      fill="#9297cb" opacity="1" stroke-width="4" stroke="#000000"></path>
    <path
      d="M499.4 391.56L497.33 442.04C497.33 442.1 497.33 442.1 497.27 442.1H487C487 442.1 486.94 442.1 486.94 442.04L481.23 411.06V411L499.28 391.43C499.34 391.43 499.4 391.49 499.4 391.56Z"
      fill="#9297cb00" opacity="0" stroke-width="4" stroke="#ffffff00"></path>
    <path
      d="M494.42 278.07C501.83 287.12 514.28 295.99 515.01 296.54H515.07C515.8 295.93 529.29 285.12 536.34 291.74 545.69 300.12 532.51 312.64 528.44 314.76 528.38 314.76 528.38 314.82 528.44 314.88 536.82 323.57 547.64 323.94 548.43 323.94 548.43 323.94 548.49 323.94 548.49 323.88 550.19 314.88 552.38 303.22 553.41 297.08 555.66 283.54 556.45 269.02 540.83 258.87 531.54 252.86 518.54 252.61 508.27 255.29H508.21C507.78 254.74 501.16 246.6 491.8 251.64 483.66 256.99 486.76 268.71 494.42 278.07Z"
      fill="#000000" opacity="1" stroke-width="4" stroke="#000000"></path>
    <path
      d="M498.19 294.65C499.19 294.65 500.01 293.84 500.01 292.83 500.01 291.82 499.19 291.01 498.19 291.01 497.18 291.01 496.37 291.82 496.37 292.83 496.37 293.84 497.18 294.65 498.19 294.65Z"
      fill="#000000" opacity="1" stroke-width="4" stroke="#000000"></path>
    <path
      d="M337.86 356.26C337.92 356.26 337.98 356.2 337.92 356.14 334.57 354.19 333.66 347.14 337.86 348.42 352.19 352.73 368.78 361.42 381.48 367.74L381.54 367.8 376.49 388.46 365.44 402.98C365.44 402.98 365.44 402.98 365.38 402.98 358.15 403.22 346.85 400.36 338.71 394.11 338.71 394.11 338.71 394.11 338.65 394.11 326.56 393.13 314.22 391.49 313.68 388.52 313.01 384.93 327.47 384.57 331.84 384.51 331.9 384.51 331.9 384.39 331.84 384.39 327.28 382.75 301.83 380.44 309.42 370.29V370.23C306.08 365.13 310.76 362.52 312.28 362.39 312.34 362.39 312.34 362.33 312.34 362.33 312.04 361.73 310.09 357.96 312.76 355.53 314.59 353.95 333.78 355.65 337.86 356.26Z"
      fill="#f7bea1" opacity="1" stroke-width="4" stroke="#000000"></path>
    <path
      d="M381.48 367.8L365.44 402.98V403.04C372.3 409.17 378.32 414.7 385.97 419.81 386.03 419.81 386.03 419.81 386.03 419.81L404.74 378.37C404.74 378.31 404.74 378.31 404.74 378.31L381.6 367.74C381.48 367.74 381.48 367.74 381.48 367.8Z"
      fill="#d0d2e9" opacity="1" stroke-width="4" stroke="#000000"></path>
    <path
      d="M556.32 442.04L564.16 406.74C564.16 406.68 564.28 406.68 564.28 406.74L565.56 451.94C565.56 452 565.5 452 565.44 452L556.32 442.04Z"
      fill="#9297cb00" opacity="0" stroke-width="4" stroke="#ffffff00"></path>
    <path
      d="M675.46 655.53C672.55 647.33 669.51 639.91 666.35 633.11 653.35 604.86 639.62 588.09 631.23 576.18 614.59 552.73 607.48 516.59 593.14 487.48 579.11 458.75 556.99 442.53 556.32 442.04 556.32 442.04 556.32 442.04 556.26 442.04H536.28L487.07 442.1C487 442.1 487 442.1 487 442.16 486.82 444.29 480.44 515.01 489.62 601.46 491.62 620.35 496.36 642.47 499.95 662.58 502.44 676.43 504.26 689.19 504.44 699.33 504.44 699.33 504.44 699.39 504.5 699.39L536.34 705.89 556.69 709.9C556.75 709.9 556.75 709.9 556.75 709.84 557.54 702.49 558.27 694.35 558.82 684.87 559.12 676.97 559.18 669.56 559.06 662.58 558.27 630.56 551.95 609.17 548.67 594.59 545.57 580.68 547.39 564.7 549.76 548.18 549.88 548.18 549.76 548.18 549.88 548.18 558.88 566.83 568.84 586.33 579.35 605.35 587.79 620.72 599.46 637.73 610.09 653.71 617.93 665.61 624.91 676.73 629.53 686.39L629.59 686.45 682.57 676.97C682.63 676.97 682.63 676.91 682.63 676.91 680.63 670.53 678.32 663.55 675.46 655.53Z"
      fill="#cfcfcf" opacity="1" stroke-width="4" stroke="#000000"></path>
    <path
      d="M565.74 579.89C565.8 579.95 565.86 579.95 565.86 579.83L561.85 536.88C561.06 528.31 559.36 519.74 556.75 511.54L554.56 504.62C554.56 504.56 554.44 504.56 554.44 504.62 554.38 518.83 551.89 533.6 549.76 548 549.76 548 549.76 548 549.76 548.06 554.87 558.51 560.21 569.2 565.74 579.89Z"
      fill="#cfcfcf00" opacity="0" stroke-width="4" stroke="#ffffff00"></path>
    <path d="M498.37 303.65C497.76 305.35 494.96 306.68 493.26 306.08" stroke="#000000" stroke-width="4"
      stroke-linecap="round" stroke-linejoin="round" opacity="1" fill="none"></path>
    <path d="M521.21 321.69C517.5 323.57 510.82 325.46 508.94 325.82" stroke="#000000" stroke-width="4"
      stroke-linecap="round" stroke-linejoin="round" opacity="1" fill="none"></path>
    <path d="M528.5 300.85L522.97 305.29" stroke="#000000" stroke-width="4" stroke-linecap="round"
      stroke-linejoin="round" opacity="1" fill="none"></path>
    <path d="M481.18 411.12L499.28 391.49" stroke="#000000" stroke-width="4" stroke-linecap="round"
      stroke-linejoin="round" opacity="1" fill="none"></path>
    <path d="M312.34 362.45C312.34 362.45 332.02 364.09 344.78 366.89" stroke="#000000" stroke-width="4"
      stroke-linecap="round" stroke-linejoin="round" opacity="1" fill="none"></path>
    <path d="M337.86 356.14L347.58 357.78" stroke="#000000" stroke-width="4" stroke-linecap="round"
      stroke-linejoin="round" opacity="1" fill="none"></path>
    <path d="M309.48 370.41C309.48 370.41 330.44 374.61 341.32 376.67" stroke="#000000" stroke-width="4"
      stroke-linecap="round" stroke-linejoin="round" opacity="1" fill="none"></path>
    <path d="M549.88 548.24C552.31 531.77 554.2 520.96 554.56 504.68" stroke="#000000" stroke-width="4"
      stroke-linecap="round" stroke-linejoin="round" opacity="1" fill="none"></path>
    <path d="M647.88 701.58L634.88 701.52" stroke="#000000" stroke-width="4" stroke-linecap="round"
      stroke-linejoin="round" opacity="1" fill="none"></path>
    <path d="M646.66 711.73L634.09 709.48" stroke="#000000" stroke-width="4" stroke-linecap="round"
      stroke-linejoin="round" opacity="1" fill="none"></path>
    <path d="M514.1 718.71L502.62 713.73" stroke="#000000" stroke-width="4" stroke-linecap="round"
      stroke-linejoin="round" opacity="1" fill="none"></path>
    <path d="M508.94 727.58L498 720.23" stroke="#000000" stroke-width="4" stroke-linecap="round" stroke-linejoin="round"
      opacity="1" fill="none"></path>
    <path d="M503.35 442.16C503.35 442.16 503.66 532.81 511.56 589.73 519.45 646.66 527.65 688.76 526.08 703.58"
      stroke="#000000" stroke-width="4" stroke-linecap="round" stroke-linejoin="round" opacity="1" fill="none"></path>
    <path d="M556.32 442.04L564.16 406.74" stroke="#000000" stroke-width="4" stroke-linecap="round"
      stroke-linejoin="round" opacity="1" fill="none"></path>
  </g>
</svg>